<svg id="Layer_1" data-name="Layer 1" xmlns="http://www.w3.org/2000/svg" viewBox="0 0 25.35 27.3"><defs><style>.cls-1{fill:#fff;}</style></defs><title>icon-calendar</title><path class="cls-1" d="M26.68,6.2V25.7a2,2,0,0,1-2,2H3.27a1.87,1.87,0,0,1-1.37-.58,1.88,1.88,0,0,1-.58-1.37V6.2A1.88,1.88,0,0,1,1.9,4.83a1.87,1.87,0,0,1,1.37-.58h2V2.79a2.35,2.35,0,0,1,.72-1.72A2.35,2.35,0,0,1,7.66.35h1a2.35,2.35,0,0,1,1.72.72,2.35,2.35,0,0,1,.72,1.72V4.25h5.85V2.79a2.35,2.35,0,0,1,.72-1.72A2.35,2.35,0,0,1,19.36.35h1a2.35,2.35,0,0,1,1.72.72,2.35,2.35,0,0,1,.72,1.72V4.25h1.95A2,2,0,0,1,26.68,6.2ZM3.27,14.49H7.66V10.1H3.27v4.39Zm0,5.85H7.66V15.46H3.27v4.88Zm0,5.36H7.66V21.31H3.27V25.7ZM9.12,7.17V2.79A0.5,0.5,0,0,0,8.64,2.3h-1a0.5,0.5,0,0,0-.49.49V7.17a0.5,0.5,0,0,0,.49.49h1A0.5,0.5,0,0,0,9.12,7.17ZM8.64,14.49h4.87V10.1H8.64v4.39Zm0,5.85h4.87V15.46H8.64v4.88Zm0,5.36h4.87V21.31H8.64V25.7Zm5.85-11.21h4.88V10.1H14.49v4.39Zm0,5.85h4.88V15.46H14.49v4.88Zm0,5.36h4.88V21.31H14.49V25.7ZM20.83,7.17V2.79a0.49,0.49,0,0,0-.49-0.49h-1a0.49,0.49,0,0,0-.49.49V7.17a0.49,0.49,0,0,0,.49.49h1A0.49,0.49,0,0,0,20.83,7.17Zm-0.49,7.31h4.39V10.1H20.34v4.39Zm0,5.85h4.39V15.46H20.34v4.88Zm0,5.36h4.39V21.31H20.34V25.7Z" transform="translate(-1.32 -0.35)"/></svg>