<svg id="Layer_1" data-name="Layer 1" xmlns="http://www.w3.org/2000/svg" viewBox="0 0 24.95 24.93"><defs></defs><title>icon-phone</title><path class="cls-1" d="M3042.54,6367.13l-3.55-3.55a1.72,1.72,0,0,0-2.37,0l-1.58,1.58a1.72,1.72,0,0,1-2.37,0l-6.32-6.32a1.68,1.68,0,0,1,0-2.37l1.58-1.58a1.68,1.68,0,0,0,0-2.37l-3.55-3.55a1.72,1.72,0,0,0-2.37,0l-1.58,1.58-0.07,0a0.83,0.83,0,0,0-.44.47c-2,2.12-2.39,4.75-1.06,7.83a27.07,27.07,0,0,0,5.91,7.84c4.57,4.57,8.15,6.7,11.27,6.7a6.19,6.19,0,0,0,4.4-1.85,0.83,0.83,0,0,0,.47-0.44l0-.07,1.58-1.58A1.68,1.68,0,0,0,3042.54,6367.13Zm-19.74-17.37a0.57,0.57,0,0,1,.79,0l3.55,3.55a0.56,0.56,0,0,1,0,.79l-1.18,1.18-4.34-4.34Zm2.76,16.18a26.07,26.07,0,0,1-5.67-7.49c-1.17-2.72-.87-4.91.94-6.72h0l4.38,4.38a2.8,2.8,0,0,0,.36,3.51l6.32,6.32a2.8,2.8,0,0,0,3.51.35l4.38,4.38a5.09,5.09,0,0,1-3.73,1.63C3033.29,6372.32,3029.86,6370.24,3025.57,6365.95Zm16.18,2.76-1.18,1.18-4.34-4.34,1.18-1.18a0.58,0.58,0,0,1,.79,0l3.55,3.55A0.56,0.56,0,0,1,3041.75,6368.71Z" transform="translate(-3018.08 -6348.5)"/></svg>
