<svg id="Layer_1" data-name="Layer 1" xmlns="http://www.w3.org/2000/svg" viewBox="0 0 51.56 68.97"><title>icon-map-marker</title><path d="M3125.25,8357.69c-2.1-5.84-6.15-10.32-12.37-13.69a25.23,25.23,0,0,0-12-3,24.84,24.84,0,0,0-11.86,3c-6.22,3.39-10.26,7.87-12.36,13.69a27,27,0,0,0,.46,18.85c2.67,6.92,8.83,18.2,23,32.57l0.84,0.85,0.84-.85c14.16-14.37,20.32-25.64,23-32.57A27,27,0,0,0,3125.25,8357.69Zm-24.3,18.15a9.05,9.05,0,1,1,9.05-9.05A9.05,9.05,0,0,1,3100.95,8375.84Z" transform="translate(-3075.17 -8340.99)"/></svg>