<svg id="Layer_1" data-name="Layer 1" xmlns="http://www.w3.org/2000/svg" viewBox="0 0 303.67 37.48"><defs></defs><title>sallys-kitchen-logo</title><path class="cls-1" d="M110.69,1.79c1.49-.12,2.37,1.2,2.16,3s-1.37,3.93-2.4,4.49c-0.81.44-2.79,0.59-2.82-.42s0.8-.65,1.56-1a1.57,1.57,0,0,0,.84-1.5c-0.14-1.15-1.85-1-1.62-2.76a2.41,2.41,0,0,1,2.28-1.8" transform="translate(-0.17 -0.26)"/><path class="cls-1" d="M68.13,4.59c0.94,0,2.85-.2,3.24,1a12.06,12.06,0,0,1,0,2.64c0,4.48-.2,8.39-0.36,13.12-0.06,1.59-.29,4.44.36,5a5,5,0,0,0,2.16.36c0.9,0,2.17-.29,2.7.12a1.32,1.32,0,0,1,.18,1.62c-0.37.51-1.51,0.44-2.34,0.54-2.24.27-4.3,0.4-5.21-1.08s-0.49-4.42-.42-6.83c0.08-2.71,0-5.18.06-7.19,0-1.26.74-5.85-.36-6.65-0.61-.45-2.66-0.1-3.84-0.06-1.41.05-2.85-.09-2.58-1.38,0.2-.91,1.44-0.81,2.7-0.9s2.69-.19,3.71-0.24" transform="translate(-0.17 -0.26)"/><path class="cls-1" d="M11.13,3.71c1.31-.06,3.44.21,3.3,1.86-0.15,1.8-2.45.56-3.83,0.54a10.4,10.4,0,0,0-4.07.72A3.65,3.65,0,0,0,5.14,11c0.89,2.25,3.34,2.85,5.45,4,1.89,1,4,2.57,4.67,4.73a7.86,7.86,0,0,1-.48,4.91C13.33,28,9.92,29.23,4.54,28.82a18.56,18.56,0,0,1-2.4-.42c-0.7-.15-1.58-0.3-1.86-0.9a1.58,1.58,0,0,1,.84-2.1,4.11,4.11,0,0,1,1.8.54,9.19,9.19,0,0,0,7.85-1.86,3.79,3.79,0,0,0,1.14-1.92,5.28,5.28,0,0,0-1.32-3.72c-1.94-2.31-6.4-2.94-8.21-5.33a5.83,5.83,0,0,1,0-6.47C4,4.59,7.43,3.87,11.13,3.71" transform="translate(-0.17 -0.26)"/><path class="cls-1" d="M52.54,25.88a0.63,0.63,0,0,0,.24.27c0.79,0.49,3.16-.45,4.38-0.06a1.68,1.68,0,0,1,.54,2.76c-3.24-.05-7.23,1.1-8.21-1.68a10.42,10.42,0,0,1-.06-2.94,115.4,115.4,0,0,0,.18-11.92c0-.69-0.1-1.47-0.12-2.4a5.87,5.87,0,0,0-.18-2.28c-0.72-1-3.65,0-4.5-1.26A1.51,1.51,0,0,1,44.7,5c0.3-.61,1.54-0.67,2.1-0.72a9.44,9.44,0,0,1,3.54.3,2.79,2.79,0,0,1,2,1.44c0.89,1.8.31,5.4,0.3,7.67,0,1.07.08,2.08,0,3.18-0.14,1.93-.21,4-0.24,6.11a9.76,9.76,0,0,0,.11,2.91" transform="translate(-0.17 -0.26)"/><path class="cls-1" d="M124.68,10.13c1.37-.12,4.87-0.3,4.7,1.35-0.13,1.26-3.48.77-4.73,0.9a8.16,8.16,0,0,0-3.47,1.32,2.55,2.55,0,0,0-1.44,2.52c0.14,0.85,1.29,1.24,2.1,1.5,1.07,0.35,1.85.62,2.64,0.9,1.48,0.52,4,1.07,5.09,2a4,4,0,0,1,1.38,3.6c-0.17,1.56-2,3-3.12,3.66-1.68,1-3.81,1.2-6.83,1.2a10.8,10.8,0,0,1-3.12-.12,1.87,1.87,0,0,1-1-1.92,2,2,0,0,1,1.56-.9c0.7,0,1.52.24,2.34,0.24a11.62,11.62,0,0,0,5.33-1.08c0.76-.43,1.56-0.81,1.44-2-0.15-1.59-3.27-2.07-5-2.46-2.24-.49-4.72-1.34-5.63-3.06a5.52,5.52,0,0,1,.54-5,6.11,6.11,0,0,1,2-1.44,12.1,12.1,0,0,1,3.47-1l1.71-.15" transform="translate(-0.17 -0.26)"/><path class="cls-1" d="M97,11.87a0.61,0.61,0,0,1,.48-0.24c0.84,0,1.75.36,1.82,1.06s-0.62,2.05-.9,2.88c-0.36,1.07-2.4,6.07-3.12,8-0.65,1.71-1,3.55-1.56,5.21-0.82,2.33-1.28,4.56-2.64,6.17a8.93,8.93,0,0,1-4.67,2.7,5.9,5.9,0,0,1-2.88-.12c-0.68-.4-0.69-2.19-0.18-2.88,2.87-.18,4.79-0.78,6.05-2.1,1.91-2,.62-5.57-0.48-7.49-0.53-.92-1.06-1.82-1.56-2.81-0.31-.61-4-7.25-4-7.25s-0.62-1.22-.93-1.73c-0.61-1-.35-2.29.81-2.22S85,12.35,85.49,13.3c0.37,0.67,1.9,3.37,2.28,4.08,0.95,1.76,2,3.52,2.88,5.45a1.75,1.75,0,0,0,.87,1c1,0.17,2-3,2.18-3.42,0.67-1.29,1.12-3,1.75-4.49,0.32-.77.53-1.46,0.77-2.24A7.87,7.87,0,0,1,97,11.87" transform="translate(-0.17 -0.26)"/><path class="cls-1" d="M32.76,24.89a12.86,12.86,0,0,1-3,.94,5.86,5.86,0,0,1-1,.14c-1.94-.13-1.11-2.77,0-3.26a2.92,2.92,0,0,1,.86-0.22c1.24-.13,3.73-0.22,3.89.9a1.83,1.83,0,0,1-.84,1.5m4.55-8.69a6.35,6.35,0,0,0-1-2.88c-1.42-1.48-6.49-1.64-9-1.62a4.33,4.33,0,0,0-2.22.3,1.6,1.6,0,0,0-.6,1.68c0.24,0.5,1.8.39,2.52,0.42,2.46,0.11,5.18-.14,6.53.9s1.06,3.77-.48,4.32c-1.08.38-2.57-.09-3.71-0.06-3.09.09-5.05,1.58-5.93,3.89-1.13,3,1.26,5.4,3.83,5.81,2,0.32,4.59-.17,6.05.36,0.62,0.23,1.94,1.41,2.94,1,0.77-.3.52-1.72,0.66-2.7,0-.3.08-4.21,0.18-5.87a35.46,35.46,0,0,0,.18-5.57" transform="translate(-0.17 -0.26)"/><path class="cls-1" d="M246,13a1.41,1.41,0,0,0,1-.66,7.13,7.13,0,0,1,3.91-1.93,5.61,5.61,0,0,1,4.79,2.75,17.55,17.55,0,0,1,.77,3.8,63.05,63.05,0,0,1,.11,8.86c0,1.37,0,3.31-1.32,3.36-1,0-1.21-.92-1.21-2s0.64-9.07-.27-11.34A3.53,3.53,0,0,0,248.54,14a7.75,7.75,0,0,0-2.64,3c-0.38,1.17-.42,8.35-0.22,10.24a2.27,2.27,0,0,1-.18,1.38,1.55,1.55,0,0,1-1.49.22c-0.39-.19-0.47-1-0.48-1.76,0-1.29,0-11.06,0-11.83,0.1-1.84,0-4.07.05-6.16,0-.71,0-1.55,0-2.31a7.64,7.64,0,0,1,.11-2.2A1.48,1.48,0,0,1,245,3.91c1.14,0.25.88,2.53,0.88,4A37.66,37.66,0,0,0,246,13" transform="translate(-0.17 -0.26)"/><path class="cls-1" d="M158.35,11c0.63,0,8.27-7.43,9.17-8.39a3.34,3.34,0,0,1,1.38-1.14,1.76,1.76,0,0,1,1.74,1.62,2.35,2.35,0,0,1-.76,1.09c-0.3.33-2,2.07-2.59,2.63-1.12,1.12-2.32,2.29-3.42,3.53-0.79.89-1.77,1.74-1.67,3.12a4.52,4.52,0,0,0,1,1.74,78.86,78.86,0,0,0,6.17,7.55c0.36,0.41.75,1,1.2,1.56a3.83,3.83,0,0,1,1,1.68,1.92,1.92,0,0,1-1.8,1.32c-1.17,0-2.24-1.76-3.06-2.76-1.77-2.18-3.4-4.07-5.09-6.53-0.35-.51-0.78-1-1.2-1.74-0.31-.52-0.8-1.39-1.62-1.26a1.73,1.73,0,0,0-1,1.5,86,86,0,0,0,.19,9.13c0,0.95.32,2.19,0,2.73s-1.14.59-2,.54c-0.67,0-.66-2.41-0.66-3.84,0-3.69-.12-7.92-0.18-12.34,0-2.61.22-6.16-.06-9.11-0.14-1.44-.53-3.07.66-3.3,2.86-.54,2.41,3.27,2.4,5.45,0,1.89.12,3.64,0.18,5.21" transform="translate(-0.17 -0.26)"/><path class="cls-1" d="M183.41,3.12a2.77,2.77,0,0,1,2,.4,2.46,2.46,0,0,1,1,2.22,3.92,3.92,0,0,1-1.59,2.11c-1.15.4-2-.74-2.56-1.37a2.71,2.71,0,0,1-.91-2.28c0.17-.74,1-1,2-1.08" transform="translate(-0.17 -0.26)"/><path class="cls-1" d="M202.73,5.89a0.66,0.66,0,0,1,.22.56,13.78,13.78,0,0,0,.13,3.11,0.39,0.39,0,0,0,.3.29c0.89,0.06,2,.08,3.07.11,1.8,0,3.37-.32,3.4,1.5a3.11,3.11,0,0,1-.22,1.28c-0.61.79-3.3,0.51-4.84,0.5a7.05,7.05,0,0,0-1.86.21,0.45,0.45,0,0,0-.26.28c-0.57,2.09.15,9.13,0.18,9.42A4.92,4.92,0,0,0,204.28,26a3.5,3.5,0,0,0,4.17-.28c0.54-.47.77-1.66,1.61-1.5,1.23,0.23-.13,3-0.5,3.39-1.32,1.43-6.81,1.87-8.07.17a9.29,9.29,0,0,1-1.17-4c-0.31-3.35-.37-6.72-0.56-10-0.74-.74-1.62.16-2.45-0.28a3.26,3.26,0,0,1-.5-3c0.56-.82,2.66,0,3.17-0.83s-0.68-4.68.56-4.73a3.57,3.57,0,0,1,2.18.83" transform="translate(-0.17 -0.26)"/><path class="cls-1" d="M268.95,15.29c-0.35.49-.86,1.63-0.39,2.3,0.29,0.4,1.09.34,2,.38,0.78,0,1.83.19,2.63,0.22,1.19,0,2.84.11,3.46-.55s0.4-2.56,0-3.24a3.25,3.25,0,0,0-3-1.15c-1.87.17-3.77,0.69-4.72,2m2.85-5.21a7.51,7.51,0,0,1,7.63,5c0.33,1.11.75,3.68-.22,4.55a3.47,3.47,0,0,1-1.65.55c-1.8.14-4.62-.22-6.69-0.27-0.69,0-1.79-.18-2.09.11s-0.19,2.44-.11,3.24a4.44,4.44,0,0,0,1.43,2.8,6.85,6.85,0,0,0,5.87.39,6.84,6.84,0,0,0,1.21-.82c0.42-.34.74-1.16,1.37-1.21a0.89,0.89,0,0,1,1,.55c0.18,0.72-.64,1.43-1,1.76-1.6,1.32-4,2.85-7.19,2-2.56-.66-3.94-2.47-4.94-5a14.93,14.93,0,0,1-.22-9.38,9.36,9.36,0,0,1,1.1-2.09,6.71,6.71,0,0,1,4.55-2.25" transform="translate(-0.17 -0.26)"/><path class="cls-1" d="M292.4,13.31c1-.2,1.43-1.12,2.32-1.64a5.69,5.69,0,0,1,5.54-.17A7.69,7.69,0,0,1,303.49,17c0.25,2.54.29,5.52,0.28,8.32,0,1.21.24,2.75-.22,3.79a0.29,0.29,0,0,1-.26.19,3.08,3.08,0,0,1-1.52-.1,0.32,0.32,0,0,1-.18-0.26c-0.15-2.74-.13-5.92-0.3-8.9-0.15-2.63-.8-5.09-2.78-5.87a5.4,5.4,0,0,0-2.38-.23c-2.56.29-3.63,3-3.85,5.72-0.08,1-.1,3.78-0.11,4.07s-0.11,2.55-.11,3.34a2.85,2.85,0,0,1-.28,1.76,1.78,1.78,0,0,1-1.81-.35,11.28,11.28,0,0,1-.17-3.45c0.12-3.36.46-7.57,0.45-10.41,0-1-.44-2.84-0.06-3.79,0.28-.7,1.68-0.62,2-0.23,0.51,0.66-.22,1.89.23,2.72" transform="translate(-0.17 -0.26)"/><path class="cls-1" d="M229.5,11c0.52,0.1,1.1.14,1.74,0.27,0.88,0.18,2.52.36,2.28,1.74-0.19,1.1-1.36.52-2.23,0.38a6.19,6.19,0,0,0-6.79,2.93,8.09,8.09,0,0,0-1,4.13c0,3,2.08,5.76,5.21,5.81a5.3,5.3,0,0,0,1.3-.22c0.77-.23,2.24-1.26,2.88-0.49,0.42,0.51-.07,1.52-0.38,1.9-0.9,1.11-2.68,1.7-4.83,1.52a8.55,8.55,0,0,1-2.93-.87,10.36,10.36,0,0,1-4.62-4.73,9.52,9.52,0,0,1-.27-6.46A10.29,10.29,0,0,1,222,13.57a8.31,8.31,0,0,1,2.5-2.06A10.15,10.15,0,0,1,229.5,11" transform="translate(-0.17 -0.26)"/><path class="cls-1" d="M183.54,28.92a0.23,0.23,0,0,1-.16-0.26c0-2.19,0-6.33,0-6.33l0.09-3.64s0-4.2,0-4.38a0.8,0.8,0,0,0-.95-0.89c-0.24,0-2.63.12-3.4,0.11a3.14,3.14,0,0,1-1.17,0c-0.51-.21-0.53-0.93-0.5-1.78s1.72-.92,2.9-1.06a28.61,28.61,0,0,1,3.4-.39c1.62,0,1.65,1,1.78,2.79,0.31,4.11,0,8.34.06,12.5,0,0.91.6,2.79-.17,3.35a2.39,2.39,0,0,1-1.85,0" transform="translate(-0.17 -0.26)"/></svg>
