<?xml version="1.0" standalone="no"?>
<!DOCTYPE svg PUBLIC "-//W3C//DTD SVG 1.1//EN" "http://www.w3.org/Graphics/SVG/1.1/DTD/svg11.dtd" >
<svg xmlns="http://www.w3.org/2000/svg">
<metadata>
Created by FontPrep 20130207 at Mon Feb 22 19:57:24 2016
 By Jolane Synott
Copyright (c) 2011 by Grilli Type. All rights reserved.
</metadata>
<defs>
<font id="da30c6e928b2aaaaff2ef00b42acad02" horiz-adv-x='1024' >
  <font-face 
    font-family="GTWalsheim-Medium"
    font-weight="600"
    font-stretch="normal"
    units-per-em="2048"
    panose-1="2 0 6 3 4 0 0 2 0 3"
    ascent="1536"
    descent="-512"
    x-height="954"
    cap-height="1434"
    bbox="-307 -670 2486 2017"
    underline-thickness="102"
    underline-position="-102"
    unicode-range="U+0020-FB04"
  />
<missing-glyph horiz-adv-x="1638" 
d="M819 1468q332 0 537 -223t205 -528t-205 -529t-537 -223q-333 0 -537 223q-204 222 -204 528t204 529t537 223zM123 717q0 -139 49 -264q45 -127 138 -227q196 -211 507 -213q312 -1 510 214q92 98 137 226q49 125 49 263q0 286 -186 492q-202 215 -510 215t-508 -215
q-186 -206 -186 -491zM750 188q145 0 329 129q-244 -47 -346 -47q-184 0 -262 76q53 -80 138 -119t141 -39zM344 467q168 -100 239 -123t146 -22q303 0 451 75q2 0 6 4q-53 -117 -219 -202q-117 -63 -217 -64q-209 0 -406 332zM303 424h-33q0 12 4 41q8 29 16 38
q24 29 93 54q2 0 2 2q8 2 17 15t10 22l-11 78l35 4l8 -82q0 -42 -43 -68h-4l-47 -22q-8 -2 -18 -10t-15 -11q-14 -23 -14 -61zM1085 645l-2 -20v-27q4 -41 9 -55l10 -25q10 -18 39 -41q8 -4 24 -13t39 -16q45 -15 49 -38q21 -38 9 -88l-33 8q4 14 4 37q-6 28 -11 32t-10 9
q-4 0 -10 3l-42 21t-54 30q-18 13 -35 40q0 6 -8 22l-6 29q-8 41 -8 63q6 37 6 39zM954 530h-505l366 549l-225 -497h364v-52zM1020 1025q0 35 26 61t62 26t60 -26q26 -26 26 -62t-26 -62t-62 -26t-60 26q-26 26 -26 63zM412 1025q0 35 26 61t61 26t61 -26t26 -62t-26 -62
t-62 -26t-60 26q-26 26 -26 63z" />
    <glyph glyph-name="IJ" unicode="IJ" horiz-adv-x="1640" 
d="M150 0v1434h243v-1434h-243zM1501 1434v-969q0 -217 -125 -359t-342 -141t-342 143t-125 359h236q0 -133 58 -212t171 -79t173 79t61 210v969h235z" />
    <glyph glyph-name="ij" unicode="ij" horiz-adv-x="1216" 
d="M914 1139q-68 0 -116 48t-48 117q0 68 48 116t116 48t117 -48q48 -48 48 -116t-48 -117q-48 -48 -117 -48zM1026 -223q0 -277 -215 -277q-101 0 -158 23v184q51 -12 78 -12q72 0 72 96v1163h223v-1177zM141 1304q0 68 48 116t117 48t117 -48t48 -116t-48 -117
q-48 -48 -117 -48t-117 48t-48 117zM195 0v954h223v-954h-223z" />
    <glyph glyph-name="uniFB00" unicode="ff" horiz-adv-x="1470" 
d="M1240 1227q-46 -20 -46 -129v-144h250v-186h-250v-768h-223v768h-195v186h195v119q0 104 26 178q27 74 62 111t89 57q54 19 87 23t97 4t112 -25v-188q-53 14 -106 14q-52 0 -98 -20zM505 1227q-46 -20 -46 -129v-144h250v-186h-250v-768h-223v768h-195v186h195v119
q0 104 26 178q27 74 62 111t89 57q54 19 87 23q32 4 96 4t113 -25v-188q-53 14 -106 14q-52 0 -98 -20z" />
    <glyph glyph-name="fi" unicode="fi" horiz-adv-x="1347" 
d="M1040 1145q-66 0 -110 46q-44 47 -45 111q0 64 45 110q44 46 110 46t112 -46t46 -112t-46 -110t-112 -45zM930 0v954h223v-954h-223zM505 1227q-46 -20 -46 -129v-144h250v-186h-250v-768h-223v768h-195v186h195v119q0 104 26 178q27 74 62 111t89 57q54 19 87 23
q32 4 96 4t113 -25v-188q-53 14 -106 14q-52 0 -98 -20z" />
    <glyph glyph-name="fl" unicode="fl" horiz-adv-x="1257" 
d="M885 0v1434h223v-1434h-223zM505 1227q-46 -20 -46 -129v-144h250v-186h-250v-768h-223v768h-195v186h195v119q0 104 26 178q27 74 62 111t89 57q54 19 87 23q32 4 96 4t113 -25v-188q-53 14 -106 14q-52 0 -98 -20z" />
    <glyph glyph-name="uniFB03" unicode="ffi" horiz-adv-x="2082" 
d="M1612 1304q0 68 48 116t117 48t117 -48t48 -116t-48 -117q-48 -48 -118 -48q-68 0 -116 48t-48 117zM1665 0v954h223v-954h-223zM1240 1227q-46 -20 -46 -129v-144h250v-186h-250v-768h-223v768h-195v186h195v119q0 104 26 178q27 74 62 111t89 57q54 19 87 23t97 4
t112 -25v-188q-53 14 -106 14q-52 0 -98 -20zM505 1227q-46 -20 -46 -129v-144h250v-186h-250v-768h-223v768h-195v186h195v119q0 104 26 178q27 74 62 111t89 57q54 19 87 23q32 4 96 4t113 -25v-188q-53 14 -106 14q-52 0 -98 -20z" />
    <glyph glyph-name="uniFB04" unicode="ffl" horiz-adv-x="1984" 
d="M1620 0v1434h223v-1434h-223zM1240 1227q-46 -20 -46 -129v-144h250v-186h-250v-768h-223v768h-195v186h195v119q0 104 26 178q27 74 62 111t89 57q54 19 87 23t97 4t112 -25v-188q-53 14 -106 14q-52 0 -98 -20zM505 1227q-46 -20 -46 -129v-144h250v-186h-250v-768
h-223v768h-195v186h195v119q0 104 26 178q27 74 62 111t89 57q54 19 87 23q32 4 96 4t113 -25v-188q-53 14 -106 14q-52 0 -98 -20z" />
    <glyph glyph-name=".notdef" horiz-adv-x="1638" 
d="M819 1468q332 0 537 -223t205 -528t-205 -529t-537 -223q-333 0 -537 223q-204 222 -204 528t204 529t537 223zM123 717q0 -139 49 -264q45 -127 138 -227q196 -211 507 -213q312 -1 510 214q92 98 137 226q49 125 49 263q0 286 -186 492q-202 215 -510 215t-508 -215
q-186 -206 -186 -491zM750 188q145 0 329 129q-244 -47 -346 -47q-184 0 -262 76q53 -80 138 -119t141 -39zM344 467q168 -100 239 -123t146 -22q303 0 451 75q2 0 6 4q-53 -117 -219 -202q-117 -63 -217 -64q-209 0 -406 332zM303 424h-33q0 12 4 41q8 29 16 38
q24 29 93 54q2 0 2 2q8 2 17 15t10 22l-11 78l35 4l8 -82q0 -42 -43 -68h-4l-47 -22q-8 -2 -18 -10t-15 -11q-14 -23 -14 -61zM1085 645l-2 -20v-27q4 -41 9 -55l10 -25q10 -18 39 -41q8 -4 24 -13t39 -16q45 -15 49 -38q21 -38 9 -88l-33 8q4 14 4 37q-6 28 -11 32t-10 9
q-4 0 -10 3l-42 21t-54 30q-18 13 -35 40q0 6 -8 22l-6 29q-8 41 -8 63q6 37 6 39zM954 530h-505l366 549l-225 -497h364v-52zM1020 1025q0 35 26 61t62 26t60 -26q26 -26 26 -62t-26 -62t-62 -26t-60 26q-26 26 -26 63zM412 1025q0 35 26 61t61 26t61 -26t26 -62t-26 -62
t-62 -26t-60 26q-26 26 -26 63z" />
    <glyph glyph-name=".null" horiz-adv-x="0" 
 />
    <glyph glyph-name="nonmarkingreturn" horiz-adv-x="681" 
 />
    <glyph glyph-name="space" unicode=" " horiz-adv-x="512" 
 />
    <glyph glyph-name="exclam" unicode="!" horiz-adv-x="632" 
d="M143 139q1 72 51 122t122 50t122 -50q51 -50 51 -122t-51 -123t-123 -51t-122 51t-50 123zM195 457v977h243v-977h-243z" />
    <glyph glyph-name="quotedbl" unicode="&#x22;" horiz-adv-x="796" 
d="M463 1468h211v-204l-53 -310h-105l-53 310v204zM123 1468h211v-204l-53 -310h-105l-53 310v204z" />
    <glyph glyph-name="numbersign" unicode="#" horiz-adv-x="1124" 
d="M483 844l-34 -254h208l35 254h-209zM59 418v172h207l35 254h-180v172h205l57 418h182l-57 -418h209l57 418h182l-57 -418h168v-172h-193l-34 -254h166v-172h-191l-59 -418h-181l58 418h-209l-59 -418h-181l58 418h-183z" />
    <glyph glyph-name="dollar" unicode="$" horiz-adv-x="1314" 
d="M766 1679v-221q154 -34 252 -152t98 -286h-235q-1 104 -61 171t-153 67t-155 -49q-62 -48 -61 -131q0 -83 56 -131t140 -78q241 -86 301 -128q114 -73 141 -119q62 -101 62 -202q0 -184 -108 -301t-277 -146v-219h-209v221q-170 31 -281 162t-110 332h235q0 -137 77 -215
q78 -78 190 -78t180 60t68 161q0 100 -80 151q-60 38 -153 71q-301 105 -384 204q-84 100 -84 249q0 148 96 250t246 134v223h209z" />
    <glyph glyph-name="percent" unicode="%" horiz-adv-x="1945" 
d="M420 -2l895 1542l178 -102l-895 -1542zM1597 264v260q0 53 -33 91q-34 38 -87 38t-86 -38t-33 -91v-260q0 -53 33 -91t86 -38t87 38q33 38 33 91zM1178 264v260q0 117 82 199t217 82t218 -82t83 -199v-260q0 -116 -83 -198t-218 -82t-217 82t-82 198zM586 909v260
q0 53 -34 91t-87 38t-86 -38t-33 -91v-260q0 -53 33 -91t86 -38t87 38t34 91zM166 909v260q0 117 82 199t217 82t218 -82t83 -199v-260q0 -117 -83 -199t-218 -81q-135 -1 -217 81t-82 199z" />
    <glyph glyph-name="ampersand" unicode="&#x26;" horiz-adv-x="1226" 
d="M692 477v209h492v-209h-109q-2 -229 -148 -365t-344 -136t-345 123q-147 124 -148 331q0 114 60 186t169 134q-98 54 -146 124t-48 191q0 174 132 284q131 109 323 109t319 -125t127 -323h-235q0 238 -226 237q-92 0 -148 -47q-57 -47 -57 -140q0 -92 52 -148t188 -56
v-209q-274 0 -274 -244q0 -89 70 -153t180 -64q108 0 185 80t79 211h-148z" />
    <glyph glyph-name="quotesingle" unicode="'" horiz-adv-x="456" 
d="M123 1468h211v-204l-53 -310h-105l-53 310v204z" />
    <glyph glyph-name="parenleft" unicode="(" horiz-adv-x="798" 
d="M717 1626v-211q-119 0 -193 -85t-73 -206v-1124q-1 -121 73 -206t193 -85v-211q-221 0 -361 146t-141 356v1124q0 209 140 356q141 146 362 146z" />
    <glyph glyph-name="parenright" unicode=")" horiz-adv-x="798" 
d="M82 1415v211q221 0 361 -146t141 -356v-1124q0 -209 -140 -355t-362 -147v211q118 0 192 85t74 206v1124q0 121 -74 206t-192 85z" />
    <glyph glyph-name="asterisk" unicode="*" horiz-adv-x="946" 
d="M303 725l-117 84l179 235l-283 89l45 135l279 -94l-3 294h144l-6 -294l278 94l45 -135l-282 -89l178 -235l-117 -84l-170 242z" />
    <glyph glyph-name="plus" unicode="+" 
d="M705 170h-224v313h-301v199h301v315h224v-315h303v-199h-303v-313z" />
    <glyph glyph-name="comma" unicode="," horiz-adv-x="595" 
d="M123 152q0 70 48 118t123 47q75 0 127 -58t52 -153q0 -182 -87 -262t-255 -82v105q94 0 150 41q43 37 49 92q-12 -12 -43 -12q-74 0 -119 47t-45 117z" />
    <glyph glyph-name="hyphen" unicode="-" horiz-adv-x="602" 
d="M541 682v-199h-480v199h480z" />
    <glyph glyph-name="period" unicode="." horiz-adv-x="575" 
d="M123 153q0 69 48 117t117 47q68 0 116 -48q48 -49 48 -117t-48 -116t-116 -48t-117 48q-48 48 -48 117z" />
    <glyph glyph-name="slash" unicode="/" horiz-adv-x="927" 
d="M-2 -53l745 1732l205 -88l-745 -1732z" />
    <glyph glyph-name="zero" unicode="0" 
d="M862 477v479q0 121 -75 206t-195 85t-193 -85q-74 -85 -73 -206v-479q0 -121 74 -206t193 -85q121 0 195 85t74 206zM90 477v479q0 210 140 356t364 146t363 -146q140 -146 141 -356v-479q0 -209 -140 -355t-364 -146t-364 146t-140 355z" />
    <glyph glyph-name="one" unicode="1" 
d="M250 1010v186q188 0 252 52q63 52 63 186h223v-1434h-243v1010h-295z" />
    <glyph glyph-name="two" unicode="2" 
d="M166 0q0 328 113 483q59 82 115 129t111 83t112 71q57 34 94 62t50 46t41 58t29 129q0 90 -56 138t-152 48q-97 0 -159 -59t-63 -178h-235q0 208 135 328t328 120t315 -112t123 -318q0 -153 -104 -257t-191 -161q-86 -57 -90 -59q-156 -111 -201 -174t-45 -166h623v-211
h-893z" />
    <glyph glyph-name="three" unicode="3" 
d="M90 479h236q0 -135 78 -214t191 -79t179 66t66 158q0 238 -258 237h-97v209h99q221 0 221 209q0 88 -55 135t-148 47q-227 0 -227 -237h-236q0 200 125 324q124 124 318 124t326 -110t132 -283q0 -231 -194 -315q229 -90 229 -338q0 -190 -141 -314t-346 -123
q-206 1 -352 137t-146 367z" />
    <glyph glyph-name="four" unicode="4" 
d="M659 0v430h-522v1004h236v-793h286v430h236v-430h197v-211h-197v-430h-236z" />
    <glyph glyph-name="five" unicode="5" 
d="M115 610v824h870v-211h-659v-398q41 76 131 114t176 38q221 0 343 -143q122 -142 122 -354t-140 -358t-364 -146t-364 146t-140 355h236q0 -121 74 -206t193 -85q121 0 195 84t74 207t-75 207t-195 84q-164 0 -242 -158h-235z" />
    <glyph glyph-name="six" unicode="6" 
d="M593 186q121 0 195 85t74 206t-75 206t-195 85t-193 -85t-73 -206t74 -206t193 -85zM594 -25q-224 1 -364 147t-140 355q0 152 90 297l412 660h270l-301 -457q10 2 31 2q225 0 365 -146q141 -145 141 -355t-140 -356t-364 -147z" />
    <glyph glyph-name="seven" unicode="7" 
d="M180 1434h914l-611 -1434h-250l529 1223h-582v211z" />
    <glyph glyph-name="eight" unicode="8" 
d="M317 414q-1 -96 69 -162t186 -66t186 67t69 161t-69 162t-186 67t-186 -67t-69 -162zM572 831q100 -1 160 61t61 148q-1 86 -61 146t-160 61q-100 0 -159 -60q-61 -59 -61 -147t60 -148t160 -61zM572 -25q-222 0 -356 127t-134 312q0 113 53 208t156 132
q-174 78 -174 297q0 171 124 289q123 118 331 118t332 -119t124 -288q0 -219 -174 -297q102 -37 156 -133t53 -207q0 -180 -134 -310q-135 -129 -357 -129z" />
    <glyph glyph-name="nine" unicode="9" 
d="M595 666q119 0 193 85t74 205t-74 206q-74 85 -193 85q-120 0 -195 -85q-74 -85 -74 -206q0 -122 74 -206t195 -84zM594 1458q223 0 363 -146t141 -356q0 -145 -92 -297l-410 -659h-270l301 455h-31q-225 0 -366 146q-140 146 -140 355t140 356q141 146 364 146z" />
    <glyph glyph-name="colon" unicode=":" horiz-adv-x="575" 
d="M123 153q0 69 48 117t117 47q68 0 116 -48q48 -49 48 -117t-48 -116t-116 -48t-117 48q-48 48 -48 117zM288 991q68 0 116 -48t48 -117q0 -68 -48 -116t-116 -48t-117 48q-48 48 -48 116q0 69 48 117t117 48z" />
    <glyph glyph-name="semicolon" unicode=";" horiz-adv-x="595" 
d="M288 991q68 0 116 -48t48 -117q0 -68 -48 -116t-116 -48t-117 48q-48 48 -48 116q0 69 48 117t117 48zM123 152q0 70 48 118t123 47q75 0 127 -58t52 -153q0 -182 -87 -262t-255 -82v105q94 0 150 41q43 37 49 92q-12 -12 -43 -12q-74 0 -119 47t-45 117z" />
    <glyph glyph-name="less" unicode="&#x3c;" 
d="M1114 141l-1038 361v157l1038 361v-211l-708 -227l708 -230v-211z" />
    <glyph glyph-name="equal" unicode="=" 
d="M1008 322h-828v198h828v-198zM1008 641h-828v199h828v-199z" />
    <glyph glyph-name="greater" unicode="&#x3e;" 
d="M1112 502l-1038 -361v211l708 230l-708 227v211l1038 -361v-157z" />
    <glyph glyph-name="question" unicode="?" horiz-adv-x="1046" 
d="M297 139q0 72 50 122t122 50t123 -50t51 -122t-51 -123t-123 -51t-122 51t-50 123zM503 1247q-95 0 -157 -60t-61 -177h-236q0 208 131 328q130 120 320 120t320 -110t130 -286q0 -175 -147 -310q-25 -24 -99 -84t-98 -110q-25 -50 -24 -173h-226q2 147 34 235t126 158
q45 35 68 53q129 101 130 224q0 94 -58 143t-153 49z" />
    <glyph glyph-name="at" unicode="@" horiz-adv-x="1697" 
d="M829 2q-179 0 -295 123t-116 297t117 298t294 124q72 0 143 -35t105 -94v108h187v-534q0 -184 112 -185q143 0 144 435q0 251 -190 401t-496 150q-252 0 -430 -184t-177 -484q0 -172 76 -318t240 -244q164 -97 389 -98q313 0 549 132l90 -146q-270 -154 -639 -154
q-215 0 -388 70t-281 188q-222 243 -222 570q0 375 231 605t562 230q394 -1 634 -195t240 -523q0 -602 -367 -602q-190 -1 -264 194q-37 -57 -107 -93t-141 -36zM840 170q104 0 171 73t66 179q0 106 -66 180q-67 74 -171 74t-169 -74t-65 -180t65 -179t169 -73z" />
    <glyph glyph-name="A" unicode="A" horiz-adv-x="1169" 
d="M782 393l-196 649l-199 -649h395zM1163 0h-248l-61 182h-539l-61 -182h-248l496 1434h166z" />
    <glyph glyph-name="B" unicode="B" horiz-adv-x="1224" 
d="M385 831h254q127 1 176 61t49 135t-49 135t-176 61h-254v-392zM653 621h-268v-410h266q127 0 176 63q49 64 49 140t-52 142t-171 65zM150 0v1434h489q139 0 237 -41t142 -109q80 -121 81 -256t-68 -209t-159 -94q88 -23 164 -97t76 -212q0 -197 -128 -314
q-48 -42 -134 -72t-199 -30h-501z" />
    <glyph glyph-name="C" unicode="C" horiz-adv-x="1587" 
d="M831 -35q-341 0 -547 219q-206 220 -206 530t202 532t517 222t497 -156t217 -401h-247q-27 152 -141 249t-285 97q-238 -1 -378 -159t-140 -384t144 -382q146 -156 398 -156q127 0 242 82q114 82 149 203h258q-49 -215 -235 -355t-445 -141z" />
    <glyph glyph-name="D" unicode="D" horiz-adv-x="1435" 
d="M614 1223h-229v-1012h229q229 0 366 150q136 151 136 356t-136 355t-366 151zM150 1434h464q172 0 316 -60q267 -113 378 -392q50 -128 50 -265q0 -283 -193 -495q-92 -102 -235 -162t-316 -60h-464v1434z" />
    <glyph glyph-name="E" unicode="E" horiz-adv-x="1116" 
d="M977 1223h-592v-406h592v-211h-592v-395h592v-211h-827v1434h827v-211z" />
    <glyph glyph-name="F" unicode="F" horiz-adv-x="1101" 
d="M977 1223h-592v-455h592v-211h-592v-557h-235v1434h827v-211z" />
    <glyph glyph-name="G" unicode="G" horiz-adv-x="1716" 
d="M989 508v211h682v-211h-158q-49 -250 -229 -396t-469 -147q-170 1 -312 63q-141 62 -233 168q-192 221 -192 521q0 197 88 367t259 277t405 107t406 -135q173 -135 189 -329h-237q-18 110 -122 182t-251 71q-221 1 -358 -159t-137 -383t136 -381q138 -158 390 -158
q174 0 284 95t134 237h-275z" />
    <glyph glyph-name="H" unicode="H" horiz-adv-x="1361" 
d="M977 0v606h-592v-606h-235v1434h235v-617h592v617h235v-1434h-235z" />
    <glyph glyph-name="I" unicode="I" horiz-adv-x="542" 
d="M150 0v1434h243v-1434h-243z" />
    <glyph glyph-name="J" unicode="J" horiz-adv-x="1097" 
d="M958 1434v-969q0 -217 -124 -359q-124 -141 -342 -141q-218 1 -342 143t-125 359h235q0 -133 58 -212t171 -79t174 79q60 79 60 210v969h235z" />
    <glyph glyph-name="K" unicode="K" horiz-adv-x="1243" 
d="M385 0h-235v1434h235v-631l533 631h294l-606 -717l606 -717h-294l-533 629v-629z" />
    <glyph glyph-name="L" unicode="L" horiz-adv-x="878" 
d="M385 211h442v-211h-677v1434h235v-1223z" />
    <glyph glyph-name="M" unicode="M" horiz-adv-x="1665" 
d="M1516 1434v-1434h-236v887l-358 -887h-179l-358 887v-887h-235v1434h225l459 -1067l456 1067h226z" />
    <glyph glyph-name="N" unicode="N" horiz-adv-x="1359" 
d="M975 1434h235v-1434h-258l-567 1020v-1020h-235v1434h258l567 -1020v1020z" />
    <glyph glyph-name="O" unicode="O" horiz-adv-x="1638" 
d="M819 176q221 0 358 161q136 161 136 380t-136 380q-135 161 -357 161t-358 -162q-136 -160 -136 -379t136 -380t357 -161zM819 -35q-333 0 -537 223q-204 222 -204 528t205 529t537 223t536 -223q205 -223 205 -528t-205 -529t-537 -223z" />
    <glyph glyph-name="P" unicode="P" horiz-adv-x="1220" 
d="M664 641q122 0 196 85t74 206t-75 206t-195 85h-279v-582h279zM150 0v1434h514q225 0 365 -146t140 -356q0 -209 -140 -355t-365 -147h-279v-430h-235z" />
    <glyph glyph-name="Q" unicode="Q" horiz-adv-x="1638" 
d="M819 176q221 0 358 161q136 161 136 380t-136 380q-135 161 -357 161t-358 -162q-136 -160 -136 -379t136 -380t357 -161zM1561 717q0 -239 -131 -437t-357 -274l123 -172l-207 -104l-172 235q-331 2 -535 224q-204 221 -204 527t205 529t537 223t536 -223
q205 -223 205 -528z" />
    <glyph glyph-name="R" unicode="R" horiz-adv-x="1247" 
d="M664 641q122 0 196 85t74 206t-75 206t-195 85h-279v-582h279zM150 0v1434h514q225 0 365 -146t140 -356q-1 -156 -81 -282t-222 -183l285 -467h-268l-262 430h-236v-430h-235z" />
    <glyph glyph-name="S" unicode="S" horiz-adv-x="1165" 
d="M86 469h236q0 -137 76 -215t190 -78q112 0 180 60t68 157q0 98 -79 152q-53 36 -150 71q-308 112 -390 209q-82 98 -82 261t130 273q130 109 321 109q190 0 320 -126t130 -322h-235q-1 106 -59 172t-153 66t-157 -49q-62 -48 -61 -131q0 -83 56 -131q57 -48 151 -82
t141 -52t127 -61t120 -84t72 -107t33 -145q0 -213 -140 -332t-348 -119t-353 136q-144 137 -144 368z" />
    <glyph glyph-name="T" unicode="T" horiz-adv-x="987" 
d="M375 0v1223h-355v211h947v-211h-357v-1223h-235z" />
    <glyph glyph-name="U" unicode="U" horiz-adv-x="1310" 
d="M139 479v955h236v-955q0 -127 78 -215q77 -88 201 -88t203 88t79 215v955h235v-955q0 -215 -143 -365q-142 -150 -372 -149q-230 -1 -374 149t-143 365z" />
    <glyph glyph-name="V" unicode="V" horiz-adv-x="1165" 
d="M1161 1434l-495 -1434h-166l-496 1434h248l332 -1043l329 1043h248z" />
    <glyph glyph-name="W" unicode="W" horiz-adv-x="2013" 
d="M1337 0l-329 1022l-332 -1022h-170l-496 1434h248l330 -1022l332 1022h174l331 -1022l330 1022h248l-496 -1434h-170z" />
    <glyph glyph-name="X" unicode="X" horiz-adv-x="1150" 
d="M575 920l293 514h267l-426 -717l426 -717h-267l-293 512l-292 -512h-267l426 717l-426 717h267z" />
    <glyph glyph-name="Y" unicode="Y" horiz-adv-x="1232" 
d="M1243 1434l-711 -1434h-258l285 573l-536 861h272l383 -617l307 617h258z" />
    <glyph glyph-name="Z" unicode="Z" horiz-adv-x="1181" 
d="M70 1223v211h1091l-743 -1223h739v-211h-1130l743 1223h-700z" />
    <glyph glyph-name="bracketleft" unicode="[" horiz-adv-x="727" 
d="M563 -479h-413v2107h413v-198h-190v-1713h190v-196z" />
    <glyph glyph-name="backslash" unicode="\" horiz-adv-x="927" 
d="M203 1679l745 -1732l-205 -88l-745 1732z" />
    <glyph glyph-name="bracketright" unicode="]" horiz-adv-x="727" 
d="M578 -479h-414v196h190v1710h-190v199h414v-2105z" />
    <glyph glyph-name="asciicircum" unicode="^" horiz-adv-x="1327" 
d="M1204 662h-252l-290 591l-295 -591h-244l459 874h155z" />
    <glyph glyph-name="underscore" unicode="_" horiz-adv-x="1146" 
d="M1085 -256h-1024v154h1024v-154z" />
    <glyph glyph-name="grave" unicode="`" horiz-adv-x="1173" 
d="M754 1055l-510 280l106 174l510 -280z" />
    <glyph glyph-name="a" unicode="a" horiz-adv-x="1234" 
d="M581 174q125 0 203 88t78 215t-79 215t-203 88t-201 -88q-78 -88 -78 -215t78 -215t202 -88zM862 954h223v-954h-223v129q-43 -70 -126 -112t-169 -42q-213 -1 -351 147t-138 355t138 354t351 148q86 0 169 -42t126 -112v129z" />
    <glyph glyph-name="b" unicode="b" horiz-adv-x="1239" 
d="M373 477q1 -127 79 -215t202 -88t202 88t78 215t-78 215t-202 88t-202 -88t-79 -215zM373 0h-223v1434h223v-609q43 70 126 112t169 42q213 1 351 -147t138 -355t-138 -354t-351 -148q-86 0 -169 42t-126 112v-129z" />
    <glyph glyph-name="c" unicode="c" horiz-adv-x="1093" 
d="M561 780q-123 0 -189 -87t-67 -218q0 -131 67 -216t203 -85q94 0 143 38q48 38 70 116h224q-25 -158 -140 -255q-116 -97 -326 -97t-337 146q-127 148 -127 355t127 354t346 147t331 -108t124 -264h-224q-20 174 -225 174z" />
    <glyph glyph-name="d" unicode="d" horiz-adv-x="1234" 
d="M581 174q125 0 203 88t78 215t-79 215t-203 88t-201 -88q-78 -88 -78 -215t78 -215t202 -88zM862 0v129q-43 -70 -126 -112t-169 -42q-213 -1 -351 147t-138 355t138 354t351 148q86 0 169 -42t126 -112v609h223v-1434h-223z" />
    <glyph glyph-name="e" unicode="e" horiz-adv-x="1087" 
d="M547 793q-102 1 -169 -57t-67 -161h467q0 98 -64 158q-65 60 -167 60zM82 483q0 215 125 355t329 141q204 0 331 -124q128 -124 128 -306q0 -78 -10 -139h-676q3 -113 63 -181t187 -67q150 0 203 125h225q-25 -131 -139 -221t-289 -91q-229 1 -353 147t-124 361z" />
    <glyph glyph-name="f" unicode="f" horiz-adv-x="735" 
d="M505 1227q-46 -20 -46 -129v-144h250v-186h-250v-768h-223v768h-195v186h195v119q0 104 26 178q27 74 62 111t89 57q54 19 87 23q32 4 96 4t113 -25v-188q-53 14 -106 14q-52 0 -98 -20z" />
    <glyph glyph-name="g" unicode="g" horiz-adv-x="1228" 
d="M1085 954v-1001q0 -455 -510 -455q-223 0 -347 115t-134 278h225q10 -84 76 -139t180 -55q287 0 287 256v176q-43 -70 -126 -112t-169 -42q-213 -1 -351 147t-138 355t138 354t351 148q86 0 169 -42t126 -112v129h223zM862 477q0 127 -78 215t-203 88q-124 0 -202 -88
t-78 -215t78 -215t202 -88q125 0 203 88t78 215z" />
    <glyph glyph-name="h" unicode="h" horiz-adv-x="1165" 
d="M150 0v1434h223v-613q92 158 302 158t296 -129q61 -94 61 -283v-567h-223v494q0 289 -207 288q-113 0 -171 -80t-58 -208v-494h-223z" />
    <glyph glyph-name="i" unicode="i" horiz-adv-x="612" 
d="M141 1304q0 68 48 116t117 48t117 -48t48 -116t-48 -117q-48 -48 -117 -48t-117 48t-48 117zM195 0v954h223v-954h-223z" />
    <glyph glyph-name="j" unicode="j" horiz-adv-x="604" 
d="M137 1304q0 68 48 116t117 48t117 -48t48 -116t-48 -117q-48 -48 -117 -48t-117 48t-48 117zM414 -223q0 -277 -216 -277q-100 0 -157 23v184q51 -12 78 -12q72 0 71 96v1163h224v-1177z" />
    <glyph glyph-name="k" unicode="k" horiz-adv-x="1021" 
d="M373 0h-223v1434h223v-902l350 422h278l-397 -477l397 -477h-278l-350 420v-420z" />
    <glyph glyph-name="l" unicode="l" horiz-adv-x="522" 
d="M150 0v1434h223v-1434h-223z" />
    <glyph glyph-name="m" unicode="m" horiz-adv-x="1712" 
d="M1577 0h-223v535q0 248 -178 247q-201 0 -201 -297v-485h-223v537q0 246 -174 245q-205 0 -205 -297v-485h-223v954h223v-133q33 70 104 114q72 44 162 44q227 0 301 -170q35 74 115 122t178 48q344 0 344 -375v-604z" />
    <glyph glyph-name="n" unicode="n" horiz-adv-x="1165" 
d="M150 0v954h223v-133q92 158 302 158t296 -129q61 -94 61 -283v-567h-223v494q0 289 -207 288q-113 0 -171 -80t-58 -208v-494h-223z" />
    <glyph glyph-name="o" unicode="o" horiz-adv-x="1163" 
d="M581 174q125 0 203 88t78 215t-79 215t-203 88t-201 -88q-78 -88 -78 -215t78 -215t202 -88zM1085 478q0 -210 -140 -356t-363 -147q-224 1 -364 147t-140 355t140 355t364 147q224 0 363 -146q140 -145 140 -355z" />
    <glyph glyph-name="p" unicode="p" horiz-adv-x="1239" 
d="M654 780q-124 0 -202 -88t-79 -215q0 -127 79 -215q78 -88 202 -88t202 88t78 215t-78 215t-202 88zM373 954v-129q43 70 126 112t169 42q213 1 351 -147t138 -355t-138 -354t-351 -148q-86 0 -169 42t-126 112v-608h-223v1433h223z" />
    <glyph glyph-name="q" unicode="q" horiz-adv-x="1239" 
d="M866 477q0 127 -78 215t-203 88q-124 0 -202 -88t-78 -215t78 -215t202 -88q125 0 203 88t78 215zM866 954h224v-1433h-224v608q-43 -70 -126 -112t-169 -42q-213 -1 -351 147t-138 355t138 354t351 148q86 0 169 -42t126 -112v129z" />
    <glyph glyph-name="r" unicode="r" horiz-adv-x="774" 
d="M668 758q-295 0 -295 -346v-412h-223v954h223v-153q33 68 117 117q84 48 158 48q73 0 108 -14v-204q-43 10 -88 10z" />
    <glyph glyph-name="s" unicode="s" horiz-adv-x="929" 
d="M464 -25q-164 1 -277 93q-114 92 -113 254h217q0 -170 184 -170q156 0 156 110q0 62 -75 92l-55 22q-26 9 -76 26q-199 68 -258 128q-61 60 -61 180t102 195q102 74 257 74q154 0 259 -92t105 -232h-217q0 147 -153 148q-59 0 -99 -28t-38 -80q0 -52 66 -83
q30 -13 137 -52t149 -58q41 -20 86 -52q82 -58 83 -192q1 -133 -107 -208t-272 -75z" />
    <glyph glyph-name="t" unicode="t" horiz-adv-x="718" 
d="M532 -12q-76 0 -116 8q-41 8 -97 38q-118 64 -116 290v444h-162v186h162v289h223v-289h219v-186h-219v-393q0 -115 33 -151q52 -57 219 -27v-197q-70 -12 -146 -12z" />
    <glyph glyph-name="u" unicode="u" horiz-adv-x="1165" 
d="M793 954h223v-954h-223v133q-93 -158 -303 -158t-295 129q-61 94 -62 283v567h223v-493q0 -289 207 -289q113 0 171 80t59 209v493z" />
    <glyph glyph-name="v" unicode="v" horiz-adv-x="1011" 
d="M2 954h240l262 -635l266 635h240l-432 -954h-150z" />
    <glyph glyph-name="w" unicode="w" horiz-adv-x="1542" 
d="M1022 0l-250 713l-252 -713h-149l-371 954h240l206 -604l216 604h219l215 -604l207 604h239l-371 -954h-149z" />
    <glyph glyph-name="x" unicode="x" horiz-adv-x="913" 
d="M586 481l311 -481h-258l-182 307l-183 -307h-258l312 481l-305 473h258l176 -299l176 299h258z" />
    <glyph glyph-name="y" unicode="y" horiz-adv-x="1183" 
d="M549 -502q-180 0 -297 116t-119 277h217q2 -86 60 -140t174 -54q117 0 175 60t58 198v178q-92 -158 -302 -158t-296 129q-61 94 -61 283v567h223v-493q0 -289 207 -289q113 0 171 80t58 209v493h223v-999q0 -237 -124 -347t-367 -110z" />
    <glyph glyph-name="z" unicode="z" horiz-adv-x="897" 
d="M57 954h811l-450 -755h450v-199h-823l453 756h-441v198z" />
    <glyph glyph-name="braceleft" unicode="{" horiz-adv-x="942" 
d="M633 1626h145v-168h-90q-111 0 -110 -153v-521q0 -115 -67 -171t-136 -62q203 -35 203 -254v-455q0 -154 110 -153h90v-168h-145q-111 0 -196 75t-85 209v461q0 94 -62 142t-126 49v182q63 0 126 45q62 45 62 131v526q0 135 85 210t196 75z" />
    <glyph glyph-name="bar" unicode="|" horiz-adv-x="522" 
d="M373 -479h-223v2105h223v-2105z" />
    <glyph glyph-name="braceright" unicode="}" horiz-adv-x="942" 
d="M164 1626h145q111 0 196 -75t85 -210v-526q0 -86 62 -131t126 -45v-182q-64 0 -126 -48t-62 -143v-461q0 -135 -85 -209t-196 -75h-145v168h90q111 0 111 153v455q0 219 202 254q-71 6 -137 62t-65 171v521q0 154 -111 153h-90v168z" />
    <glyph glyph-name="asciitilde" unicode="~" horiz-adv-x="1079" 
d="M309 707q84 0 242 -66q14 -6 47 -19t81 -34t93 -21q109 0 225 113v-191q-90 -121 -227 -120q-90 -1 -223 69t-241 70t-224 -113v191q90 121 227 121z" />
    <glyph glyph-name="nonbreakingspace" unicode="&#xa0;" horiz-adv-x="512" 
 />
    <glyph glyph-name="exclamdown" unicode="&#xa1;" horiz-adv-x="632" 
d="M487 1291q0 -69 -49 -117t-118 -50q-70 0 -118 49t-48 118t49 118t117 49t118 -49q49 -49 49 -118zM199 0v967h243v-967h-243z" />
    <glyph glyph-name="cent" unicode="&#xa2;" 
d="M598 1018q-124 0 -190 -87t-66 -218t67 -216t203 -85q94 0 143 38q48 38 70 115h224q-21 -135 -109 -227t-240 -117v-219h-208v221q-176 35 -275 173q-98 138 -98 318t98 319q98 138 275 173v224h208v-222q164 -27 250 -129t97 -235h-224q-20 174 -225 174z" />
    <glyph glyph-name="sterling" unicode="&#xa3;" 
d="M1126 1010h-235q0 238 -225 237q-92 0 -148 -47t-57 -135l2 -209h293v-211h-293q-8 -389 -62 -434h611v-211h-877v174q80 70 92 471h-139v211h139l-2 209q0 174 132 284q132 109 324 109q193 0 319 -125t126 -323z" />
    <glyph glyph-name="currency" unicode="&#xa4;" horiz-adv-x="1472" 
d="M457 758q-1 -127 77 -215t202 -88t203 88t79 215t-79 215t-203 88t-202 -88t-77 -215zM737 256q-162 0 -282 80l-133 -131l-142 139l133 133q-80 127 -80 281t80 278l-131 133l140 142l131 -133q125 82 283 82t284 -82l131 131l141 -140l-133 -133q82 -124 82 -280
t-82 -279l131 -131l-139 -141l-131 131q-121 -80 -283 -80z" />
    <glyph glyph-name="yen" unicode="&#xa5;" 
d="M1012 621v-187h-312v-110h312v-187h-312v-137h-211v137h-305v187h305v110h-305v187h260l-505 813h272l385 -617l381 617h272l-504 -813h267z" />
    <glyph glyph-name="brokenbar" unicode="&#xa6;" horiz-adv-x="522" 
d="M150 461h223v-940h-223v940zM373 684h-223v942h223v-942z" />
    <glyph glyph-name="section" unicode="&#xa7;" 
d="M870 523q0 87 -92 145q-70 41 -254 96q-90 -8 -149 -62t-59 -144q0 -89 114 -155q72 -39 229 -86q91 7 151 63t60 143zM78 539q0 123 60 207t175 118q-150 96 -149 287q0 162 134 263q134 102 324 102t320 -117q131 -117 131 -299h-237q0 98 -62 160t-156 61
q-94 0 -155 -44t-62 -126q0 -127 211 -195q266 -87 335 -139q36 -27 80 -67q81 -75 81 -200q0 -124 -74 -218t-162 -113q150 -97 150 -273t-134 -277t-324 -101t-320 117t-131 299h237q0 -98 62 -160t155 -62q94 0 156 44q61 44 61 126q0 127 -211 195q-264 87 -334 139
q-116 87 -138 149q-23 62 -23 124z" />
    <glyph glyph-name="dieresis" unicode="&#xa8;" horiz-adv-x="1218" 
d="M356 1145q-66 0 -110 46q-44 47 -45 111q0 64 45 110q44 46 110 46t112 -46t46 -112t-46 -110t-112 -45zM670 1302q0 64 45 110t111 46t111 -46q46 -46 46 -112t-46 -110q-47 -44 -111 -45q-64 0 -110 46q-46 47 -46 111z" />
    <glyph glyph-name="copyright" unicode="&#xa9;" horiz-adv-x="1646" 
d="M823 135q240 0 387 172t148 410q0 237 -148 409t-387 172q-240 0 -387 -172t-147 -410t147 -409q147 -172 387 -172zM844 252q-213 0 -340 136t-127 328t124 328q124 138 319 138t307 -96t135 -250h-170q-20 88 -88 143t-186 55t-196 -93t-77 -224q0 -131 81 -224
t218 -94q86 0 151 44t92 114h175q-31 -131 -146 -218t-272 -87zM823 -35q-333 0 -537 223q-204 222 -204 528t205 529t537 223t536 -223q205 -223 205 -528t-205 -529t-537 -223z" />
    <glyph glyph-name="ordfeminine" unicode="&#xaa;" horiz-adv-x="1234" 
d="M581 174q125 0 203 88t78 215t-79 215t-203 88t-201 -88q-78 -88 -78 -215t78 -215t202 -88zM862 954h223v-954h-223v129q-43 -70 -126 -112t-169 -42q-213 -1 -351 147t-138 355t138 354t351 148q86 0 169 -42t126 -112v129z" />
    <glyph glyph-name="guillemotleft" unicode="&#xab;" horiz-adv-x="966" 
d="M483 410v-215l-401 335v132l401 335v-215l-223 -186zM885 410v-215l-402 335v132l402 335v-215l-223 -186z" />
    <glyph glyph-name="logicalnot" unicode="&#xac;" 
d="M784 328v313h-604v199h828v-512h-224z" />
    <glyph glyph-name="softhyphen" unicode="&#xad;" horiz-adv-x="602" 
d="M541 682v-199h-480v199h480z" />
    <glyph glyph-name="registered" unicode="&#xae;" horiz-adv-x="1646" 
d="M702 719h166q63 0 103 44q39 43 39 109t-39 111t-103 45h-166v-309zM702 332h-157v833h340q131 0 212 -85q81 -86 81 -192t-48 -178t-129 -106l166 -272h-176l-151 250h-138v-250zM823 135q240 0 387 172t148 410q0 237 -148 409t-387 172q-240 0 -387 -172t-147 -410
t147 -409q147 -172 387 -172zM823 -35q-333 0 -537 223q-204 222 -204 528t205 529t537 223t536 -223q205 -223 205 -528t-205 -529t-537 -223z" />
    <glyph glyph-name="macron" unicode="&#xaf;" horiz-adv-x="1136" 
d="M934 1679v-198h-733v198h733z" />
    <glyph glyph-name="degree" unicode="&#xb0;" horiz-adv-x="667" 
d="M334 1038q55 0 95 40t40 97q0 56 -40 98t-95 42t-95 -42t-40 -98q0 -57 40 -97t95 -40zM627 1176q0 -123 -85 -208t-208 -85t-208 85t-85 208q0 124 85 208t208 84t208 -84t85 -208z" />
    <glyph glyph-name="plusminus" unicode="&#xb1;" 
d="M1008 0h-828v199h828v-199zM705 442h-224v314h-301v198h301v316h224v-316h303v-198h-303v-314z" />
    <glyph glyph-name="twosuperior" unicode="&#xb2;" horiz-adv-x="772" 
d="M113 645q0 176 51 260t162 150q112 67 136 99t23 71q0 88 -90 88q-100 0 -100 -115h-180q1 112 75 182t198 70t200 -59t76 -179t-152 -226q-10 -7 -74 -48t-92 -71q-27 -30 -27 -74h340v-148h-546z" />
    <glyph glyph-name="threesuperior" unicode="&#xb3;" horiz-adv-x="800" 
d="M98 909h181q1 -63 33 -99t84 -36t80 31t28 74q0 109 -117 108h-70v141h70q105 0 105 92t-91 93q-100 0 -100 -115h-180q-1 108 69 180t197 72t206 -58t79 -163q0 -63 -33 -109t-84 -65q57 -19 93 -69t36 -120q0 -110 -82 -174t-213 -64t-211 78q-80 76 -80 203z" />
    <glyph glyph-name="acute" unicode="&#xb4;" horiz-adv-x="1173" 
d="M780 1335l-510 -280l-106 174l510 280z" />
    <glyph glyph-name="uni00B5" unicode="&#xb5;" 
d="M152 -479v1433h223v-493q0 -289 207 -289q113 0 171 80t58 209v493h223v-954h-223v133q-92 -158 -311 -158q-66 0 -125 17v-471h-223z" />
    <glyph glyph-name="paragraph" unicode="&#xb6;" horiz-adv-x="1368" 
d="M473 -303v977q-199 0 -321 99t-121 292q0 102 37 179t90 119q132 105 383 105h678v-184h-109v-1587h-211v1585h-215v-1585h-211z" />
    <glyph glyph-name="periodcentered" unicode="&#xb7;" horiz-adv-x="575" 
d="M123 640q0 69 48 117t117 48q68 0 116 -48t48 -117t-48 -117t-116 -48t-117 48q-48 48 -48 117z" />
    <glyph glyph-name="cedilla" unicode="&#xb8;" horiz-adv-x="1136" 
d="M395 -242v242h144v-131q27 27 81 27t104 -48q52 -48 52 -128q0 -79 -55 -139t-154 -60q-31 0 -65 7t-82 50q-49 43 -60 119h132q18 -61 75 -62q35 0 57 23q22 24 22 60t-22 57q-22 20 -60 20t-58 -37h-111z" />
    <glyph glyph-name="onesuperior" unicode="&#xb9;" horiz-adv-x="577" 
d="M94 1167v129q109 0 148 32t39 106h159v-789h-184v522h-162z" />
    <glyph glyph-name="ordmasculine" unicode="&#xba;" horiz-adv-x="1163" 
d="M581 174q125 0 203 88t78 215t-79 215t-203 88t-201 -88q-78 -88 -78 -215t78 -215t202 -88zM1085 478q0 -210 -140 -356t-363 -147q-224 1 -364 147t-140 355t140 355t364 147q224 0 363 -146q140 -145 140 -355z" />
    <glyph glyph-name="guillemotright" unicode="&#xbb;" horiz-adv-x="966" 
d="M483 195v215l224 186l-224 186v215l402 -335v-132zM82 195v215l223 186l-223 186v215l401 -335v-132z" />
    <glyph glyph-name="onequarter" unicode="&#xbc;" horiz-adv-x="1945" 
d="M147 1167v129q109 0 148 32t39 106h160v-789h-185v522h-162zM1470 0v219h-313v569h180v-417h133v219h181v-219h96v-152h-96v-219h-181zM303 -2l895 1542l178 -102l-895 -1542z" />
    <glyph glyph-name="onehalf" unicode="&#xbd;" horiz-adv-x="1945" 
d="M1153 0q0 176 51 260t162 150q112 66 136 98t24 72q0 88 -90 88q-100 0 -101 -115h-180q0 111 75 181t199 71q123 1 199 -59t76 -172t-102 -194q-43 -35 -116 -82q-73 -46 -100 -76t-26 -75h340v-147h-547zM147 1167v129q109 0 148 32t39 106h160v-789h-185v522h-162z
M303 -2l895 1542l178 -102l-895 -1542z" />
    <glyph glyph-name="threequarters" unicode="&#xbe;" horiz-adv-x="1945" 
d="M1470 0v219h-313v569h180v-417h133v219h181v-219h96v-152h-96v-219h-181zM92 909h180q0 -63 33 -99t85 -36t80 31t28 74q0 109 -117 108h-70v141h70q104 0 104 97q0 88 -90 88q-100 0 -100 -115h-180q-1 108 69 180t197 72t206 -58t79 -163q0 -63 -33 -109t-84 -65
q57 -19 93 -69t36 -120q0 -110 -82 -174t-213 -64t-211 78q-80 76 -80 203zM303 -2l895 1542l178 -102l-895 -1542z" />
    <glyph glyph-name="questiondown" unicode="&#xbf;" horiz-adv-x="1046" 
d="M750 1294q0 -72 -50 -122t-122 -50t-123 50t-52 122t51 123t124 51t122 -51t50 -123zM332 379q0 -94 58 -143q58 -50 154 -50t156 60q61 60 62 178h235q0 -209 -131 -329t-320 -120t-320 111q-130 111 -130 285t148 311q25 23 98 83q73 61 98 111t25 173h225
q-2 -147 -34 -235t-122 -157q-90 -68 -129 -109q-73 -75 -73 -169z" />
    <glyph glyph-name="Agrave" unicode="&#xc0;" horiz-adv-x="1169" 
d="M834 1534l-510 281l106 174l510 -281zM586 1042l-199 -649h395zM668 1434l495 -1434h-248l-61 182h-539l-61 -182h-248l496 1434h166z" />
    <glyph glyph-name="Aacute" unicode="&#xc1;" horiz-adv-x="1169" 
d="M895 1776l-510 -281l-106 174l509 281zM586 1042l-199 -649h395zM668 1434l495 -1434h-248l-61 182h-539l-61 -182h-248l496 1434h166z" />
    <glyph glyph-name="Acircumflex" unicode="&#xc2;" horiz-adv-x="1169" 
d="M217 1694l367 297l370 -297l-139 -156l-229 184l-228 -182zM586 1042l-199 -649h395zM668 1434l495 -1434h-248l-61 182h-539l-61 -182h-248l496 1434h166z" />
    <glyph glyph-name="Atilde" unicode="&#xc3;" horiz-adv-x="1169" 
d="M430 1860q30 0 146 -28t155 -28t152 56l88 -142q-111 -92 -223 -92q-31 0 -147 27t-150 27t-136 -44l-96 146q121 78 211 78zM586 1042l-199 -649h395zM668 1434l495 -1434h-248l-61 182h-539l-61 -182h-248l496 1434h166z" />
    <glyph glyph-name="Adieresis" unicode="&#xc4;" horiz-adv-x="1169" 
d="M353 1587q-69 0 -117 48t-48 117t48 117t118 48q68 0 116 -48t48 -117t-48 -117t-117 -48zM822 1587q-69 0 -117 48t-48 117q1 69 49 117t116 48t117 -48q48 -48 48 -117t-48 -117t-117 -48zM586 1042l-199 -649h395zM668 1434l495 -1434h-248l-61 182h-539l-61 -182
h-248l496 1434h166z" />
    <glyph glyph-name="Aring" unicode="&#xc5;" horiz-adv-x="1169" 
d="M586 1659q38 0 64 27q26 28 26 64t-26 62t-63 27q-38 0 -65 -28q-26 -27 -26 -63t26 -62t64 -27zM586 1999q104 0 178 -75t74 -177t-74 -177t-178 -75t-178 75t-74 178t74 177t178 74zM586 1042l-199 -649h395zM668 1434l495 -1434h-248l-61 182h-539l-61 -182h-248
l496 1434h166z" />
    <glyph glyph-name="AE" unicode="&#xc6;" horiz-adv-x="1808" 
d="M831 395v817l-385 -817h385zM1659 1223h-592v-406h592v-211h-592v-395h592v-211h-828v184h-485l-86 -184h-256l696 1434h959v-211z" />
    <glyph glyph-name="Ccedilla" unicode="&#xc7;" horiz-adv-x="1587" 
d="M838 1257q-238 -1 -378 -159t-140 -384t144 -382q146 -156 398 -156q127 0 242 82t149 203h258q-47 -205 -222 -344t-419 -150v-67q27 26 81 26q53 0 105 -48t52 -127t-55 -139t-154 -61q-31 -1 -65 7t-82 51q-49 43 -60 119h131q18 -61 76 -62q35 0 57 23t21 59
q0 36 -22 57q-21 21 -59 21t-58 -37h-111v182q-297 35 -473 247t-176 509t202 519t517 222t497 -156t217 -401h-247q-27 152 -141 249t-285 97z" />
    <glyph glyph-name="Egrave" unicode="&#xc8;" horiz-adv-x="1116" 
d="M803 1497l-510 281l106 174l510 -281zM977 1223h-592v-406h592v-211h-592v-395h592v-211h-827v1434h827v-211z" />
    <glyph glyph-name="Eacute" unicode="&#xc9;" horiz-adv-x="1116" 
d="M868 1815l-510 -281l-106 174l510 281zM977 1223h-592v-406h592v-211h-592v-395h592v-211h-827v1434h827v-211z" />
    <glyph glyph-name="Ecircumflex" unicode="&#xca;" horiz-adv-x="1116" 
d="M205 1694l366 297l371 -297l-139 -156l-230 184l-227 -182zM977 1223h-592v-406h592v-211h-592v-395h592v-211h-827v1434h827v-211z" />
    <glyph glyph-name="Edieresis" unicode="&#xcb;" horiz-adv-x="1116" 
d="M361 1587q-69 0 -117 48t-47 117q0 69 48 117q49 48 117 48t116 -48t48 -117t-48 -117t-117 -48zM830 1587q-68 0 -116 48t-48 117t48 117t116 48t117 -48q48 -48 48 -117t-48 -117t-117 -48zM977 1223h-592v-406h592v-211h-592v-395h592v-211h-827v1434h827v-211z" />
    <glyph glyph-name="Igrave" unicode="&#xcc;" horiz-adv-x="542" 
d="M473 1495l-510 281l107 174l510 -281zM150 0v1434h243v-1434h-243z" />
    <glyph glyph-name="Iacute" unicode="&#xcd;" horiz-adv-x="542" 
d="M580 1776l-510 -281l-107 174l510 281zM150 0v1434h243v-1434h-243z" />
    <glyph glyph-name="Icircumflex" unicode="&#xce;" horiz-adv-x="542" 
d="M-96 1694l366 297l371 -297l-139 -156l-230 184l-227 -182zM150 0v1434h243v-1434h-243z" />
    <glyph glyph-name="Idieresis" unicode="&#xcf;" horiz-adv-x="542" 
d="M62 1587q-68 0 -116 48t-48 117t48 117t116 48t117 -48q48 -48 48 -117t-48 -117t-117 -48zM531 1587q-69 0 -117 48t-47 117q0 69 48 117q49 48 117 48t116 -48t48 -117t-48 -117t-117 -48zM150 0v1434h243v-1434h-243z" />
    <glyph glyph-name="Eth" unicode="&#xd0;" horiz-adv-x="1435" 
d="M639 817v-199h-254v-407h229q229 0 366 150q136 151 136 356t-136 355t-366 151h-229v-406h254zM150 1434h464q224 0 398 -104t260 -267q86 -162 86 -346t-86 -346q-86 -163 -259 -267t-399 -104h-464v618h-244v199h244v617z" />
    <glyph glyph-name="Ntilde" unicode="&#xd1;" horiz-adv-x="1359" 
d="M498 1860q30 0 146 -28t154 -28t152 56l88 -142q-111 -92 -223 -92q-31 0 -147 27t-149 27q-34 0 -136 -44l-96 146q121 78 211 78zM975 1434h235v-1434h-258l-567 1020v-1020h-235v1434h258l567 -1020v1020z" />
    <glyph glyph-name="Ograve" unicode="&#xd2;" horiz-adv-x="1638" 
d="M1057 1534l-510 281l106 174l510 -281zM819 176q221 0 358 161q136 161 136 380t-136 380q-135 161 -357 161t-358 -162q-136 -160 -136 -379t136 -380t357 -161zM819 -35q-333 0 -537 223q-204 222 -204 528t205 529t537 223t536 -223q205 -223 205 -528t-205 -529
t-537 -223z" />
    <glyph glyph-name="Oacute" unicode="&#xd3;" horiz-adv-x="1638" 
d="M1083 1815l-510 -281l-106 174l510 281zM819 176q221 0 358 161q136 161 136 380t-136 380q-135 161 -357 161t-358 -162q-136 -160 -136 -379t136 -380t357 -161zM819 -35q-333 0 -537 223q-204 222 -204 528t205 529t537 223t536 -223q205 -223 205 -528t-205 -529
t-537 -223z" />
    <glyph glyph-name="Ocircumflex" unicode="&#xd4;" horiz-adv-x="1638" 
d="M453 1694l366 297l371 -297l-139 -156l-230 184l-227 -182zM819 176q221 0 358 161q136 161 136 380t-136 380q-135 161 -357 161t-358 -162q-136 -160 -136 -379t136 -380t357 -161zM819 -35q-333 0 -537 223q-204 222 -204 528t205 529t537 223t536 -223
q205 -223 205 -528t-205 -529t-537 -223z" />
    <glyph glyph-name="Otilde" unicode="&#xd5;" horiz-adv-x="1638" 
d="M653 1860q29 0 146 -28t155 -28t152 56l88 -142q-111 -92 -223 -92q-31 0 -147 27t-150 27t-135 -44l-97 146q121 78 211 78zM819 176q221 0 358 161q136 161 136 380t-136 380q-135 161 -357 161t-358 -162q-136 -160 -136 -379t136 -380t357 -161zM819 -35
q-333 0 -537 223q-204 222 -204 528t205 529t537 223t536 -223q205 -223 205 -528t-205 -529t-537 -223z" />
    <glyph glyph-name="Odieresis" unicode="&#xd6;" horiz-adv-x="1638" 
d="M889 1752q0 69 48 117t117 48q68 0 116 -48t48 -117t-48 -117t-116 -48t-117 48q-48 48 -48 117zM585 1917q69 0 117 -48t48 -117t-48 -117t-117 -48t-117 48t-48 117t48 117t117 48zM326 717q0 -219 136 -380t357 -161t358 161q136 161 136 380t-136 380
q-135 161 -357 161t-358 -162q-136 -160 -136 -379zM819 -35q-333 0 -537 223q-204 222 -204 528t205 529t537 223t536 -223q205 -223 205 -528t-205 -529t-537 -223z" />
    <glyph glyph-name="multiply" unicode="&#xd7;" 
d="M584 733l223 223l158 -157l-224 -224l215 -215l-141 -139l-213 213l-223 -221l-158 158l221 221l-211 213l140 141z" />
    <glyph glyph-name="Oslash" unicode="&#xd8;" horiz-adv-x="1638" 
d="M326 717q0 -127 49 -242t139 -190l412 960q-49 12 -107 12q-221 -1 -357 -161t-136 -379zM819 176q221 0 358 161q136 161 136 380q0 127 -50 241t-141 191l-413 -961q53 -12 110 -12zM819 -35q-106 0 -194 25l-72 -170l-199 84l70 168q-164 102 -255 274t-91 371
q0 305 205 528t536 223q102 0 193 -24l84 194l200 -86l-84 -190q164 -102 256 -276t93 -369q0 -305 -205 -529t-537 -223z" />
    <glyph glyph-name="Ugrave" unicode="&#xd9;" horiz-adv-x="1310" 
d="M887 1534l-510 281l106 174l510 -281zM139 479v955h236v-955q0 -127 78 -215q77 -88 201 -88t203 88t79 215v955h235v-955q0 -215 -143 -365q-142 -150 -372 -149q-230 -1 -374 149t-143 365z" />
    <glyph glyph-name="Uacute" unicode="&#xda;" horiz-adv-x="1310" 
d="M913 1815l-510 -281l-106 174l510 281zM139 479v955h236v-955q0 -127 78 -215q77 -88 201 -88t203 88t79 215v955h235v-955q0 -215 -143 -365q-142 -150 -372 -149q-230 -1 -374 149t-143 365z" />
    <glyph glyph-name="Ucircumflex" unicode="&#xdb;" horiz-adv-x="1310" 
d="M276 1694l367 297l371 -297l-140 -156l-229 184l-227 -182zM139 479v955h236v-955q0 -127 78 -215q77 -88 201 -88t203 88t79 215v955h235v-955q0 -215 -143 -365q-142 -150 -372 -149q-230 -1 -374 149t-143 365z" />
    <glyph glyph-name="Udieresis" unicode="&#xdc;" horiz-adv-x="1310" 
d="M254 1752q0 69 48 117t117 48t117 -48t48 -117t-48 -117t-117 -48t-117 48t-48 117zM723 1752q0 69 48 117t117 48t117 -48t48 -117t-48 -117t-117 -48t-117 48t-48 117zM139 479v955h236v-955q0 -127 78 -215q77 -88 201 -88t203 88t79 215v955h235v-955
q0 -215 -143 -365q-142 -150 -372 -149q-230 -1 -374 149t-143 365z" />
    <glyph glyph-name="Yacute" unicode="&#xdd;" horiz-adv-x="1232" 
d="M1008 1815l-510 -281l-107 174l510 281zM1243 1434l-711 -1434h-258l285 573l-536 861h272l383 -617l307 617h258z" />
    <glyph glyph-name="Thorn" unicode="&#xde;" horiz-adv-x="1026" 
d="M483 979h-123v-545h123q125 0 198 81t73 192t-73 191t-198 81zM150 0v1434h210v-269h123q221 0 351 -137t131 -321q0 -183 -130 -321t-352 -138h-123v-248h-210z" />
    <glyph glyph-name="germandbls" unicode="&#xdf;" horiz-adv-x="1157" 
d="M852 400q0 100 -66 176t-194 75h-80v199h74q121 0 176 60t55 150t-68 145q-69 55 -164 55t-159 -70t-64 -180v-1010h-223v1010q0 200 125 324q124 124 316 124t326 -110t134 -283q0 -225 -211 -315q107 -41 177 -129t69 -205q0 -215 -143 -328t-332 -113q-95 0 -158 25
v193q92 -19 175 -19t159 62q76 64 76 164z" />
    <glyph glyph-name="agrave" unicode="&#xe0;" horiz-adv-x="1234" 
d="M776 1014l-510 280l107 174l510 -280zM581 174q125 0 203 88t78 215t-79 215t-203 88t-201 -88q-78 -88 -78 -215t78 -215t202 -88zM862 954h223v-954h-223v129q-43 -70 -126 -112t-169 -42q-213 -1 -351 147t-138 355t138 354t351 148q86 0 169 -42t126 -112v129z" />
    <glyph glyph-name="aacute" unicode="&#xe1;" horiz-adv-x="1234" 
d="M823 1294l-510 -280l-106 174l510 280zM581 174q125 0 203 88t78 215t-79 215t-203 88t-201 -88q-78 -88 -78 -215t78 -215t202 -88zM862 954h223v-954h-223v129q-43 -70 -126 -112t-169 -42q-213 -1 -351 147t-138 355t138 354t351 148q86 0 169 -42t126 -112v129z" />
    <glyph glyph-name="acircumflex" unicode="&#xe2;" horiz-adv-x="1234" 
d="M213 1212l367 297l370 -297l-139 -155l-229 184l-228 -182zM581 174q125 0 203 88t78 215t-79 215t-203 88t-201 -88q-78 -88 -78 -215t78 -215t202 -88zM862 954h223v-954h-223v129q-43 -70 -126 -112t-169 -42q-213 -1 -351 147t-138 355t138 354t351 148q86 0 169 -42
t126 -112v129z" />
    <glyph glyph-name="atilde" unicode="&#xe3;" horiz-adv-x="1234" 
d="M422 1434q30 0 146 -28t155 -28t151 56l89 -142q-111 -92 -224 -92q-31 0 -147 27t-149 27q-34 0 -136 -44l-96 146q121 78 211 78zM581 174q125 0 203 88t78 215t-79 215t-203 88t-201 -88q-78 -88 -78 -215t78 -215t202 -88zM862 954h223v-954h-223v129
q-43 -70 -126 -112t-169 -42q-213 -1 -351 147t-138 355t138 354t351 148q86 0 169 -42t126 -112v129z" />
    <glyph glyph-name="adieresis" unicode="&#xe4;" horiz-adv-x="1234" 
d="M301 477q0 -127 78 -215t202 -88q125 0 203 88t78 215t-79 215t-203 88t-201 -88q-78 -88 -78 -215zM977 1258q0 -68 -48 -116t-117 -48t-117 48t-48 116t48 117q48 48 117 48t117 -48t48 -117zM508 1258q0 -68 -48 -116t-117 -48t-117 48t-48 116t48 117q48 48 117 48
t117 -48t48 -117zM1085 0h-223v129q-43 -70 -126 -112t-169 -42q-213 -1 -351 147t-138 355t138 354t351 148q86 0 169 -42t126 -112v129h223v-954z" />
    <glyph glyph-name="aring" unicode="&#xe5;" horiz-adv-x="1234" 
d="M613 1386q-39 0 -65 -28t-26 -63q0 -37 27 -63t63 -26t64 27q26 27 26 63t-25 64q-26 26 -64 26zM612 1546q104 0 178 -75t74 -177t-74 -177t-178 -75t-178 75t-74 178t74 177t178 74zM581 174q125 0 203 88t78 215t-79 215t-203 88t-201 -88q-78 -88 -78 -215t78 -215
t202 -88zM862 954h223v-954h-223v129q-43 -70 -126 -112t-169 -42q-213 -1 -351 147t-138 355t138 354t351 148q86 0 169 -42t126 -112v129z" />
    <glyph glyph-name="ae" unicode="&#xe6;" horiz-adv-x="1867" 
d="M581 174q125 0 203 88t78 216t-79 215t-203 87t-201 -88q-78 -88 -78 -215t78 -215t202 -88zM1327 793q-102 1 -169 -57t-66 -161h467q0 98 -65 158t-167 60zM862 954h223v-36q106 61 248 61q187 0 315 -124t128 -306q0 -78 -11 -139h-675q2 -113 62 -181t187 -67
q150 0 203 125h225q-25 -131 -139 -221t-274 -90q-158 0 -269 63v-39h-223v129q-43 -70 -126 -112t-169 -42q-213 -1 -351 147t-138 355t138 354t351 148q86 0 169 -42t126 -112v129z" />
    <glyph glyph-name="ccedilla" unicode="&#xe7;" horiz-adv-x="1093" 
d="M561 780q-123 0 -189 -87t-67 -218q0 -131 67 -216t203 -85q94 0 143 38q48 38 70 116h224q-25 -150 -128 -245t-284 -106v-63q27 27 81 27q54 -1 105 -49q52 -48 52 -127t-56 -139t-153 -60q-31 0 -65 7t-83 50t-59 119h131q18 -61 76 -61q35 1 57 23t21 58q0 36 -22 58
q-21 20 -59 20t-59 -37h-110v183q-178 35 -277 173q-98 137 -98 331t127 341t346 147t331 -108t124 -264h-224q-20 174 -225 174z" />
    <glyph glyph-name="egrave" unicode="&#xe8;" horiz-adv-x="1087" 
d="M807 1014l-510 280l106 174l510 -280zM547 793q-102 1 -169 -57t-67 -161h467q0 98 -64 158q-65 60 -167 60zM82 483q0 215 125 355t329 141q204 0 331 -124q128 -124 128 -306q0 -78 -10 -139h-676q3 -113 63 -181t187 -67q150 0 203 125h225q-25 -131 -139 -221
t-289 -91q-229 1 -353 147t-124 361z" />
    <glyph glyph-name="eacute" unicode="&#xe9;" horiz-adv-x="1087" 
d="M846 1294l-510 -280l-107 174l510 280zM547 793q-102 1 -169 -57t-67 -161h467q0 98 -64 158q-65 60 -167 60zM82 483q0 215 125 355t329 141q204 0 331 -124q128 -124 128 -306q0 -78 -10 -139h-676q3 -113 63 -181t187 -67q150 0 203 125h225q-25 -131 -139 -221
t-289 -91q-229 1 -353 147t-124 361z" />
    <glyph glyph-name="ecircumflex" unicode="&#xea;" horiz-adv-x="1087" 
d="M182 1212l367 297l371 -297l-140 -155l-229 184l-227 -182zM547 793q-102 1 -169 -57t-67 -161h467q0 98 -64 158q-65 60 -167 60zM82 483q0 215 125 355t329 141q204 0 331 -124q128 -124 128 -306q0 -78 -10 -139h-676q3 -113 63 -181t187 -67q150 0 203 125h225
q-25 -131 -139 -221t-289 -91q-229 1 -353 147t-124 361z" />
    <glyph glyph-name="edieresis" unicode="&#xeb;" horiz-adv-x="1087" 
d="M479 1258q0 -68 -48 -116t-117 -48q-68 0 -116 48t-48 116q0 69 48 117t116 48t117 -48q48 -48 48 -117zM948 1258q0 -68 -48 -116t-117 -48t-117 48t-48 116q0 69 48 117t118 48q68 0 116 -48t48 -117zM547 793q-102 1 -169 -57t-67 -161h467q0 98 -64 158
q-65 60 -167 60zM82 483q0 215 125 355t329 141q204 0 331 -124q128 -124 128 -306q0 -78 -10 -139h-676q3 -113 63 -181t187 -67q150 0 203 125h225q-25 -131 -139 -221t-289 -91q-229 1 -353 147t-124 361z" />
    <glyph glyph-name="igrave" unicode="&#xec;" horiz-adv-x="612" 
d="M508 1055l-510 280l106 174l510 -280zM195 0v954h223v-954h-223z" />
    <glyph glyph-name="iacute" unicode="&#xed;" horiz-adv-x="612" 
d="M614 1335l-510 -280l-106 174l510 280zM195 0v954h223v-954h-223z" />
    <glyph glyph-name="icircumflex" unicode="&#xee;" horiz-adv-x="612" 
d="M-61 1212l366 297l371 -297l-139 -155l-230 184l-227 -182zM197 0v954h223v-954h-223z" />
    <glyph glyph-name="idieresis" unicode="&#xef;" horiz-adv-x="612" 
d="M73 1423q69 0 117 -48t48 -117q0 -68 -48 -116t-118 -48q-68 0 -116 48t-48 116q0 69 48 117t117 48zM542 1423q68 0 116 -48t48 -117q0 -68 -48 -116t-116 -48t-117 48q-48 48 -48 116q0 69 48 117t117 48zM172 0v954h223v-954h-223z" />
    <glyph glyph-name="eth" unicode="&#xf0;" horiz-adv-x="1159" 
d="M581 174q125 0 203 88t78 215t-79 215t-203 88t-201 -88q-78 -88 -78 -215t78 -215t202 -88zM1085 477q0 -209 -140 -355t-363 -147q-224 1 -364 147t-140 355t140 355t362 147h18l-57 92l-209 -110l-88 165l192 105l-123 203h271l55 -95l178 95l90 -166l-168 -88
l254 -406q92 -147 92 -297z" />
    <glyph glyph-name="ntilde" unicode="&#xf1;" horiz-adv-x="1165" 
d="M408 1434q30 0 146 -28t154 -28t152 56l88 -142q-111 -92 -223 -92q-31 0 -147 27t-149 27q-34 0 -136 -44l-96 146q121 78 211 78zM150 0v954h223v-133q92 158 302 158t296 -129q61 -94 61 -283v-567h-223v494q0 289 -207 288q-113 0 -171 -80t-58 -208v-494h-223z" />
    <glyph glyph-name="ograve" unicode="&#xf2;" horiz-adv-x="1163" 
d="M803 1014l-510 280l106 174l510 -280zM581 174q125 0 203 88t78 215t-79 215t-203 88t-201 -88q-78 -88 -78 -215t78 -215t202 -88zM1085 478q0 -210 -140 -356t-363 -147q-224 1 -364 147t-140 355t140 355t364 147q224 0 363 -146q140 -145 140 -355z" />
    <glyph glyph-name="oacute" unicode="&#xf3;" horiz-adv-x="1163" 
d="M829 1294l-510 -280l-106 174l510 280zM581 174q125 0 203 88t78 215t-79 215t-203 88t-201 -88q-78 -88 -78 -215t78 -215t202 -88zM1085 478q0 -210 -140 -356t-363 -147q-224 1 -364 147t-140 355t140 355t364 147q224 0 363 -146q140 -145 140 -355z" />
    <glyph glyph-name="ocircumflex" unicode="&#xf4;" horiz-adv-x="1163" 
d="M215 1212l367 297l370 -297l-139 -155l-229 184l-228 -182zM581 174q125 0 203 88t78 215t-79 215t-203 88t-201 -88q-78 -88 -78 -215t78 -215t202 -88zM1085 478q0 -210 -140 -356t-363 -147q-224 1 -364 147t-140 355t140 355t364 147q224 0 363 -146
q140 -145 140 -355z" />
    <glyph glyph-name="otilde" unicode="&#xf5;" horiz-adv-x="1163" 
d="M700 1327q38 0 152 55l88 -141q-111 -92 -223 -92q-31 0 -147 27q-116 26 -150 26t-135 -43l-97 146q121 78 211 77q29 0 146 -28t155 -27zM581 174q125 0 203 88t78 215t-79 215t-203 88t-201 -88q-78 -88 -78 -215t78 -215t202 -88zM1085 478q0 -210 -140 -356
t-363 -147q-224 1 -364 147t-140 355t140 355t364 147q224 0 363 -146q140 -145 140 -355z" />
    <glyph glyph-name="odieresis" unicode="&#xf6;" horiz-adv-x="1163" 
d="M1085 478q0 -210 -140 -356t-363 -147q-224 1 -364 147t-140 355t140 355t364 147q224 0 363 -146q140 -145 140 -355zM581 174q125 0 203 88t78 215t-79 215t-203 88t-201 -88q-78 -88 -78 -215t78 -215t202 -88zM981 1258q0 -68 -48 -116t-117 -48t-117 48t-48 116
q0 69 48 117t117 48t117 -48t48 -117zM512 1258q0 -68 -48 -116t-117 -48t-117 48t-48 116t48 117q48 48 117 48t117 -48t48 -117z" />
    <glyph glyph-name="divide" unicode="&#xf7;" 
d="M760 826q0 -68 -48 -116t-117 -48t-117 48t-48 116q0 69 48 117t117 48t117 -48t48 -117zM430 153q0 69 48 117t117 47q69 0 117 -48q48 -49 48 -117t-48 -116t-117 -48t-117 48t-48 117zM1008 381h-828v199h828v-199z" />
    <glyph glyph-name="oslash" unicode="&#xf8;" horiz-adv-x="1163" 
d="M301 478q0 -126 74 -212l221 514h-16q-123 0 -201 -88t-78 -214zM580 174q126 0 204 88t78 216t-80 214l-221 -518h19zM1085 477q0 -209 -140 -355t-365 -147q-49 0 -101 11l-73 -168l-189 82l70 161q-98 70 -154 180q-55 110 -55 236q0 209 140 355t362 147q37 0 98 -8
l74 170l188 -82l-70 -164q100 -71 158 -181t57 -237z" />
    <glyph glyph-name="ugrave" unicode="&#xf9;" horiz-adv-x="1165" 
d="M784 1014l-510 280l107 174l510 -280zM1016 954v-954h-223v133q-93 -158 -303 -158t-295 129q-61 94 -62 283v567h223v-493q0 -289 207 -289q113 0 171 80t59 209v493h223z" />
    <glyph glyph-name="uacute" unicode="&#xfa;" horiz-adv-x="1165" 
d="M879 1294l-510 -280l-107 174l510 280zM1016 954v-954h-223v133q-93 -158 -303 -158t-295 129q-61 94 -62 283v567h223v-493q0 -289 207 -289q113 0 171 80t59 209v493h223z" />
    <glyph glyph-name="ucircumflex" unicode="&#xfb;" horiz-adv-x="1165" 
d="M197 1212l366 297l371 -297l-139 -155l-230 184l-227 -182zM1016 954v-954h-223v133q-93 -158 -303 -158t-295 129q-61 94 -62 283v567h223v-493q0 -289 207 -289q113 0 171 80t59 209v493h223z" />
    <glyph glyph-name="udieresis" unicode="&#xfc;" horiz-adv-x="1165" 
d="M508 1258q0 -68 -48 -116t-117 -48t-117 48t-48 116q0 69 48 117t117 48t117 -48t48 -117zM977 1258q0 -68 -48 -116t-117 -48t-117 48t-48 116q0 69 48 117t117 48t117 -48t48 -117zM1016 954v-954h-223v133q-93 -158 -303 -158t-295 129q-61 94 -62 283v567h223v-493
q0 -289 207 -289q113 0 171 80t59 209v493h223z" />
    <glyph glyph-name="yacute" unicode="&#xfd;" horiz-adv-x="1183" 
d="M903 1294l-510 -280l-106 174l510 280zM549 -502q-180 0 -297 116t-119 277h217q2 -86 60 -140t174 -54q117 0 175 60t58 198v178q-92 -158 -302 -158t-296 129q-61 94 -61 283v567h223v-493q0 -289 207 -289q113 0 171 80t58 209v493h223v-999q0 -237 -124 -347
t-367 -110z" />
    <glyph glyph-name="thorn" unicode="&#xfe;" horiz-adv-x="1226" 
d="M373 477q1 -127 79 -215t202 -88t202 88t78 215t-78 215t-202 88t-202 -88t-79 -215zM373 -479h-223v1913h223v-609q43 70 126 112t169 42q213 1 351 -147t138 -355t-138 -354t-351 -148q-86 0 -169 42t-126 112v-608z" />
    <glyph glyph-name="ydieresis" unicode="&#xff;" horiz-adv-x="1183" 
d="M221 1257q0 66 45 112t111 46q65 0 111 -46t46 -112q0 -67 -46 -111t-112 -44t-110 44q-45 44 -45 111zM690 1257q0 66 45 112t111 46t112 -46t46 -112q0 -67 -46 -111t-111 -44t-111 44t-46 111zM549 -502q-180 0 -297 116t-119 277h217q2 -86 60 -140t174 -54
q117 0 175 60t58 198v178q-92 -158 -302 -158t-296 129q-61 94 -61 283v567h223v-493q0 -289 207 -289q113 0 171 80t58 209v493h223v-999q0 -237 -124 -347t-367 -110z" />
    <glyph glyph-name="Amacron" unicode="&#x100;" horiz-adv-x="1169" 
d="M950 1843v-198h-733v198h733zM586 1042l-199 -649h395zM668 1434l495 -1434h-248l-61 182h-539l-61 -182h-248l496 1434h166z" />
    <glyph glyph-name="amacron" unicode="&#x101;" horiz-adv-x="1234" 
d="M932 1358v-199h-733v199h733zM581 174q125 0 203 88t78 215t-79 215t-203 88t-201 -88q-78 -88 -78 -215t78 -215t202 -88zM862 954h223v-954h-223v129q-43 -70 -126 -112t-169 -42q-213 -1 -351 147t-138 355t138 354t351 148q86 0 169 -42t126 -112v129z" />
    <glyph glyph-name="Abreve" unicode="&#x102;" horiz-adv-x="1169" 
d="M584 1722q154 0 202 121h211q-14 -133 -136 -226q-123 -93 -277 -93t-273 92q-118 92 -141 227h209q51 -121 205 -121zM586 1042l-199 -649h395zM668 1434l495 -1434h-248l-61 182h-539l-61 -182h-248l496 1434h166z" />
    <glyph glyph-name="abreve" unicode="&#x103;" horiz-adv-x="1234" 
d="M555 1313q154 0 203 121h211q-14 -132 -136 -226t-277 -94q-156 0 -274 92t-141 228h209q51 -121 205 -121zM581 174q125 0 203 88t78 215t-79 215t-203 88t-201 -88q-78 -88 -78 -215t78 -215t202 -88zM862 954h223v-954h-223v129q-43 -70 -126 -112t-169 -42
q-213 -1 -351 147t-138 355t138 354t351 148q86 0 169 -42t126 -112v129z" />
    <glyph glyph-name="Aogonek" unicode="&#x104;" horiz-adv-x="1169" 
d="M586 1042l-199 -649h395zM980 -434q-104 0 -165 56t-61 142q0 119 161 236l-61 182h-539l-61 -182h-248l496 1434h166l495 -1434h-82q-35 -25 -55 -41t-40 -49t-19 -74q-1 -41 25 -73t76 -32t108 25v-159q-92 -31 -196 -31z" />
    <glyph glyph-name="aogonek" unicode="&#x105;" horiz-adv-x="1234" 
d="M581 174q125 0 203 88t78 215t-79 215t-203 88t-201 -88q-78 -88 -78 -215t78 -215t202 -88zM926 -434q-104 0 -164 56q-61 56 -62 142q0 119 162 236v129q-43 -70 -126 -112t-169 -42q-213 -1 -351 147t-138 355t138 354t351 148q86 0 169 -42t126 -112v129h223v-954
h-57q-35 -25 -55 -41q-19 -16 -39 -49t-20 -74t25 -73q26 -32 76 -32t107 25v-159q-92 -31 -196 -31z" />
    <glyph glyph-name="Cacute" unicode="&#x106;" horiz-adv-x="1587" 
d="M1102 1815l-510 -281l-107 174l510 281zM831 -35q-341 0 -547 219q-206 220 -206 530t202 532t517 222t497 -156t217 -401h-247q-27 152 -141 249t-285 97q-238 -1 -378 -159t-140 -384t144 -382q146 -156 398 -156q127 0 242 82q114 82 149 203h258q-49 -215 -235 -355
t-445 -141z" />
    <glyph glyph-name="cacute" unicode="&#x107;" horiz-adv-x="1093" 
d="M854 1294l-510 -280l-106 174l510 280zM561 780q-123 0 -189 -87t-67 -218q0 -131 67 -216t203 -85q94 0 143 38q48 38 70 116h224q-25 -158 -140 -255q-116 -97 -326 -97t-337 146q-127 148 -127 355t127 354t346 147t331 -108t124 -264h-224q-20 174 -225 174z" />
    <glyph glyph-name="Ccircumflex" unicode="&#x108;" horiz-adv-x="1587" 
d="M442 1696l369 297l369 -297l-140 -156l-229 184l-227 -182zM831 -35q-341 0 -547 219q-206 220 -206 530t202 532t517 222t497 -156t217 -401h-247q-27 152 -141 249t-285 97q-238 -1 -378 -159t-140 -384t144 -382q146 -156 398 -156q127 0 242 82q114 82 149 203h258
q-49 -215 -235 -355t-445 -141z" />
    <glyph glyph-name="ccircumflex" unicode="&#x109;" horiz-adv-x="1093" 
d="M178 1212l369 297l368 -297l-139 -155l-229 184l-228 -182zM561 780q-123 0 -189 -87t-67 -218q0 -131 67 -216t203 -85q94 0 143 38q48 38 70 116h224q-25 -158 -140 -255q-116 -97 -326 -97t-337 146q-127 148 -127 355t127 354t346 147t331 -108t124 -264h-224
q-20 174 -225 174z" />
    <glyph glyph-name="Cdotaccent" unicode="&#x10a;" horiz-adv-x="1587" 
d="M643 1773q0 69 48 117t117 47q69 0 117 -48q48 -49 48 -117t-48 -116t-117 -48t-117 48t-48 117zM831 -35q-341 0 -547 219q-206 220 -206 530t202 532t517 222t497 -156t217 -401h-247q-27 152 -141 249t-285 97q-238 -1 -378 -159t-140 -384t144 -382
q146 -156 398 -156q127 0 242 82q114 82 149 203h258q-49 -215 -235 -355t-445 -141z" />
    <glyph glyph-name="cdotaccent" unicode="&#x10b;" horiz-adv-x="1093" 
d="M725 1256q0 -68 -48 -116t-117 -48t-117 48t-48 116q0 69 48 117t117 48t117 -48t48 -117zM561 780q-123 0 -189 -87t-67 -218q0 -131 67 -216t203 -85q94 0 143 38q48 38 70 116h224q-25 -158 -140 -255q-116 -97 -326 -97t-337 146q-127 148 -127 355t127 354t346 147
t331 -108t124 -264h-224q-20 174 -225 174z" />
    <glyph glyph-name="Ccaron" unicode="&#x10c;" horiz-adv-x="1587" 
d="M791 1538l-326 297l119 156l207 -197l208 197l121 -156zM831 -35q-341 0 -547 219q-206 220 -206 530t202 532t517 222t497 -156t217 -401h-247q-27 152 -141 249t-285 97q-238 -1 -378 -159t-140 -384t144 -382q146 -156 398 -156q127 0 242 82q114 82 149 203h258
q-49 -215 -235 -355t-445 -141z" />
    <glyph glyph-name="ccaron" unicode="&#x10d;" horiz-adv-x="1093" 
d="M559 1057l-326 297l119 155l207 -196l209 196l121 -155zM561 780q-123 0 -189 -87t-67 -218q0 -131 67 -216t203 -85q94 0 143 38q48 38 70 116h224q-25 -158 -140 -255q-116 -97 -326 -97t-337 146q-127 148 -127 355t127 354t346 147t331 -108t124 -264h-224
q-20 174 -225 174z" />
    <glyph glyph-name="Dcaron" unicode="&#x10e;" horiz-adv-x="1435" 
d="M674 1538l-326 297l119 156l207 -197l209 197l121 -156zM614 1223h-229v-1012h229q229 0 366 150q136 151 136 356t-136 355t-366 151zM150 1434h464q172 0 316 -60q267 -113 378 -392q50 -128 50 -265q0 -283 -193 -495q-92 -102 -235 -162t-316 -60h-464v1434z" />
    <glyph glyph-name="dcaron" unicode="&#x10f;" horiz-adv-x="1538" 
d="M1204 1350q0 66 46 112t119 47q73 0 121 -56t48 -146q0 -174 -82 -250t-244 -78v100q94 0 142 41q43 33 49 86q-10 -10 -41 -10q-72 0 -115 44t-43 110zM862 1434h223v-1434h-223v129q-43 -70 -126 -112t-169 -42q-213 -1 -351 147t-138 355t138 354t351 148
q86 0 169 -42t126 -112v609zM581 174q125 0 203 88t78 215t-79 215t-203 88t-201 -88q-78 -88 -78 -215t78 -215t202 -88z" />
    <glyph glyph-name="Dcroat" unicode="&#x110;" horiz-adv-x="1435" 
d="M639 817v-199h-254v-407h229q229 0 366 150q136 151 136 356t-136 355t-366 151h-229v-406h254zM150 1434h464q172 0 316 -60q267 -113 378 -392q50 -128 50 -265q0 -283 -193 -495q-92 -102 -235 -162t-316 -60h-464v618h-244v199h244v617z" />
    <glyph glyph-name="dcroat" unicode="&#x111;" horiz-adv-x="1234" 
d="M581 174q125 0 203 88t78 215t-79 215t-203 88t-201 -88q-78 -88 -78 -215t78 -215t202 -88zM1169 1257v-198h-84v-1059h-223v129q-43 -70 -126 -112t-169 -42q-213 -1 -351 147t-138 355t138 354t351 148q86 0 169 -42t126 -112v234h-172v198h172v177h223v-177h84z" />
    <glyph glyph-name="Emacron" unicode="&#x112;" horiz-adv-x="1116" 
d="M926 1843v-198h-733v198h733zM977 1223h-592v-406h592v-211h-592v-395h592v-211h-827v1434h827v-211z" />
    <glyph glyph-name="emacron" unicode="&#x113;" horiz-adv-x="1087" 
d="M911 1434v-199h-733v199h733zM547 793q-102 1 -169 -57t-67 -161h467q0 98 -64 158q-65 60 -167 60zM82 483q0 215 125 355t329 141q204 0 331 -124q128 -124 128 -306q0 -78 -10 -139h-676q3 -113 63 -181t187 -67q150 0 203 125h225q-25 -131 -139 -221t-289 -91
q-229 1 -353 147t-124 361z" />
    <glyph glyph-name="Ebreve" unicode="&#x114;" horiz-adv-x="1116" 
d="M559 1720q154 0 203 121h211q-14 -133 -136 -226t-277 -93q-156 0 -274 92t-141 227h209q51 -121 205 -121zM977 1223h-592v-406h592v-211h-592v-395h592v-211h-827v1434h827v-211z" />
    <glyph glyph-name="ebreve" unicode="&#x115;" horiz-adv-x="1087" 
d="M545 1313q154 0 203 121h210q-14 -132 -136 -226t-276 -94t-274 92q-118 93 -141 228h209q51 -121 205 -121zM547 793q-102 1 -169 -57t-67 -161h467q0 98 -64 158q-65 60 -167 60zM82 483q0 215 125 355t329 141q204 0 331 -124q128 -124 128 -306q0 -78 -10 -139h-676
q3 -113 63 -181t187 -67q150 0 203 125h225q-25 -131 -139 -221t-289 -91q-229 1 -353 147t-124 361z" />
    <glyph glyph-name="Edotaccent" unicode="&#x116;" horiz-adv-x="1116" 
d="M393 1773q0 69 48 117t117 47q69 0 117 -48q48 -49 48 -117t-48 -116t-117 -48t-117 48t-48 117zM977 1223h-592v-406h592v-211h-592v-395h592v-211h-827v1434h827v-211z" />
    <glyph glyph-name="edotaccent" unicode="&#x117;" horiz-adv-x="1087" 
d="M544 1421q68 0 116 -48t48 -117q0 -68 -48 -116t-116 -48t-117 48q-48 48 -48 116q0 69 48 117t117 48zM547 793q-102 1 -169 -57t-67 -161h467q0 98 -64 158q-65 60 -167 60zM82 483q0 215 125 355t329 141q204 0 331 -124q128 -124 128 -306q0 -78 -10 -139h-676
q3 -113 63 -181t187 -67q150 0 203 125h225q-25 -131 -139 -221t-289 -91q-229 1 -353 147t-124 361z" />
    <glyph glyph-name="Eogonek" unicode="&#x118;" horiz-adv-x="1116" 
d="M876 -434q-104 0 -165 56t-62 142q0 119 162 236h-661v1434h827v-211h-592v-406h592v-211h-592v-395h592v-211q-35 -25 -55 -41t-40 -49t-20 -74t26 -73t75 -32t108 25v-159q-91 -31 -195 -31z" />
    <glyph glyph-name="eogonek" unicode="&#x119;" horiz-adv-x="1087" 
d="M547 793q-102 1 -169 -57t-67 -161h467q0 98 -64 158q-65 60 -167 60zM556 -434q-104 0 -165 56t-61 142q0 113 137 220q-186 29 -286 168q-99 138 -99 342t125 344t329 141q204 0 331 -124q128 -124 128 -306q0 -78 -10 -139h-676q3 -113 63 -181t187 -67q150 0 203 125
h225q-23 -117 -118 -203t-240 -104q-86 -63 -86 -140q-1 -45 25 -77t76 -32t108 25v-159q-92 -31 -196 -31z" />
    <glyph glyph-name="Ecaron" unicode="&#x11a;" horiz-adv-x="1116" 
d="M555 1538l-326 297l119 156l207 -197l209 197l121 -156zM977 1223h-592v-406h592v-211h-592v-395h592v-211h-827v1434h827v-211z" />
    <glyph glyph-name="ecaron" unicode="&#x11b;" horiz-adv-x="1087" 
d="M541 1057l-326 297l119 155l207 -196l209 196l120 -155zM547 793q-102 1 -169 -57t-67 -161h467q0 98 -64 158q-65 60 -167 60zM82 483q0 215 125 355t329 141q204 0 331 -124q128 -124 128 -306q0 -78 -10 -139h-676q3 -113 63 -181t187 -67q150 0 203 125h225
q-25 -131 -139 -221t-289 -91q-229 1 -353 147t-124 361z" />
    <glyph glyph-name="Gcircumflex" unicode="&#x11c;" horiz-adv-x="1716" 
d="M449 1702l368 297l369 -297l-139 -156l-230 185l-227 -183zM989 508v211h682v-211h-158q-49 -250 -229 -396t-469 -147q-170 1 -312 63q-141 62 -233 168q-192 221 -192 521q0 197 88 367t259 277t405 107t406 -135q173 -135 189 -329h-237q-18 110 -122 182t-251 71
q-221 1 -358 -159t-137 -383t136 -381q138 -158 390 -158q174 0 284 95t134 237h-275z" />
    <glyph glyph-name="gcircumflex" unicode="&#x11d;" horiz-adv-x="1228" 
d="M199 1212l368 297l369 -297l-139 -155l-230 184l-227 -182zM1085 954v-1001q0 -455 -510 -455q-223 0 -347 115t-134 278h225q10 -84 76 -139t180 -55q287 0 287 256v176q-43 -70 -126 -112t-169 -42q-213 -1 -351 147t-138 355t138 354t351 148q86 0 169 -42t126 -112
v129h223zM862 477q0 127 -78 215t-203 88q-124 0 -202 -88t-78 -215t78 -215t202 -88q125 0 203 88t78 215z" />
    <glyph glyph-name="Gbreve" unicode="&#x11e;" horiz-adv-x="1716" 
d="M815 1724q154 0 203 121h211q-14 -133 -136 -226t-277 -93q-156 0 -274 92t-141 227h209q51 -121 205 -121zM989 508v211h682v-211h-158q-49 -250 -229 -396t-469 -147q-170 1 -312 63q-141 62 -233 168q-192 221 -192 521q0 197 88 367t259 277t405 107t406 -135
q173 -135 189 -329h-237q-18 110 -122 182t-251 71q-221 1 -358 -159t-137 -383t136 -381q138 -158 390 -158q174 0 284 95t134 237h-275z" />
    <glyph glyph-name="gbreve" unicode="&#x11f;" horiz-adv-x="1228" 
d="M567 1313q154 0 203 121h211q-14 -132 -136 -226t-277 -94t-273 92t-141 228h208q51 -121 205 -121zM1085 954v-1001q0 -455 -510 -455q-223 0 -347 115t-134 278h225q10 -84 76 -139t180 -55q287 0 287 256v176q-43 -70 -126 -112t-169 -42q-213 -1 -351 147t-138 355
t138 354t351 148q86 0 169 -42t126 -112v129h223zM862 477q0 127 -78 215t-203 88q-124 0 -202 -88t-78 -215t78 -215t202 -88q125 0 203 88t78 215z" />
    <glyph glyph-name="Gdotaccent" unicode="&#x120;" horiz-adv-x="1716" 
d="M651 1773q0 69 48 117t117 47q69 0 117 -48q48 -49 48 -117t-48 -116t-117 -48t-117 48t-48 117zM989 508v211h682v-211h-158q-49 -250 -229 -396t-469 -147q-170 1 -312 63q-141 62 -233 168q-192 221 -192 521q0 197 88 367t259 277t405 107t406 -135
q173 -135 189 -329h-237q-18 110 -122 182t-251 71q-221 1 -358 -159t-137 -383t136 -381q138 -158 390 -158q174 0 284 95t134 237h-275z" />
    <glyph glyph-name="gdotaccent" unicode="&#x121;" horiz-adv-x="1228" 
d="M717 1256q0 -68 -48 -116t-117 -48t-117 48t-48 116q0 69 48 117t117 48t117 -48t48 -117zM1085 954v-1001q0 -455 -510 -455q-223 0 -347 115t-134 278h225q10 -84 76 -139t180 -55q287 0 287 256v176q-43 -70 -126 -112t-169 -42q-213 -1 -351 147t-138 355t138 354
t351 148q86 0 169 -42t126 -112v129h223zM862 477q0 127 -78 215t-203 88q-124 0 -202 -88t-78 -215t78 -215t202 -88q125 0 203 88t78 215z" />
    <glyph glyph-name="Gcommaaccent" unicode="&#x122;" horiz-adv-x="1716" 
d="M684 -190q0 55 39 94t99 39t101 -47q42 -47 42 -123q0 -145 -70 -209t-205 -66v84q78 0 117 31t43 76q-10 -11 -52 -11t-78 38t-36 94zM989 508v211h682v-211h-158q-49 -250 -229 -396t-469 -147q-170 1 -312 63q-141 62 -233 168q-192 221 -192 521q0 197 88 367
t259 277t405 107t406 -135q173 -135 189 -329h-237q-18 110 -122 182t-251 71q-221 1 -358 -159t-137 -383t136 -381q138 -158 390 -158q174 0 284 95t134 237h-275z" />
    <glyph glyph-name="gcommaaccent" unicode="&#x123;" horiz-adv-x="1228" 
d="M721 1255q0 -67 -46 -113t-119 -46t-121 56t-48 146q0 174 82 250t244 78v-100q-94 0 -142 -41q-41 -31 -49 -86q10 10 41 10q72 0 115 -44t43 -110zM581 174q125 0 203 88t78 215t-79 215t-203 88t-201 -88q-78 -88 -78 -215t78 -215t202 -88zM1085 954v-1001
q0 -455 -510 -455q-223 0 -347 115t-134 278h225q10 -84 76 -139t180 -55q287 0 287 256v176q-43 -70 -126 -112t-169 -42q-213 -1 -351 147t-138 355t138 354t351 148q86 0 169 -42t126 -112v129h223z" />
    <glyph glyph-name="Hcircumflex" unicode="&#x124;" horiz-adv-x="1361" 
d="M311 1696l369 297l369 -297l-140 -156l-229 184l-227 -182zM977 0v606h-592v-606h-235v1434h235v-617h592v617h235v-1434h-235z" />
    <glyph glyph-name="hcircumflex" unicode="&#x125;" horiz-adv-x="1165" 
d="M264 1696l369 297l368 -297l-139 -156l-229 184l-227 -182zM150 0v1434h223v-613q92 158 302 158t296 -129q61 -94 61 -283v-567h-223v494q0 289 -207 288q-113 0 -171 -80t-58 -208v-494h-223z" />
    <glyph glyph-name="Hbar" unicode="&#x126;" horiz-adv-x="1361" 
d="M150 1434h235v-220h592v220h235v-1434h-235v606h-592v-606h-235v1434zM977 817v199h-592v-199h592z" />
    <glyph glyph-name="hbar" unicode="&#x127;" horiz-adv-x="1165" 
d="M733 1257v-198h-360v-238q92 158 302 158t296 -129q61 -94 61 -283v-567h-223v494q0 289 -207 288q-113 0 -171 -80t-58 -208v-494h-223v1059h-150v198h150v177h223v-177h360z" />
    <glyph glyph-name="Itilde" unicode="&#x128;" horiz-adv-x="542" 
d="M106 1860q29 0 146 -28q118 -28 156 -28t151 56l88 -142q-111 -92 -223 -92q-30 0 -146 27t-150 27t-136 -44l-96 146q121 78 210 78zM150 0v1434h243v-1434h-243z" />
    <glyph glyph-name="itilde" unicode="&#x129;" horiz-adv-x="612" 
d="M141 1374q29 0 146 -28t155 -27q38 0 152 55l88 -141q-111 -92 -223 -92q-31 1 -147 27t-150 26t-135 -43l-97 145q121 78 211 78zM195 0v954h223v-954h-223z" />
    <glyph glyph-name="Imacron" unicode="&#x12a;" horiz-adv-x="542" 
d="M639 1843v-198h-733v198h733zM150 0v1434h243v-1434h-243z" />
    <glyph glyph-name="imacron" unicode="&#x12b;" horiz-adv-x="612" 
d="M674 1356v-199h-733v199h733zM197 0v954h223v-954h-223z" />
    <glyph glyph-name="Ibreve" unicode="&#x12c;" horiz-adv-x="542" 
d="M272 1722q154 0 203 121h211q-14 -133 -136 -226t-277 -93t-273 92t-141 227h209q50 -121 204 -121zM150 0v1434h243v-1434h-243z" />
    <glyph glyph-name="ibreve" unicode="&#x12d;" horiz-adv-x="612" 
d="M307 1313q154 0 203 121h211q-14 -132 -136 -226t-277 -94t-273 92t-141 228h208q51 -121 205 -121zM197 0v954h223v-954h-223z" />
    <glyph glyph-name="Iogonek" unicode="&#x12e;" horiz-adv-x="542" 
d="M393 0h-78q-35 -25 -55 -41t-40 -49t-19 -74q-1 -41 25 -73q50 -62 184 -7v-159q-92 -31 -196 -31t-165 56t-61 142q0 119 162 236v1434h243v-1434z" />
    <glyph glyph-name="iogonek" unicode="&#x12f;" horiz-adv-x="612" 
d="M359 1139q-69 0 -117 48t-47 117q0 68 48 116q49 48 117 48t116 -48t48 -116t-48 -117q-48 -48 -117 -48zM312 -434q-104 0 -165 56t-61 142q0 119 162 236v954h223v-954h-57q-36 -25 -56 -41t-40 -49t-19 -74q0 -41 26 -73t76 -32t107 25v-159q-92 -31 -196 -31z" />
    <glyph glyph-name="Idotaccent" unicode="&#x130;" horiz-adv-x="542" 
d="M271 1608q-69 0 -117 48t-48 117t48 117t118 47q68 0 116 -48q48 -49 48 -117t-48 -116t-117 -48zM150 0v1434h243v-1434h-243z" />
    <glyph glyph-name="dotlessi" unicode="&#x131;" horiz-adv-x="487" 
d="M133 0v954h223v-954h-223z" />
    <glyph glyph-name="Jcircumflex" unicode="&#x134;" horiz-adv-x="1097" 
d="M471 1694l369 297l368 -297l-139 -156l-229 184l-228 -182zM958 1434v-969q0 -217 -124 -359q-124 -141 -342 -141q-218 1 -342 143t-125 359h235q0 -133 58 -212t171 -79t174 79q60 79 60 210v969h235z" />
    <glyph glyph-name="jcircumflex" unicode="&#x135;" horiz-adv-x="604" 
d="M-59 1329l368 297l369 -297l-139 -155l-230 184l-227 -182zM414 -223q0 -277 -216 -277q-100 0 -157 23v184q51 -12 78 -12q72 0 71 96v1163h224v-1177z" />
    <glyph glyph-name="Kcommaaccent" unicode="&#x136;" horiz-adv-x="1243" 
d="M496 -168q0 55 39 94t99 39t100 -47q42 -47 42 -123q0 -145 -69 -209q-70 -63 -205 -65v84q78 0 117 31t43 75q-10 -10 -35 -10q-59 0 -96 38q-35 38 -35 93zM385 0h-235v1434h235v-631l533 631h294l-606 -717l606 -717h-294l-533 629v-629z" />
    <glyph glyph-name="kcommaaccent" unicode="&#x137;" horiz-adv-x="1021" 
d="M373 -168q0 55 39 94q38 39 98 39t102 -47t41 -123q0 -145 -69 -209q-70 -63 -205 -65v84q78 0 117 31t43 75q-10 -10 -35 -10q-59 0 -95 38t-36 93zM373 0h-223v1434h223v-902l350 422h278l-397 -477l397 -477h-278l-350 420v-420z" />
    <glyph glyph-name="kgreenlandic" unicode="&#x138;" horiz-adv-x="1021" 
d="M373 0h-223v954h223v-422l350 422h278l-397 -477l397 -477h-278l-350 420v-420z" />
    <glyph glyph-name="Lacute" unicode="&#x139;" horiz-adv-x="878" 
d="M582 1815l-510 -281l-107 174l510 281zM385 211h442v-211h-677v1434h235v-1223z" />
    <glyph glyph-name="lacute" unicode="&#x13a;" horiz-adv-x="522" 
d="M569 1819l-510 -281l-106 174l510 281zM150 0v1434h223v-1434h-223z" />
    <glyph glyph-name="Lcommaaccent" unicode="&#x13b;" horiz-adv-x="878" 
d="M299 -168q0 55 39 94q38 39 98 39t102 -47t42 -123q0 -145 -70 -209t-205 -65v84q78 0 117 31t43 75q-10 -10 -35 -10q-59 0 -95 38t-36 93zM150 0v1434h235v-1223h442v-211h-677z" />
    <glyph glyph-name="lcommaaccent" unicode="&#x13c;" horiz-adv-x="522" 
d="M121 -168q0 55 39 94q38 39 98 39t102 -47t41 -123q0 -145 -69 -209q-70 -63 -205 -65v84q78 0 117 31t43 75q-10 -10 -35 -10q-59 0 -95 38t-36 93zM150 0v1434h223v-1434h-223z" />
    <glyph glyph-name="Lcaron" unicode="&#x13d;" horiz-adv-x="878" 
d="M262 1538l-325 297l118 156l207 -197l209 197l121 -156zM385 211h442v-211h-677v1434h235v-1223z" />
    <glyph glyph-name="lcaron" unicode="&#x13e;" horiz-adv-x="825" 
d="M492 1356q0 66 46 112t118 48q72 0 121 -56q48 -56 48 -147q0 -174 -82 -250t-243 -78v100q94 0 141 41q43 33 49 86q-10 -10 -41 -10q-73 0 -115 44t-42 110zM150 0v1434h223v-1434h-223z" />
    <glyph glyph-name="Ldot" unicode="&#x13f;" horiz-adv-x="878" 
d="M549 640q0 69 48 117t117 48q68 0 116 -48t48 -117t-48 -117t-116 -48t-117 48q-48 48 -48 117zM385 211h442v-211h-677v1434h235v-1223z" />
    <glyph glyph-name="ldot" unicode="&#x140;" horiz-adv-x="741" 
d="M576 475q-68 0 -116 48t-48 117t48 117t116 48t117 -48q48 -48 48 -117t-48 -117t-117 -48zM150 0v1434h223v-1434h-223z" />
    <glyph glyph-name="Lslash" unicode="&#x141;" horiz-adv-x="878" 
d="M385 211h442v-211h-677v522l-91 -37v213l91 37v699h235v-603l342 144v-213l-342 -144v-407z" />
    <glyph glyph-name="lslash" unicode="&#x142;" horiz-adv-x="522" 
d="M150 0v557l-136 -72v213l136 72v664h243v-535l142 76v-213l-142 -76v-686h-243z" />
    <glyph glyph-name="Nacute" unicode="&#x143;" horiz-adv-x="1359" 
d="M987 1815l-510 -281l-106 174l510 281zM975 1434h235v-1434h-258l-567 1020v-1020h-235v1434h258l567 -1020v1020z" />
    <glyph glyph-name="nacute" unicode="&#x144;" horiz-adv-x="1165" 
d="M891 1294l-510 -280l-107 174l510 280zM150 0v954h223v-133q92 158 302 158t296 -129q61 -94 61 -283v-567h-223v494q0 289 -207 288q-113 0 -171 -80t-58 -208v-494h-223z" />
    <glyph glyph-name="Ncommaaccent" unicode="&#x145;" horiz-adv-x="1359" 
d="M539 -168q0 55 39 94q38 39 98 39t102 -47t41 -123q0 -145 -69 -209q-70 -63 -205 -65v84q78 0 117 31t43 75q-10 -10 -35 -10q-59 0 -96 38q-35 38 -35 93zM1210 0h-258l-567 1020v-1020h-235v1434h258l567 -1020v1020h235v-1434z" />
    <glyph glyph-name="ncommaaccent" unicode="&#x146;" horiz-adv-x="1165" 
d="M473 -168q0 55 39 94q38 39 98 39t102 -47t42 -123q0 -145 -70 -209t-205 -65v84q78 0 117 31t43 75q-10 -10 -35 -10q-59 0 -95 38t-36 93zM373 0h-223v954h223v-133q92 158 302 158t296 -129q61 -94 61 -283v-567h-223v494q0 289 -207 288q-113 0 -171 -80t-58 -208
v-494z" />
    <glyph glyph-name="Ncaron" unicode="&#x147;" horiz-adv-x="1359" 
d="M678 1538l-326 297l119 156l207 -197l209 197l121 -156zM975 1434h235v-1434h-258l-567 1020v-1020h-235v1434h258l567 -1020v1020z" />
    <glyph glyph-name="ncaron" unicode="&#x148;" horiz-adv-x="1165" 
d="M610 1171l-325 297l118 156l207 -197l209 197l121 -156zM373 0h-223v954h223v-133q92 158 302 158t296 -129q61 -94 61 -283v-567h-223v494q0 289 -207 288q-113 0 -171 -80t-58 -208v-494z" />
    <glyph glyph-name="napostrophe" unicode="&#x149;" horiz-adv-x="1165" 
d="M119 1376q0 55 39 94q38 39 98 39t102 -47t41 -123q0 -145 -69 -209q-70 -63 -205 -65v84q74 0 121 33q35 29 39 73q-10 -10 -35 -10q-59 0 -95 38t-36 93zM373 0h-223v954h223v-133q92 158 302 158t296 -129q61 -94 61 -283v-567h-223v494q0 289 -207 288
q-113 0 -171 -80t-58 -208v-494z" />
    <glyph glyph-name="Eng" unicode="&#x14a;" horiz-adv-x="1359" 
d="M975 1434h235v-1436q0 -217 -125 -358q-125 -142 -335 -142t-349 164l154 148q37 -38 55 -54t54 -31t77 -16q113 0 173 79t61 210l-590 1022v-1020h-235v1434h235l590 -1020v1020z" />
    <glyph glyph-name="eng" unicode="&#x14b;" horiz-adv-x="1165" 
d="M809 -31v525q0 289 -207 288q-113 0 -171 -80t-58 -208v-494h-223v954h223v-133q92 158 302 158t296 -129q61 -94 61 -283v-598q0 -205 -118 -338t-316 -133t-330 156l146 139q37 -37 54 -51q52 -43 122 -43q106 0 163 74q56 74 56 196z" />
    <glyph glyph-name="Omacron" unicode="&#x14c;" horiz-adv-x="1638" 
d="M1186 1843v-198h-733v198h733zM819 176q221 0 358 161q136 161 136 380t-136 380q-135 161 -357 161t-358 -162q-136 -160 -136 -379t136 -380t357 -161zM819 -35q-333 0 -537 223q-204 222 -204 528t205 529t537 223t536 -223q205 -223 205 -528t-205 -529t-537 -223z
" />
    <glyph glyph-name="omacron" unicode="&#x14d;" horiz-adv-x="1163" 
d="M948 1356v-199h-733v199h733zM581 174q125 0 203 88t78 215t-79 215t-203 88t-201 -88q-78 -88 -78 -215t78 -215t202 -88zM1085 478q0 -210 -140 -356t-363 -147q-224 1 -364 147t-140 355t140 355t364 147q224 0 363 -146q140 -145 140 -355z" />
    <glyph glyph-name="Obreve" unicode="&#x14e;" horiz-adv-x="1638" 
d="M819 1720q154 0 203 121h211q-14 -133 -136 -226t-277 -93t-273 92t-141 227h208q51 -121 205 -121zM819 176q221 0 358 161q136 161 136 380t-136 380q-135 161 -357 161t-358 -162q-136 -160 -136 -379t136 -380t357 -161zM819 -35q-333 0 -537 223q-204 222 -204 528
t205 529t537 223t536 -223q205 -223 205 -528t-205 -529t-537 -223z" />
    <glyph glyph-name="obreve" unicode="&#x14f;" horiz-adv-x="1163" 
d="M582 1313q154 0 202 121h211q-14 -132 -136 -226q-123 -94 -277 -94t-273 92q-118 93 -141 228h209q51 -121 205 -121zM581 174q125 0 203 88t78 215t-79 215t-203 88t-201 -88q-78 -88 -78 -215t78 -215t202 -88zM1085 478q0 -210 -140 -356t-363 -147q-224 1 -364 147
t-140 355t140 355t364 147q224 0 363 -146q140 -145 140 -355z" />
    <glyph glyph-name="Ohungarumlaut" unicode="&#x150;" horiz-adv-x="1638" 
d="M449 1642l256 340l196 -98l-346 -299zM848 1642l256 340l196 -98l-346 -299zM819 176q221 0 358 161q136 161 136 380t-136 380q-135 161 -357 161t-358 -162q-136 -160 -136 -379t136 -380t357 -161zM819 -35q-333 0 -537 223q-204 222 -204 528t205 529t537 223
t536 -223q205 -223 205 -528t-205 -529t-537 -223z" />
    <glyph glyph-name="ohungarumlaut" unicode="&#x151;" horiz-adv-x="1163" 
d="M1090 1405l-347 -299l-106 57l256 340zM301 477q0 -127 78 -215t202 -88q125 0 203 88t78 215t-79 215t-203 88t-201 -88q-78 -88 -78 -215zM344 1106l-106 57l256 340l196 -98zM1085 478q0 -210 -140 -356t-363 -147q-224 1 -364 147t-140 355t140 355t364 147
q224 0 363 -146q140 -145 140 -355z" />
    <glyph glyph-name="OE" unicode="&#x152;" horiz-adv-x="2281" 
d="M819 172q221 0 358 161q136 161 136 380t-136 380q-135 161 -357 161t-358 -162q-136 -160 -136 -379t136 -380t357 -161zM2142 1223h-592v-406h592v-211h-592v-395h592v-211h-827v145q-197 -184 -513 -184t-520 223q-204 222 -204 528t205 529t536 223q295 0 496 -184
v154h827v-211z" />
    <glyph glyph-name="oe" unicode="&#x153;" horiz-adv-x="1867" 
d="M581 174q125 0 203 86t78 216t-79 217t-203 87t-201 -88q-78 -88 -78 -215t78 -215t202 -88zM1327 793q-102 1 -169 -57t-66 -161h467q0 98 -65 158t-167 60zM590 -25q-232 1 -372 147t-140 355t140 355t370 147q230 0 375 -168q129 168 370 168q187 0 315 -124t128 -306
q-1 -78 -11 -139h-675q2 -113 62 -181t187 -67q150 0 203 125h225q-25 -131 -139 -221t-289 -91q-244 0 -372 170q-145 -170 -377 -170z" />
    <glyph glyph-name="Racute" unicode="&#x154;" horiz-adv-x="1247" 
d="M932 1815l-510 -281l-107 174l510 281zM664 641q122 0 196 85t74 206t-75 206t-195 85h-279v-582h279zM150 0v1434h514q225 0 365 -146t140 -356q-1 -156 -81 -282t-222 -183l285 -467h-268l-262 430h-236v-430h-235z" />
    <glyph glyph-name="racute" unicode="&#x155;" horiz-adv-x="774" 
d="M696 1335l-510 -280l-106 174l510 280zM668 758q-295 0 -295 -346v-412h-223v954h223v-153q33 68 117 117q84 48 158 48q73 0 108 -14v-204q-43 10 -88 10z" />
    <glyph glyph-name="Rcommaaccent" unicode="&#x156;" horiz-adv-x="1247" 
d="M483 -168q0 55 39 94q38 39 98 39t102 -47t42 -123q0 -145 -70 -209t-205 -65v84q147 0 160 106q-10 -10 -35 -10q-59 0 -95 38t-36 93zM664 1223h-279v-582h279q122 0 196 85t74 206t-74 206t-196 85zM150 0v1434h514q225 0 365 -146t140 -356q-1 -156 -81 -282
t-222 -183l285 -467h-268l-262 430h-236v-430h-235z" />
    <glyph glyph-name="rcommaaccent" unicode="&#x157;" horiz-adv-x="774" 
d="M121 -168q0 55 39 94q38 39 98 39t102 -47t41 -123q0 -145 -69 -209q-70 -63 -205 -65v84q78 0 117 31t43 75q-10 -10 -35 -10q-59 0 -95 38t-36 93zM668 758q-295 0 -295 -346v-412h-223v954h223v-153q33 68 117 117q84 48 158 48q73 0 108 -14v-204q-43 10 -88 10z" />
    <glyph glyph-name="Rcaron" unicode="&#x158;" horiz-adv-x="1247" 
d="M580 1542l-326 297l119 156l207 -197l208 197l121 -156zM664 641q122 0 196 85t74 206t-75 206t-195 85h-279v-582h279zM150 0v1434h514q225 0 365 -146t140 -356q-1 -156 -81 -282t-222 -183l285 -467h-268l-262 430h-236v-430h-235z" />
    <glyph glyph-name="rcaron" unicode="&#x159;" horiz-adv-x="774" 
d="M416 1044l-326 297l119 156l207 -197l209 197l120 -156zM668 758q-295 0 -295 -346v-412h-223v954h223v-153q33 68 117 117q84 48 158 48q73 0 108 -14v-204q-43 10 -88 10z" />
    <glyph glyph-name="Sacute" unicode="&#x15a;" horiz-adv-x="1165" 
d="M891 1815l-510 -281l-107 174l510 281zM86 469h236q0 -137 76 -215t190 -78q112 0 180 60t68 157q0 98 -79 152q-53 36 -150 71q-308 112 -390 209q-82 98 -82 261t130 273q130 109 321 109q190 0 320 -126t130 -322h-235q-1 106 -59 172t-153 66t-157 -49
q-62 -48 -61 -131q0 -83 56 -131q57 -48 151 -82t141 -52t127 -61t120 -84t72 -107t33 -145q0 -213 -140 -332t-348 -119t-353 136q-144 137 -144 368z" />
    <glyph glyph-name="sacute" unicode="&#x15b;" horiz-adv-x="929" 
d="M774 1294l-510 -280l-106 174l510 280zM464 -25q-164 1 -277 93q-114 92 -113 254h217q0 -170 184 -170q156 0 156 110q0 62 -75 92l-55 22q-26 9 -76 26q-199 68 -258 128q-61 60 -61 180t102 195q102 74 257 74q154 0 259 -92t105 -232h-217q0 147 -153 148
q-59 0 -99 -28t-38 -80q0 -52 66 -83q30 -13 137 -52t149 -58q41 -20 86 -52q82 -58 83 -192q1 -133 -107 -208t-272 -75z" />
    <glyph glyph-name="Scircumflex" unicode="&#x15c;" horiz-adv-x="1165" 
d="M213 1696l369 297l368 -297l-139 -156l-229 184l-228 -182zM86 469h236q0 -137 76 -215t190 -78q112 0 180 60t68 157q0 98 -79 152q-53 36 -150 71q-308 112 -390 209q-82 98 -82 261t130 273q130 109 321 109q190 0 320 -126t130 -322h-235q-1 106 -59 172t-153 66
t-157 -49q-62 -48 -61 -131q0 -83 56 -131q57 -48 151 -82t141 -52t127 -61t120 -84t72 -107t33 -145q0 -213 -140 -332t-348 -119t-353 136q-144 137 -144 368z" />
    <glyph glyph-name="scircumflex" unicode="&#x15d;" horiz-adv-x="929" 
d="M96 1212l369 297l369 -297l-140 -155l-229 184l-227 -182zM464 -25q-164 1 -277 93q-114 92 -113 254h217q0 -170 184 -170q156 0 156 110q0 62 -75 92l-55 22q-26 9 -76 26q-199 68 -258 128q-61 60 -61 180t102 195q102 74 257 74q154 0 259 -92t105 -232h-217
q0 147 -153 148q-59 0 -99 -28t-38 -80q0 -52 66 -83q30 -13 137 -52t149 -58q41 -20 86 -52q82 -58 83 -192q1 -133 -107 -208t-272 -75z" />
    <glyph glyph-name="Scedilla" unicode="&#x15e;" horiz-adv-x="1165" 
d="M510 -242v211q-182 25 -303 157t-121 343h236q0 -137 76 -215t190 -78q112 0 180 60t68 157q0 98 -79 152q-53 36 -150 71q-308 112 -390 209q-82 98 -82 261t130 273q130 109 321 109q190 0 320 -126t130 -322h-235q-1 106 -59 172t-153 66t-157 -49q-62 -48 -61 -131
q0 -83 56 -131q57 -48 151 -82t141 -52t127 -61t120 -84t72 -107t33 -145q0 -193 -117 -310t-301 -137v-100q27 27 81 27t106 -48t51 -128q0 -79 -55 -139t-154 -60q-31 0 -65 7q-35 7 -83 50t-59 119h131q18 -61 76 -62q34 0 56 23q22 24 22 60t-22 56t-60 21
q-38 0 -57 -37h-111z" />
    <glyph glyph-name="scedilla" unicode="&#x15f;" horiz-adv-x="929" 
d="M377 -242v226q-133 22 -218 110t-85 228h217q0 -170 184 -170q156 0 156 110q0 62 -75 92l-55 22q-26 9 -76 26q-199 68 -258 128q-61 60 -61 180t102 195q102 74 257 74q154 0 259 -92t105 -232h-217q0 147 -153 148q-59 0 -99 -28t-38 -80q0 -52 66 -83q30 -13 137 -52
t149 -58q41 -20 86 -52q82 -58 83 -186t-88 -200t-235 -84v-111q27 27 81 27q53 0 105 -48t52 -128q0 -79 -56 -139t-153 -60q-31 0 -65 7t-83 50t-59 119h131q18 -61 76 -62q35 0 57 23q22 24 21 60q0 36 -22 56q-21 20 -59 21q-38 0 -59 -37h-110z" />
    <glyph glyph-name="Scaron" unicode="&#x160;" horiz-adv-x="1165" 
d="M586 1565l-326 297l119 155l207 -196l209 196l120 -155zM86 469h236q0 -137 76 -215t190 -78q112 0 180 60t68 157q0 98 -79 152q-53 36 -150 71q-308 112 -390 209q-82 98 -82 261t132 273q132 109 323 109q190 0 318 -125t128 -323h-235q-1 106 -59 172t-153 66
t-157 -49q-62 -48 -61 -131q0 -83 56 -131q57 -48 151 -82t141 -52t127 -61t120 -84t72 -107t33 -145q0 -213 -140 -332t-348 -119t-353 136q-144 137 -144 368z" />
    <glyph glyph-name="scaron" unicode="&#x161;" horiz-adv-x="929" 
d="M465 1044l-326 297l119 156l207 -197l209 197l121 -156zM464 -25q-164 1 -277 93q-114 92 -113 254h217q0 -170 184 -170q156 0 156 110q0 62 -75 92l-55 22q-26 9 -76 26q-199 68 -258 128q-61 60 -61 180t102 195q102 74 257 74q154 0 259 -92t105 -232h-217
q0 147 -153 148q-59 0 -99 -28t-38 -80q0 -52 66 -83q30 -13 137 -52t149 -58q41 -20 86 -52q82 -58 83 -192q1 -133 -107 -208t-272 -75z" />
    <glyph glyph-name="Tcommaaccent" unicode="&#x162;" horiz-adv-x="987" 
d="M360 -168q0 55 39 94t99 39t102 -47t41 -123q0 -145 -70 -209t-204 -65v84q147 0 159 106q-10 -10 -34 -10q-59 0 -96 38q-36 38 -36 93zM375 0v1223h-355v211h947v-211h-357v-1223h-235z" />
    <glyph glyph-name="tcommaaccent" unicode="&#x163;" horiz-adv-x="718" 
d="M219 -168q0 55 39 94q38 39 98 39t102 -47t42 -123q0 -145 -70 -209t-205 -65v84q78 0 117 31t43 75q-10 -10 -35 -10q-59 0 -95 38t-36 93zM41 768v186h162v289h223v-289h219v-186h-219v-393q0 -115 33 -151t103 -36t116 9v-197q-70 -12 -146 -12t-116 8q-41 8 -97 38
q-118 64 -116 290v444h-162z" />
    <glyph glyph-name="Tcaron" unicode="&#x164;" horiz-adv-x="987" 
d="M492 1542l-326 297l119 156l207 -197l208 197l121 -156zM375 0v1223h-355v211h947v-211h-357v-1223h-235z" />
    <glyph glyph-name="tcaron" unicode="&#x165;" horiz-adv-x="1155" 
d="M688 1309q0 67 46 113t119 46t121 -56t48 -146q0 -174 -82 -250t-244 -78v100q94 0 142 41q43 33 49 86q-10 -10 -41 -10q-72 0 -115 44t-43 110zM41 768v186h162v289h223v-289h219v-186h-219v-393q0 -115 33 -151t103 -36t116 9v-197q-70 -12 -146 -12t-116 8
q-41 8 -97 38q-118 64 -116 290v444h-162z" />
    <glyph glyph-name="Tbar" unicode="&#x166;" horiz-adv-x="987" 
d="M860 1024v-199h-250v-825h-235v825h-248v199h248v199h-355v211h947v-211h-357v-199h250z" />
    <glyph glyph-name="tbar" unicode="&#x167;" horiz-adv-x="718" 
d="M532 -12q-76 0 -116 8q-41 8 -97 38q-118 64 -116 290v69h-162v189h162v186h-162v186h162v289h223v-289h219v-186h-219v-186h219v-189h-219v-18q0 -115 33 -151q52 -57 219 -27v-197q-70 -12 -146 -12z" />
    <glyph glyph-name="Utilde" unicode="&#x168;" horiz-adv-x="1310" 
d="M489 1860q29 0 146 -28t155 -28t152 56l88 -142q-111 -92 -223 -92q-31 0 -147 27t-150 27t-135 -44l-96 146q121 78 210 78zM139 479v955h236v-955q0 -127 78 -215q77 -88 201 -88t203 88t79 215v955h235v-955q0 -215 -143 -365q-142 -150 -372 -149q-230 -1 -374 149
t-143 365z" />
    <glyph glyph-name="utilde" unicode="&#x169;" horiz-adv-x="1165" 
d="M418 1372q30 0 146 -28t155 -27q39 0 151 55l88 -141q-111 -92 -223 -92q-31 1 -147 27t-149 26q-34 0 -136 -43l-96 145q121 78 211 78zM1016 954v-954h-223v133q-93 -158 -303 -158t-295 129q-61 94 -62 283v567h223v-493q0 -289 207 -289q113 0 171 80t59 209v493h223
z" />
    <glyph glyph-name="Umacron" unicode="&#x16a;" horiz-adv-x="1310" 
d="M1022 1843v-198h-733v198h733zM139 479v955h236v-955q0 -127 78 -215q77 -88 201 -88t203 88t79 215v955h235v-955q0 -215 -143 -365q-142 -150 -372 -149q-230 -1 -374 149t-143 365z" />
    <glyph glyph-name="umacron" unicode="&#x16b;" horiz-adv-x="1165" 
d="M948 1356v-199h-733v199h733zM1016 954v-954h-223v133q-93 -158 -303 -158t-295 129q-61 94 -62 283v567h223v-493q0 -289 207 -289q113 0 171 80t59 209v493h223z" />
    <glyph glyph-name="Ubreve" unicode="&#x16c;" horiz-adv-x="1310" 
d="M656 1726q154 0 202 121h211q-14 -133 -136 -226t-277 -93t-273 92t-141 227h209q51 -121 205 -121zM139 479v955h236v-955q0 -127 78 -215q77 -88 201 -88t203 88t79 215v955h235v-955q0 -215 -143 -365q-142 -150 -372 -149q-230 -1 -374 149t-143 365z" />
    <glyph glyph-name="ubreve" unicode="&#x16d;" horiz-adv-x="1165" 
d="M582 1313q154 0 202 121h211q-14 -132 -136 -226q-123 -94 -277 -94t-273 92q-118 93 -141 228h209q51 -121 205 -121zM1016 954v-954h-223v133q-93 -158 -303 -158t-295 129q-61 94 -62 283v567h223v-493q0 -289 207 -289q113 0 171 80t59 209v493h223z" />
    <glyph glyph-name="Uring" unicode="&#x16e;" horiz-adv-x="1310" 
d="M656 1839q-38 0 -64 -28q-26 -27 -27 -63q0 -36 27 -62q28 -26 64 -27q36 0 63 27q27 28 27 64t-26 62t-64 27zM655 1999q105 0 179 -75t74 -177t-74 -177t-178 -75t-179 75q-74 75 -74 178t74 177t178 74zM139 479v955h236v-955q0 -127 78 -215q77 -88 201 -88t203 88
t79 215v955h235v-955q0 -215 -143 -365q-142 -150 -372 -149q-230 -1 -374 149t-143 365z" />
    <glyph glyph-name="uring" unicode="&#x16f;" horiz-adv-x="1165" 
d="M662 1296q0 36 -26 64q-26 26 -64 26t-64 -28t-27 -63q0 -37 27 -63q28 -26 64 -26t63 27t27 63zM571 1546q105 0 179 -75t74 -177t-74 -177t-178 -75t-179 75q-74 75 -74 178t74 177t178 74zM1016 954v-954h-223v133q-93 -158 -303 -158t-295 129q-61 94 -62 283v567
h223v-493q0 -289 207 -289q113 0 171 80t59 209v493h223z" />
    <glyph glyph-name="Uhungarumlaut" unicode="&#x170;" horiz-adv-x="1310" 
d="M315 1642l256 340l197 -98l-346 -299zM715 1642l256 340l196 -98l-346 -299zM139 479v955h236v-955q0 -127 78 -215q77 -88 201 -88t203 88t79 215v955h235v-955q0 -215 -143 -365q-142 -150 -372 -149q-230 -1 -374 149t-143 365z" />
    <glyph glyph-name="uhungarumlaut" unicode="&#x171;" horiz-adv-x="1165" 
d="M1071 1358l-346 -299l-107 57l256 340zM672 1358l-346 -299l-107 57l256 340zM793 954h223v-954h-223v133q-93 -158 -303 -158t-295 129q-61 94 -62 283v567h223v-493q0 -289 207 -289q113 0 171 80t59 209v493z" />
    <glyph glyph-name="Uogonek" unicode="&#x172;" horiz-adv-x="1310" 
d="M654 -434q-104 0 -165 56t-61 142q0 109 127 209q-188 31 -302 174t-114 332v955h236v-955q0 -127 78 -215q77 -88 201 -88t203 88t79 215v955h235v-955q1 -199 -125 -344t-333 -166q-72 -57 -72 -129q0 -45 26 -77t75 -32t108 25v-159q-92 -31 -196 -31z" />
    <glyph glyph-name="uogonek" unicode="&#x173;" horiz-adv-x="1165" 
d="M857 -434q-104 0 -165 56t-61 142q0 119 162 236v133q-93 -158 -303 -158t-295 129q-61 94 -62 283v567h223v-493q0 -289 207 -289q113 0 171 80t59 209v493h223v-954h-58q-35 -25 -55 -41q-19 -16 -39 -49t-20 -74t26 -73t76 -32t107 25v-159q-92 -31 -196 -31z" />
    <glyph glyph-name="Wcircumflex" unicode="&#x174;" horiz-adv-x="2013" 
d="M637 1696l369 297l368 -297l-139 -156l-229 184l-228 -182zM1337 0l-329 1022l-332 -1022h-170l-496 1434h248l330 -1022l332 1022h174l331 -1022l330 1022h248l-496 -1434h-170z" />
    <glyph glyph-name="wcircumflex" unicode="&#x175;" horiz-adv-x="1542" 
d="M401 1212l369 297l369 -297l-140 -155l-229 184l-227 -182zM1022 0l-250 713l-252 -713h-149l-371 954h240l206 -604l216 604h219l215 -604l207 604h239l-371 -954h-149z" />
    <glyph glyph-name="Ycircumflex" unicode="&#x176;" horiz-adv-x="1232" 
d="M248 1696l368 297l369 -297l-139 -156l-230 184l-227 -182zM1243 1434l-711 -1434h-258l285 573l-536 861h272l383 -617l307 617h258z" />
    <glyph glyph-name="ycircumflex" unicode="&#x177;" horiz-adv-x="1183" 
d="M223 1212l369 297l369 -297l-140 -155l-229 184l-227 -182zM549 -502q-180 0 -297 116t-119 277h217q2 -86 60 -140t174 -54q117 0 175 60t58 198v178q-92 -158 -302 -158t-296 129q-61 94 -61 283v567h223v-493q0 -289 207 -289q113 0 171 80t58 209v493h223v-999
q0 -237 -124 -347t-367 -110z" />
    <glyph glyph-name="Ydieresis" unicode="&#x178;" horiz-adv-x="1232" 
d="M442 1595q-66 1 -110 47t-45 110q0 64 45 111q44 46 110 46t112 -46t46 -112t-46 -111t-112 -45zM912 1595q-64 1 -110 47t-46 110t45 111q45 46 111 46t111 -46q46 -46 46 -112t-46 -111q-47 -45 -111 -45zM1243 1434l-711 -1434h-258l285 573l-536 861h272l383 -617
l307 617h258z" />
    <glyph glyph-name="Zacute" unicode="&#x179;" horiz-adv-x="1181" 
d="M899 1815l-510 -281l-106 174l510 281zM70 1223v211h1091l-743 -1223h739v-211h-1130l743 1223h-700z" />
    <glyph glyph-name="zacute" unicode="&#x17a;" horiz-adv-x="897" 
d="M758 1292l-510 -280l-107 174l510 280zM57 954h811l-450 -755h450v-199h-823l453 756h-441v198z" />
    <glyph glyph-name="Zdotaccent" unicode="&#x17b;" horiz-adv-x="1181" 
d="M426 1773q0 69 48 117t117 47q69 0 117 -48q48 -49 48 -117t-48 -116t-117 -48t-117 48t-48 117zM70 1223v211h1091l-743 -1223h739v-211h-1130l743 1223h-700z" />
    <glyph glyph-name="zdotaccent" unicode="&#x17c;" horiz-adv-x="897" 
d="M450 1421q68 0 116 -48t48 -117q0 -68 -48 -116t-116 -48t-117 48q-48 48 -48 116q0 69 48 117t117 48zM57 954h811l-450 -755h450v-199h-823l453 756h-441v198z" />
    <glyph glyph-name="Zcaron" unicode="&#x17d;" horiz-adv-x="1181" 
d="M70 1223v211h1091l-743 -1223h739v-211h-1130l743 1223h-700zM588 1497l-326 297l119 156l207 -197l209 197l121 -156z" />
    <glyph glyph-name="zcaron" unicode="&#x17e;" horiz-adv-x="897" 
d="M57 954h811l-450 -755h450v-199h-823l453 756h-441v198zM467 1016l-326 297l119 155l207 -196l209 196l121 -155z" />
    <glyph glyph-name="longs" unicode="&#x17f;" horiz-adv-x="735" 
d="M505 1227q-46 -20 -46 -129v-1098h-223v768h-195v186h195v119q0 104 26 178q27 74 62 111t89 57q54 19 87 23q32 4 96 4t113 -25v-188q-53 14 -106 14q-52 0 -98 -20z" />
    <glyph glyph-name="florin" unicode="&#x192;" horiz-adv-x="903" 
d="M6 -174q45 0 71 6q25 6 57 41t50 102l140 793h-195l33 186h194l21 119q18 104 58 178t81 111q41 36 108 60t154 24q88 0 133 -25l-32 -188q-51 14 -91 14q-64 0 -113 -19t-71 -130l-24 -144h249l-32 -186h-250l-135 -768q-18 -104 -58 -178t-82 -111q-41 -37 -108 -61
t-154 -23q-88 0 -133 25l33 188q51 -14 96 -14z" />
    <glyph glyph-name="Aringacute" unicode="&#x1fa;" horiz-adv-x="1169" 
d="M842 1884l-510 -280l-68 106l510 281zM582 1595q-20 0 -36 -15q-16 -16 -16 -36t16 -34t36 -15q20 0 34 14q14 15 14 35t-14 36t-34 15zM586 1042l-199 -649h395zM721 1538q0 -62 -53 -104l495 -1434h-248l-61 182h-539l-61 -182h-248l494 1430q-60 39 -60 105t42 107
t100 41t98 -41q41 -42 41 -104z" />
    <glyph glyph-name="aringacute" unicode="&#x1fb;" horiz-adv-x="1234" 
d="M346 1434l-106 174l510 280l106 -174zM567 1493q104 0 178 -75t74 -177t-74 -177t-178 -75t-178 75t-74 178t74 177t178 74zM657 1243q0 37 -25 64q-26 27 -64 27t-64 -28t-27 -64q0 -36 27 -62q28 -26 64 -27q36 1 62 27t27 63zM301 477q0 -127 78 -215t202 -88
q125 0 203 88t78 215t-79 215t-203 88t-201 -88q-78 -88 -78 -215zM862 954h223v-954h-223v129q-43 -70 -126 -112t-169 -42q-213 -1 -351 147t-138 355t138 354t351 148q86 0 169 -42t126 -112v129z" />
    <glyph glyph-name="AEacute" unicode="&#x1fc;" horiz-adv-x="1808" 
d="M1319 1815l-510 -281l-107 174l510 281zM831 395v817l-385 -817h385zM1659 1223h-592v-406h592v-211h-592v-395h592v-211h-828v184h-485l-86 -184h-256l696 1434h959v-211z" />
    <glyph glyph-name="aeacute" unicode="&#x1fd;" horiz-adv-x="1867" 
d="M1241 1260l-510 -281l-106 174l510 281zM581 174q125 0 203 88t78 216t-79 215t-203 87t-201 -88q-78 -88 -78 -215t78 -215t202 -88zM1327 793q-102 1 -169 -57t-66 -161h467q0 98 -65 158t-167 60zM862 954h223v-36q106 61 248 61q187 0 315 -124t128 -306
q0 -78 -11 -139h-675q2 -113 62 -181t187 -67q150 0 203 125h225q-25 -131 -139 -221t-274 -90q-158 0 -269 63v-39h-223v129q-43 -70 -126 -112t-169 -42q-213 -1 -351 147t-138 355t138 354t351 148q86 0 169 -42t126 -112v129z" />
    <glyph glyph-name="Oslashacute" unicode="&#x1fe;" horiz-adv-x="1638" 
d="M1126 1815l-510 -281l-106 174l510 281zM1313 717q0 127 -50 241t-141 191l-413 -961q53 -12 110 -12q221 0 358 161q136 161 136 380zM326 717q0 -127 49 -242t139 -190l412 960q-49 12 -107 12q-221 -1 -357 -161t-136 -379zM819 -35q-106 0 -194 25l-72 -170l-199 84
l70 168q-164 102 -255 274t-91 371q0 305 205 528t536 223q102 0 193 -24l84 194l200 -86l-84 -190q164 -102 256 -276t93 -369q0 -305 -205 -529t-537 -223z" />
    <glyph glyph-name="oslashacute" unicode="&#x1ff;" horiz-adv-x="1163" 
d="M889 1294l-510 -280l-107 174l510 280zM301 478q0 -126 74 -212l221 514h-16q-123 0 -201 -88t-78 -214zM580 174q126 0 204 88t78 216t-80 214l-221 -518h19zM1085 477q0 -209 -140 -355t-365 -147q-49 0 -101 11l-73 -168l-189 82l70 161q-98 70 -154 180
q-55 110 -55 236q0 209 140 355t362 147q37 0 98 -8l74 170l188 -82l-70 -164q100 -71 158 -181t57 -237z" />
    <glyph glyph-name="Scommaaccent" unicode="&#x218;" horiz-adv-x="1165" 
d="M442 -190q0 55 39 94t99 39t101 -47q42 -47 42 -123q0 -145 -70 -209t-204 -66v84q147 0 159 107q-10 -11 -52 -11t-78 38t-36 94zM86 469h236q0 -137 76 -215t190 -78q112 0 180 60t68 157q0 98 -79 152q-53 36 -150 71q-308 112 -390 209q-82 98 -82 261t130 273
q130 109 321 109q190 0 320 -126t130 -322h-235q-1 106 -59 172t-153 66t-157 -49q-62 -48 -61 -131q0 -83 56 -131q57 -48 151 -82t141 -52t127 -61t120 -84t72 -107t33 -145q0 -213 -140 -332t-348 -119t-353 136q-144 137 -144 368z" />
    <glyph glyph-name="scommaaccent" unicode="&#x219;" horiz-adv-x="929" 
d="M74 322h217q0 -170 184 -170q156 0 156 110q0 62 -75 92l-55 22q-26 9 -76 26q-199 68 -258 128q-61 60 -61 180t102 195q102 74 257 74q154 0 259 -92t105 -232h-217q0 147 -153 148q-59 0 -99 -28t-38 -80q0 -52 66 -83q30 -13 137 -52t149 -58q41 -20 86 -52
q82 -58 83 -192q1 -133 -107 -208t-272 -75q-164 1 -276 93q-114 92 -114 254zM332 -168q0 55 39 94t99 39t100 -47q42 -47 42 -123q0 -145 -69 -209q-70 -63 -205 -65v84q78 0 117 31t43 75q-10 -10 -35 -10q-59 0 -95 38t-36 93z" />
    <glyph glyph-name="uni021A" unicode="&#x21a;" horiz-adv-x="987" 
d="M360 -168q0 55 39 94t99 39t102 -47t41 -123q0 -145 -70 -209t-204 -65v84q147 0 159 106q-10 -10 -34 -10q-59 0 -96 38q-36 38 -36 93zM375 0v1223h-355v211h947v-211h-357v-1223h-235z" />
    <glyph glyph-name="uni021B" unicode="&#x21b;" horiz-adv-x="718" 
d="M219 -168q0 55 39 94q38 39 98 39t102 -47t42 -123q0 -145 -70 -209t-205 -65v84q78 0 117 31t43 75q-10 -10 -35 -10q-59 0 -95 38t-36 93zM41 768v186h162v289h223v-289h219v-186h-219v-393q0 -115 33 -151t103 -36t116 9v-197q-70 -12 -146 -12t-116 8q-41 8 -97 38
q-118 64 -116 290v444h-162z" />
    <glyph glyph-name="hsuperior" unicode="&#x2b0;" horiz-adv-x="794" 
d="M135 645v789h166v-324q49 90 161 90t160 -59q46 -59 46 -176v-320h-166v279q0 131 -96 131q-104 0 -105 -137v-273h-166z" />
    <glyph glyph-name="jsuperior" unicode="&#x2b2;" horiz-adv-x="483" 
d="M135 1368q0 45 32 77t77 32t78 -32q32 -32 32 -77t-32 -77q-32 -31 -78 -31q-45 0 -77 32t-32 76zM330 1188v-629q0 -174 -146 -174q-76 0 -114 14v127q31 -6 45 -6q45 0 45 53v615h170z" />
    <glyph glyph-name="wsuperior" unicode="&#x2b7;" horiz-adv-x="1024" 
d="M625 645l-113 348l-113 -348h-137l-203 543h177l102 -324l94 324h158l96 -324l102 324h177l-203 -543h-137z" />
    <glyph glyph-name="ysuperior" unicode="&#x2b8;" horiz-adv-x="815" 
d="M682 647q0 -141 -68 -201t-210 -61q-142 0 -210 59t-67 158h168q4 -90 104 -90q57 0 84 30t27 97v92q-48 -92 -164 -92t-162 58t-45 177v314h170v-279q0 -133 97 -133q104 0 104 139v273h172v-541z" />
    <glyph glyph-name="apostrophemod" unicode="&#x2bc;" horiz-adv-x="579" 
d="M123 1356q0 66 46 112t119 48q73 0 121 -56t48 -147q0 -174 -82 -250t-244 -78v100q94 0 141 41q43 33 50 86q-10 -10 -41 -10q-72 0 -115 44t-43 110z" />
    <glyph glyph-name="circumflex" unicode="&#x2c6;" horiz-adv-x="1007" 
d="M129 1427l369 297l368 -297l-139 -155l-229 184l-228 -182z" />
    <glyph glyph-name="caron" unicode="&#x2c7;" horiz-adv-x="925" 
d="M461 1237l-326 297l119 156l207 -197l209 197l121 -156z" />
    <glyph glyph-name="breve" unicode="&#x2d8;" horiz-adv-x="1136" 
d="M567 1632q154 0 203 121h211q-14 -133 -136 -226t-277 -93t-273 92t-141 227h208q51 -121 205 -121z" />
    <glyph glyph-name="dotaccent" unicode="&#x2d9;" horiz-adv-x="1206" 
d="M768 1293q0 -69 -48 -117t-117 -48t-117 48t-48 117t48 117t117 48t117 -48t48 -117z" />
    <glyph glyph-name="ring" unicode="&#x2da;" horiz-adv-x="1161" 
d="M580 1370q38 0 64 27t26 63t-26 64q-26 26 -63 26q-38 0 -65 -28t-27 -63q0 -37 27 -63t64 -26zM580 1710q104 0 178 -75t74 -177t-74 -177t-178 -75t-179 75q-73 75 -73 178t73 177q75 74 179 74z" />
    <glyph glyph-name="ogonek" unicode="&#x2db;" horiz-adv-x="1163" 
d="M597 -434q-104 0 -165 56t-61 142q0 119 161 236h166q-35 -25 -55 -41q-19 -16 -39 -49t-20 -74t26 -73t74 -32q50 0 109 25v-159q-92 -31 -196 -31z" />
    <glyph glyph-name="tilde" unicode="&#x2dc;" horiz-adv-x="1079" 
d="M375 1434q29 0 145 -28t156 -28q39 0 151 56l88 -142q-111 -92 -223 -92q-30 0 -146 27t-150 27t-136 -44l-96 146q121 78 211 78z" />
    <glyph glyph-name="hungarumlaut" unicode="&#x2dd;" horiz-adv-x="1075" 
d="M180 1163l256 340l197 -98l-346 -299zM580 1163l256 340l196 -98l-346 -299z" />
    <glyph glyph-name="xsuperior" unicode="&#x2e3;" horiz-adv-x="700" 
d="M451 920l186 -275h-197l-90 158l-90 -158h-197l187 275l-182 268h196l86 -154l86 154h199z" />
    <glyph glyph-name="Delta" unicode="&#x394;" horiz-adv-x="1169" 
d="M668 1434l495 -1434h-1157l496 1434h166zM586 1042l-254 -831h506z" />
    <glyph glyph-name="Omega" unicode="&#x3a9;" horiz-adv-x="1466" 
d="M733 1247q-193 0 -299 -122t-106 -296t80 -298t243 -160v-371h-522v211h338v37q-176 70 -276 222q-99 153 -99 347q0 265 176 453t465 188t465 -188t176 -453q0 -195 -99 -349t-276 -222v-35h338v-211h-522v371q164 37 244 161t80 297q-1 174 -107 296t-299 122z" />
    <glyph glyph-name="mu" unicode="&#x3bc;" 
d="M152 -479v1433h223v-493q0 -289 207 -289q113 0 171 80t58 209v493h223v-954h-223v133q-92 -158 -311 -158q-66 0 -125 17v-471h-223z" />
    <glyph glyph-name="pi" unicode="&#x3c0;" 
d="M1122 954v-198h-143v-756h-223v756h-324v-756h-223v756h-143v198h1056z" />
    <glyph glyph-name="Wgrave" unicode="&#x1e80;" horiz-adv-x="2013" 
d="M1208 1534l-510 281l107 174l510 -281zM1337 0l-329 1022l-332 -1022h-170l-496 1434h248l330 -1022l332 1022h174l331 -1022l330 1022h248l-496 -1434h-170z" />
    <glyph glyph-name="wgrave" unicode="&#x1e81;" horiz-adv-x="1542" 
d="M973 1014l-510 280l106 174l510 -280zM1022 0l-250 713l-252 -713h-149l-371 954h240l206 -604l216 604h219l215 -604l207 604h239l-371 -954h-149z" />
    <glyph glyph-name="Wacute" unicode="&#x1e82;" horiz-adv-x="2013" 
d="M1315 1815l-510 -281l-107 174l510 281zM1337 0l-329 1022l-332 -1022h-170l-496 1434h248l330 -1022l332 1022h174l331 -1022l330 1022h248l-496 -1434h-170z" />
    <glyph glyph-name="wacute" unicode="&#x1e83;" horiz-adv-x="1542" 
d="M1079 1294l-510 -280l-106 174l510 280zM1022 0l-250 713l-252 -713h-149l-371 954h240l206 -604l216 604h219l215 -604l207 604h239l-371 -954h-149z" />
    <glyph glyph-name="Wdieresis" unicode="&#x1e84;" horiz-adv-x="2013" 
d="M770 1624q-66 0 -111 46t-45 112q0 64 45 110t111 45q66 0 112 -46q46 -45 46 -111t-46 -111t-112 -45zM1083 1782q0 64 45 110t111 45q66 0 112 -46q46 -45 46 -111t-46 -111q-47 -45 -111 -45t-111 46q-46 48 -46 112zM1337 0l-329 1022l-332 -1022h-170l-496 1434h248
l330 -1022l332 1022h174l331 -1022l330 1022h248l-496 -1434h-170z" />
    <glyph glyph-name="wdieresis" unicode="&#x1e85;" horiz-adv-x="1542" 
d="M379 1257q0 66 45 112t111 46q65 0 111 -46t46 -112q0 -67 -46 -111t-110 -44t-110 44t-47 111zM848 1257q0 66 45 112t111 46t112 -46t45 -112q0 -67 -46 -111q-45 -44 -111 -44t-111 44t-45 111zM1022 0l-250 713l-252 -713h-149l-371 954h240l206 -604l216 604h219
l215 -604l207 604h239l-371 -954h-149z" />
    <glyph glyph-name="Ygrave" unicode="&#x1ef2;" horiz-adv-x="1232" 
d="M817 1534l-510 281l107 174l510 -281zM1243 1434l-711 -1434h-258l285 573l-536 861h272l383 -617l307 617h258z" />
    <glyph glyph-name="ygrave" unicode="&#x1ef3;" horiz-adv-x="1183" 
d="M793 1014l-510 280l106 174l510 -280zM549 -502q-180 0 -297 116t-119 277h217q2 -86 60 -140t174 -54q117 0 175 60t58 198v178q-92 -158 -302 -158t-296 129q-61 94 -61 283v567h223v-493q0 -289 207 -289q113 0 171 80t58 209v493h223v-999q0 -237 -124 -347
t-367 -110z" />
    <glyph glyph-name="thinspace" unicode="&#x2009;" horiz-adv-x="421" 
 />
    <glyph glyph-name="endash" unicode="&#x2013;" horiz-adv-x="1030" 
d="M928 483h-826v199h826v-199z" />
    <glyph glyph-name="emdash" unicode="&#x2014;" horiz-adv-x="2060" 
d="M1958 483h-1856v199h1856v-199z" />
    <glyph glyph-name="quoteleft" unicode="&#x2018;" horiz-adv-x="579" 
d="M457 1145q0 -66 -46 -113t-119 -47t-121 56t-48 147q0 174 82 250t244 78v-101q-94 0 -142 -41q-41 -31 -49 -86q10 10 41 10q72 0 115 -44t43 -109z" />
    <glyph glyph-name="quoteright" unicode="&#x2019;" horiz-adv-x="579" 
d="M123 1356q0 66 46 112t119 48q73 0 121 -56t48 -147q0 -174 -82 -250t-244 -78v100q94 0 141 41q43 33 50 86q-10 -10 -41 -10q-72 0 -115 44t-43 110z" />
    <glyph glyph-name="quotesinglbase" unicode="&#x201a;" horiz-adv-x="579" 
d="M123 129q0 66 46 113t119 47q73 -1 121 -57t48 -146q0 -174 -82 -250t-244 -78v101q94 0 141 41q41 31 50 86q-10 -10 -41 -11q-72 0 -115 44t-43 110z" />
    <glyph glyph-name="quotedblleft" unicode="&#x201c;" horiz-adv-x="962" 
d="M457 1145q0 -66 -46 -113t-119 -47t-121 56t-48 147q0 174 82 250t244 78v-101q-94 0 -142 -41q-41 -31 -49 -86q10 10 41 10q72 0 115 -44t43 -109zM840 1145q0 -66 -46 -113t-119 -47t-121 56t-48 147q0 174 82 250t243 78v-101q-94 0 -141 -41q-41 -31 -49 -86
q10 10 41 10q72 0 115 -44t43 -109z" />
    <glyph glyph-name="quotedblright" unicode="&#x201d;" horiz-adv-x="962" 
d="M506 1356q0 66 46 112t119 48q73 0 121 -56t48 -147q0 -174 -82 -250t-244 -78v100q94 0 141 41q43 33 50 86q-10 -10 -41 -10q-72 0 -115 44t-43 110zM123 1356q0 66 46 112t119 48q73 0 121 -56t48 -147q0 -174 -82 -250t-244 -78v100q94 0 141 41q43 33 50 86
q-10 -10 -41 -10q-72 0 -115 44t-43 110z" />
    <glyph glyph-name="quotedblbase" unicode="&#x201e;" horiz-adv-x="962" 
d="M506 129q0 66 46 113t119 47q73 -1 121 -57t48 -146q0 -174 -82 -250t-244 -78v101q94 0 141 41q41 31 50 86q-10 -10 -41 -11q-72 0 -115 44t-43 110zM123 129q0 66 46 113t119 47q73 -1 121 -57t48 -146q0 -174 -82 -250t-244 -78v101q94 0 141 41q41 31 50 86
q-10 -10 -41 -11q-72 0 -115 44t-43 110z" />
    <glyph glyph-name="dagger" unicode="&#x2020;" horiz-adv-x="995" 
d="M610 -373h-223v1129h-237v198h237v514h223v-514h236v-198h-236v-1129z" />
    <glyph glyph-name="daggerdbl" unicode="&#x2021;" horiz-adv-x="995" 
d="M387 1468h223v-514h236v-192h-236v-569h236v-193h-236v-373h-223v373h-237v193h237v569h-237v192h237v514z" />
    <glyph glyph-name="bullet" unicode="&#x2022;" horiz-adv-x="722" 
d="M361 401q-99 0 -169 70t-69 169q0 99 70 169q71 70 169 70t168 -70t70 -169t-70 -169t-169 -70z" />
    <glyph glyph-name="ellipsis" unicode="&#x2026;" horiz-adv-x="1976" 
d="M1689 313q69 0 117 -48t47 -117q0 -68 -48 -116q-49 -48 -117 -48t-116 48t-48 116q0 69 48 117t117 48zM823 151q0 69 48 117t117 47q69 0 117 -48q48 -49 48 -117t-48 -116t-117 -48t-117 48t-48 117zM123 153q0 69 48 117t117 47q68 0 116 -48q48 -49 48 -117
t-48 -116t-116 -48t-117 48q-48 48 -48 117z" />
    <glyph glyph-name="perthousand" unicode="&#x2030;" horiz-adv-x="2654" 
d="M2306 264v260q0 53 -34 91t-87 38t-86 -38t-33 -91v-260q0 -53 33 -91t86 -38t87 38t34 91zM1886 264v260q0 117 82 199t217 82t218 -82t83 -199v-260q0 -116 -83 -198t-218 -82t-217 82t-82 198zM1597 264v260q0 53 -33 91q-34 38 -87 38t-86 -38t-33 -91v-260
q0 -53 33 -91t86 -38t87 38q33 38 33 91zM1178 264v260q0 117 82 199t217 82t218 -82t83 -199v-260q0 -116 -83 -198t-218 -82t-217 82t-82 198zM586 909v260q0 53 -34 91t-87 38t-86 -38t-33 -91v-260q0 -53 33 -91t86 -38t87 38t34 91zM166 909v260q0 117 82 199t217 82
t218 -82t83 -199v-260q0 -117 -83 -199t-218 -81q-135 -1 -217 81t-82 199zM420 -2l895 1542l178 -102l-895 -1542z" />
    <glyph glyph-name="guilsinglleft" unicode="&#x2039;" horiz-adv-x="565" 
d="M483 410v-215l-401 335v132l401 335v-215l-223 -186z" />
    <glyph glyph-name="guilsinglright" unicode="&#x203a;" horiz-adv-x="565" 
d="M82 195v215l223 186l-223 186v215l401 -335v-132z" />
    <glyph glyph-name="fraction" unicode="&#x2044;" horiz-adv-x="458" 
d="M-307 -2l895 1542l178 -102l-895 -1542z" />
    <glyph glyph-name="zerosuperior" unicode="&#x2070;" horiz-adv-x="817" 
d="M528 909v260q0 53 -33 92q-34 37 -87 37t-86 -38t-33 -91v-260q0 -53 33 -91t86 -38t87 38q33 38 33 91zM109 909v260q0 117 81 199q82 82 218 82t218 -82q83 -82 83 -199v-260q0 -117 -83 -199t-218 -81q-135 -1 -217 81t-82 199z" />
    <glyph glyph-name="foursuperior" unicode="&#x2074;" horiz-adv-x="808" 
d="M440 645v219h-313v570h180v-418h133v219h181v-219h96v-152h-96v-219h-181z" />
    <glyph glyph-name="fivesuperior" unicode="&#x2075;" horiz-adv-x="835" 
d="M139 977v457h531v-142h-365v-178q45 74 164 74t187 -80t67 -197q0 -117 -82 -199t-219 -83q-137 0 -219 83t-82 201h176q0 -57 34 -96t90 -39t91 40t35 96t-34 96q-33 40 -101 41q-68 0 -105 -74h-168z" />
    <glyph glyph-name="sixsuperior" unicode="&#x2076;" horiz-adv-x="798" 
d="M396 780q56 0 91 39t35 96t-35 97t-91 39q-56 0 -90 -39q-34 -38 -34 -96t34 -97t90 -39zM698 906q0 -112 -83 -194t-219 -81q-136 0 -218 82t-82 188t47 178l228 355h204l-157 -238l24 -6q16 -4 23 -4q105 -16 169 -92t64 -188z" />
    <glyph glyph-name="sevensuperior" unicode="&#x2077;" horiz-adv-x="718" 
d="M100 1434h566l-336 -789h-193l273 637h-310v152z" />
    <glyph glyph-name="eightsuperior" unicode="&#x2078;" horiz-adv-x="817" 
d="M289 873q0 -47 33 -77t87 -30t87 32q32 32 32 76t-32 76q-33 33 -87 33t-87 -32t-33 -78zM408 1116q48 0 76 30t28 71t-29 69t-75 27q-46 0 -75 -28q-28 -27 -28 -69t28 -71t75 -29zM705 870q0 -100 -80 -170t-216 -71q-136 1 -216 69t-80 172q0 63 35 117q36 53 92 70
q-49 20 -78 65t-29 103q0 97 75 161t202 64q126 0 200 -66t74 -159q0 -57 -29 -103t-77 -65q55 -17 91 -71t36 -116z" />
    <glyph glyph-name="ninesuperior" unicode="&#x2079;" horiz-adv-x="798" 
d="M401 1298q-55 0 -90 -38t-35 -96t35 -97t90 -39t91 39q35 39 34 96q0 57 -34 97q-36 38 -91 38zM400 1448q136 0 220 -82t82 -203q0 -88 -49 -164l-227 -354h-203l158 236q-129 8 -205 87q-76 80 -76 198t82 200t218 82z" />
    <glyph glyph-name="plussuperior" unicode="&#x207a;" horiz-adv-x="813" 
d="M479 725h-145v172h-168v137h168v172h145v-172h168v-137h-168v-172z" />
    <glyph glyph-name="minussuperior" unicode="&#x207b;" horiz-adv-x="813" 
d="M647 897h-481v137h481v-137z" />
    <glyph glyph-name="equalsuperior" unicode="&#x207c;" horiz-adv-x="813" 
d="M647 795h-481v137h481v-137zM647 997h-481v138h481v-138z" />
    <glyph glyph-name="parenleftsuperior" unicode="&#x207d;" horiz-adv-x="571" 
d="M469 1518v-154q-65 0 -105 -45t-40 -111v-514q0 -66 40 -110t105 -45v-154q-145 0 -233 89t-89 220v514q1 130 89 220t233 90z" />
    <glyph glyph-name="parenrightsuperior" unicode="&#x207e;" horiz-adv-x="571" 
d="M102 1364v154q146 0 234 -90t88 -220v-514q0 -131 -88 -220t-234 -89v154q66 0 106 45t40 110v514q0 66 -40 111t-106 45z" />
    <glyph glyph-name="nsuperior" unicode="&#x207f;" horiz-adv-x="804" 
d="M135 645v543h170v-78q49 90 165 90t162 -57t46 -176v-322h-170v279q0 131 -96 131q-106 0 -107 -137v-273h-170z" />
    <glyph glyph-name="zeroinferior" unicode="&#x2080;" horiz-adv-x="817" 
d="M528 -145v260q0 53 -33 91q-34 38 -87 38t-86 -38t-33 -91v-260q0 -53 33 -91t86 -38t87 37q33 39 33 92zM109 -145v260q-1 117 81 199t218 81q136 0 218 -82q83 -82 83 -198v-260q0 -117 -83 -199t-218 -82t-218 82q-81 82 -81 199z" />
    <glyph glyph-name="oneinferior" unicode="&#x2081;" horiz-adv-x="577" 
d="M94 113v129q109 0 148 32t39 105h159v-789h-184v523h-162z" />
    <glyph glyph-name="twoinferior" unicode="&#x2082;" horiz-adv-x="772" 
d="M113 -410q0 176 51 260t162 150q112 66 136 98t23 72q0 88 -90 88q-100 0 -100 -115h-180q0 111 74 182q75 71 199 71t200 -60q76 -59 76 -178q0 -70 -49 -134q-37 -54 -139 -117q-103 -64 -130 -94t-27 -75h340v-148h-546z" />
    <glyph glyph-name="threeinferior" unicode="&#x2083;" horiz-adv-x="800" 
d="M98 -145h181q0 -63 32 -100q33 -36 85 -36t80 31t28 74q0 109 -117 108h-70v142h70q105 0 105 92t-91 92q-100 0 -100 -115h-180q0 109 69 181q70 72 197 72t206 -59q79 -58 79 -163q0 -63 -33 -109t-84 -65q57 -20 93 -70t36 -118q0 -110 -82 -174t-213 -64t-211 77
t-80 204z" />
    <glyph glyph-name="fourinferior" unicode="&#x2084;" horiz-adv-x="808" 
d="M440 -410v220h-313v569h180v-418h133v219h181v-219h96v-151h-96v-220h-181z" />
    <glyph glyph-name="fiveinferior" unicode="&#x2085;" horiz-adv-x="835" 
d="M139 -78v457h531v-141h-365v-179q45 74 164 74t187 -80q68 -81 67 -197q0 -116 -82 -199t-219 -83t-219 83t-82 202h176q0 -57 34 -97t90 -38q56 0 91 40t35 96t-34 96q-33 40 -101 40t-105 -74h-168z" />
    <glyph glyph-name="sixinferior" unicode="&#x2086;" horiz-adv-x="798" 
d="M272 -139q0 -57 34 -96t90 -39t91 38t35 96t-35 97t-91 39t-90 -39t-34 -96zM396 -424q-136 0 -218 82t-82 188t47 179l228 354h204l-157 -238l24 -6q16 -4 23 -4q105 -16 169 -92q64 -75 64 -187t-83 -194t-219 -82z" />
    <glyph glyph-name="seveninferior" unicode="&#x2087;" horiz-adv-x="718" 
d="M100 379h566l-336 -789h-193l273 637h-310v152z" />
    <glyph glyph-name="eightinferior" unicode="&#x2088;" horiz-adv-x="817" 
d="M409 -289q54 0 87 32t32 77q0 45 -32 77q-33 31 -87 31t-87 -32t-33 -77q0 -46 33 -77t87 -31zM408 61q48 0 76 30t28 70q0 41 -29 69t-75 28t-75 -28q-28 -28 -28 -70t28 -70q28 -29 75 -29zM409 -426q-136 0 -216 69t-80 173q0 63 35 116q36 53 92 70q-49 20 -78 66
t-29 102q0 96 75 161t202 65q126 0 200 -66t74 -160q0 -57 -29 -102t-77 -66q55 -18 91 -72t36 -114q0 -100 -80 -171t-216 -71z" />
    <glyph glyph-name="nineinferior" unicode="&#x2089;" horiz-adv-x="798" 
d="M401 244q-55 0 -90 -39t-35 -96t35 -97t90 -39q55 0 91 39q34 38 34 96t-34 97q-36 39 -91 39zM100 111q0 119 82 201t218 81q136 0 220 -82t82 -202q0 -88 -49 -164l-227 -355h-203l158 236q-129 8 -205 87t-76 198z" />
    <glyph glyph-name="parenleftinferior" unicode="&#x208d;" horiz-adv-x="571" 
d="M469 463v-154q-65 0 -105 -45t-40 -110v-514q0 -66 40 -111t105 -45v-154q-145 0 -233 89t-89 221v514q1 131 89 220t233 89z" />
    <glyph glyph-name="parenrightinferior" unicode="&#x208e;" horiz-adv-x="571" 
d="M102 309v154q146 0 234 -89t88 -220v-514q0 -130 -88 -220t-234 -90v154q66 0 106 45t40 111v514q0 66 -40 110t-106 45z" />
    <glyph glyph-name="Euro" unicode="&#x20ac;" 
d="M899 479h236q-1 -211 -141 -357t-363 -146t-363 146q-140 148 -141 357h-127l41 168h86v141h-127l41 166h86q0 208 140 356q139 148 355 148t354 -128t157 -320h-238q-16 102 -88 170q-73 68 -185 68t-186 -86q-74 -85 -74 -208h426l-40 -166h-386v-141h426l-40 -168
h-386q0 -123 74 -208t194 -85t194 85t75 208z" />
    <glyph glyph-name="afii61289" unicode="&#x2113;" horiz-adv-x="866" 
d="M547 1292q-55 0 -85 -60t-30 -153v-350q115 103 162 189t47 192q0 182 -94 182zM754 0q-55 -25 -154 -25q-100 -1 -140 9q-124 29 -172 126q-48 96 -48 230l-131 -98l-99 170l230 163v463q0 430 299 430q141 0 218 -101t77 -265q0 -309 -402 -615v-163q0 -107 52 -132
q52 -24 126 -24t144 18v-186z" />
    <glyph glyph-name="afii61352" unicode="&#x2116;" horiz-adv-x="2217" 
d="M2157 395h-850v199h850v-199zM1933 1042q0 92 -56 154t-145 64q-90 0 -146 -62t-56 -156q0 -92 56 -154t146 -63q89 1 145 63t56 154zM1732 1454q192 0 308 -119t117 -292q-1 -173 -117 -291t-308 -119q-192 0 -309 119q-117 120 -117 292t117 291t309 119zM975 1434h235
v-1434h-258l-567 1020v-1020h-235v1434h258l567 -1020v1020z" />
    <glyph glyph-name="trademark" unicode="&#x2122;" horiz-adv-x="1673" 
d="M82 1434h549v-123h-207v-711h-137v711h-205v123zM770 600v834h223l195 -566l192 566h211v-834h-135v637l-221 -637h-96l-234 668v-668h-135z" />
    <glyph glyph-name="uni2126" unicode="&#x2126;" horiz-adv-x="1466" 
d="M733 1247q-193 0 -299 -122t-106 -296t80 -298t243 -160v-371h-522v211h338v37q-176 70 -276 222q-99 153 -99 347q0 265 176 453t465 188t465 -188t176 -453q0 -195 -99 -349t-276 -222v-35h338v-211h-522v371q164 37 244 161t80 297q-1 174 -107 296t-299 122z" />
    <glyph glyph-name="estimated" unicode="&#x212e;" horiz-adv-x="1087" 
d="M543 934q-131 0 -234 -68v-329h467v331q-102 66 -233 66zM309 489v-395q105 -72 247 -72t243 68q100 68 133 170h47q-33 -121 -145 -203t-275 -82q-229 1 -353 147t-124 362t125 356t329 139q204 0 331 -124q128 -124 128 -306q0 -33 -2 -60h-684z" />
    <glyph glyph-name="arrowleft" unicode="&#x2190;" 
d="M1311 807v-182h-1075l243 -217l-123 -134l-479 443l479 442l123 -133l-246 -219h1078z" />
    <glyph glyph-name="arrowup" unicode="&#x2191;" 
d="M684 0h-182v1073l-217 -242l-133 123l442 480l442 -480l-133 -123l-219 246v-1077z" />
    <glyph glyph-name="arrowright" unicode="&#x2192;" 
d="M-123 627v182h1073l-241 217l122 133l480 -442l-480 -443l-122 134l245 219h-1077z" />
    <glyph glyph-name="arrowdown" unicode="&#x2193;" 
d="M504 1434h182v-1076l217 244l133 -123l-442 -479l-442 479l133 123l219 -246v1078z" />
    <glyph glyph-name="uni2196" unicode="&#x2196;" 
d="M80 571l-25 652l652 -25l-9 -182l-327 18l762 -760l-129 -129l-760 758l18 -323z" />
    <glyph glyph-name="uni2197" unicode="&#x2197;" 
d="M481 1198l652 25l-25 -652l-182 9l20 327l-762 -762l-129 129l758 760l-324 -18z" />
    <glyph glyph-name="uni2198" unicode="&#x2198;" 
d="M1108 862l25 -651l-652 25l8 182l328 -19l-762 760l129 129l760 -758l-18 324z" />
    <glyph glyph-name="uni2199" unicode="&#x2199;" 
d="M707 236l-652 -25l25 651l182 -8l-18 -328l760 762l129 -129l-758 -760l323 19z" />
    <glyph glyph-name="partialdiff" unicode="&#x2202;" 
d="M573 707q-113 0 -185 -80t-71 -195q0 -116 71 -190q72 -74 200 -74t205 95q76 95 77 343q-123 101 -297 101zM573 911q170 0 291 -102q-14 266 -79 360q-65 95 -187 95t-190 -84t-68 -213h-236q0 215 134 358t352 143q172 0 278 -76q220 -157 222 -763q0 -666 -517 -666
q-211 0 -343 136t-132 333t133 338t342 141z" />
    <glyph glyph-name="uni2206" unicode="&#x2206;" horiz-adv-x="1169" 
d="M668 1434l495 -1434h-1157l496 1434h166zM586 1042l-254 -831h506z" />
    <glyph glyph-name="product" unicode="&#x220f;" horiz-adv-x="1361" 
d="M1356 1626v-209h-144v-1896h-235v1896h-592v-1896h-235v1896h-144v209h1350z" />
    <glyph glyph-name="summation" unicode="&#x2211;" 
d="M1124 -479h-1063v219l732 844l-732 843v199h1063v-209h-764l730 -803l-730 -864h764v-229z" />
    <glyph glyph-name="minus" unicode="&#x2212;" 
d="M1008 483h-828v199h828v-199z" />
    <glyph glyph-name="radical" unicode="&#x221a;" horiz-adv-x="1400" 
d="M4 276v199h404l180 -563l561 1714h248l-727 -2105h-166l-262 755h-238z" />
    <glyph glyph-name="infinity" unicode="&#x221e;" horiz-adv-x="1705" 
d="M483 807q-102 -1 -158 -63q-57 -62 -57 -152t56 -152t159 -63q135 0 254 215q-119 215 -254 215zM1223 807q-137 0 -254 -215q115 -215 254 -215q102 0 158 62q57 63 57 153t-56 152t-159 63zM1219 1006q205 0 317 -120t113 -294q0 -174 -113 -294q-112 -120 -318 -120
t-366 213q-160 -213 -365 -213t-317 123t-113 291q0 168 113 291q112 123 316 123t366 -213q162 213 367 213z" />
    <glyph glyph-name="integral" unicode="&#x222b;" horiz-adv-x="602" 
d="M190 1350q0 278 214 276q100 0 157 -22v-185q-51 12 -78 13q-71 -1 -71 -97v-1558q0 -277 -214 -277q-100 0 -157 23v184q51 -12 78 -12q72 0 71 96v1559z" />
    <glyph glyph-name="approxequal" unicode="&#x2248;" 
d="M362 840q84 0 242 -66q14 -6 47 -19t77 -32t97 -23q109 0 226 113v-190q-90 -121 -228 -121q-90 0 -223 70q-132 70 -240 69q-108 0 -225 -113v191q90 121 227 121zM362 520q84 0 242 -65q14 -5 47 -19t83 -34t91 -21q109 0 226 113v-191q-90 -121 -228 -121
q-90 0 -223 70q-132 70 -240 70t-225 -113v190q90 121 227 121z" />
    <glyph glyph-name="notequal" unicode="&#x2260;" 
d="M1008 322h-412l-92 -216h-250l92 216h-166v198h250l53 121h-303v199h389l93 215h249l-92 -215h189v-199h-275l-53 -121h328v-198z" />
    <glyph glyph-name="lessequal" unicode="&#x2264;" 
d="M1008 0h-828v199h828v-199zM1008 719v-205l-828 287v157l828 287v-205l-498 -159z" />
    <glyph glyph-name="greaterequal" unicode="&#x2265;" 
d="M1008 0h-828v199h828v-199zM180 514v205l498 162l-498 159v205l828 -287v-157z" />
    <glyph glyph-name="lozenge" unicode="&#x25ca;" horiz-adv-x="993" 
d="M240 811l256 -575l258 575l-256 575zM397 0l-387 811l387 815h201l385 -815l-385 -811h-201z" />
    <glyph glyph-name="apple" unicode="&#xf8ff;" horiz-adv-x="1638" 
d="M819 1468q332 0 537 -223t205 -528t-205 -529t-537 -223q-333 0 -537 223q-204 222 -204 528t204 529t537 223zM123 717q0 -139 49 -264q45 -127 138 -227q196 -211 507 -213q312 -1 510 214q92 98 137 226q49 125 49 263q0 286 -186 492q-202 215 -510 215t-508 -215
q-186 -206 -186 -491zM750 188q145 0 329 129q-244 -47 -346 -47q-184 0 -262 76q53 -80 138 -119t141 -39zM344 467q168 -100 239 -123t146 -22q303 0 451 75q2 0 6 4q-53 -117 -219 -202q-117 -63 -217 -64q-209 0 -406 332zM303 424h-33q0 12 4 41q8 29 16 38
q24 29 93 54q2 0 2 2q8 2 17 15t10 22l-11 78l35 4l8 -82q0 -42 -43 -68h-4l-47 -22q-8 -2 -18 -10t-15 -11q-14 -23 -14 -61zM1085 645l-2 -20v-27q4 -41 9 -55l10 -25q10 -18 39 -41q8 -4 24 -13t39 -16q45 -15 49 -38q21 -38 9 -88l-33 8q4 14 4 37q-6 28 -11 32t-10 9
q-4 0 -10 3l-42 21t-54 30q-18 13 -35 40q0 6 -8 22l-6 29q-8 41 -8 63q6 37 6 39zM954 530h-505l366 549l-225 -497h364v-52zM1020 1025q0 35 26 61t62 26t60 -26q26 -26 26 -62t-26 -62t-62 -26t-60 26q-26 26 -26 63zM412 1025q0 35 26 61t61 26t61 -26t26 -62t-26 -62
t-62 -26t-60 26q-26 26 -26 63z" />
    <glyph glyph-name="CR" horiz-adv-x="512" 
 />
    <glyph glyph-name="one.plf" horiz-adv-x="749" 
d="M61 1010v186q188 0 252 52q63 52 64 186h223v-1434h-244v1010h-295z" />
    <glyph glyph-name="two.plf" horiz-adv-x="1079" 
d="M96 0q0 328 113 483q59 82 115 129t111 82q54 35 112 71q57 35 94 63t50 46t42 58t29 130q0 89 -56 137t-152 48t-160 -59q-62 -59 -62 -178h-236q0 208 135 328t328 120t315 -112t123 -318q0 -154 -111 -265q-56 -56 -94 -88t-107 -77t-73 -47q-156 -111 -200 -174
t-45 -166h622v-211h-893z" />
    <glyph glyph-name="four.plf" horiz-adv-x="1144" 
d="M655 0v430h-522v1004h236v-793h286v430h236v-430h196v-211h-196v-430h-236z" />
    <glyph glyph-name="three.plf" horiz-adv-x="1165" 
d="M68 479h235q0 -135 78 -214t192 -79q113 0 179 66t65 158q0 238 -258 237h-96v209h98q221 0 221 209q0 88 -55 135t-147 47q-227 0 -228 -237h-235q0 200 125 324t318 124t326 -109q132 -110 132 -284q0 -231 -195 -315q229 -90 230 -338q1 -190 -141 -314t-347 -123
t-351 137t-146 367z" />
    <glyph glyph-name="Adieresis.001" horiz-adv-x="1169" 
d="M586 1042l-199 -649h395zM668 1434l495 -1434h-248l-61 182h-539l-61 -182h-248l496 1434h166zM961 1782l-179 -266h-170l179 266h170zM707 1782l-179 -266h-170l179 266h170z" />
    <glyph glyph-name="Odieresis.001" horiz-adv-x="1638" 
d="M819 176q221 0 358 161q136 161 136 380t-136 380q-135 161 -357 161t-358 -162q-136 -160 -136 -379t136 -380t357 -161zM819 -35q-333 0 -537 223q-204 222 -204 528t205 529t537 223t536 -223q205 -223 205 -528t-205 -529t-537 -223zM1161 1782l-178 -266h-170
l178 266h170zM559 1516l178 266h170l-178 -266h-170z" />
    <glyph glyph-name="Udieresis.001" horiz-adv-x="1310" 
d="M139 479v955h236v-955q0 -127 78 -215q77 -88 201 -88t203 88t79 215v955h235v-955q0 -215 -143 -365q-142 -150 -372 -149q-230 -1 -374 149t-143 365zM1022 1782l-178 -266h-170l178 266h170zM768 1782l-178 -266h-170l178 266h170z" />
    <glyph glyph-name="Edieresis.001" horiz-adv-x="1116" 
d="M977 1223h-592v-406h592v-211h-592v-395h592v-211h-827v1434h827v-211zM958 1782l-178 -266h-170l178 266h170zM705 1782l-179 -266h-170l179 266h170z" />
    <glyph glyph-name="zero.plf" 
d="M862 477v479q0 121 -75 206t-195 85t-193 -85q-74 -85 -73 -206v-479q0 -121 74 -206t193 -85q121 0 195 85t74 206zM90 477v479q0 210 140 356t364 146t363 -146q140 -146 141 -356v-479q0 -209 -140 -355t-364 -146t-364 146t-140 355z" />
    <glyph glyph-name="five.plf" horiz-adv-x="1241" 
d="M156 610v824h870v-211h-659v-398q41 76 131 114t176 38q221 0 343 -143q122 -142 122 -354q-1 -212 -141 -358t-363 -146t-363 146t-141 355h236q-1 -121 73 -206t194 -85t194 84t75 207q0 123 -75 207t-195 84q-164 0 -242 -158h-235z" />
    <glyph glyph-name="six.plf" horiz-adv-x="1165" 
d="M579 186q121 0 195 85t74 206t-75 206t-195 85t-193 -85q-74 -85 -74 -206t74 -206t194 -85zM1083 478q0 -210 -140 -356t-363 -147q-224 1 -364 147t-140 355q0 152 90 297l412 660h270l-301 -457q10 2 31 2q225 0 365 -146q140 -145 140 -355z" />
    <glyph glyph-name="seven.plf" horiz-adv-x="980" 
d="M78 1434h913l-610 -1434h-250l528 1223h-581v211z" />
    <glyph glyph-name="eight.plf" horiz-adv-x="1206" 
d="M348 414q0 -96 70 -162t185 -66t185 67t70 161t-68 162t-187 67t-187 -67t-68 -162zM823 1040q0 86 -60 146q-59 60 -159 61q-100 0 -160 -60q-60 -59 -61 -147q1 -88 61 -148t159 -61t159 61t61 148zM603 -25q-222 0 -356 127t-134 312q0 113 53 208t156 132
q-174 78 -175 297q0 171 124 289t332 118t332 -119t124 -288q0 -219 -174 -297q102 -37 155 -133t54 -207q0 -180 -134 -310t-357 -129z" />
    <glyph glyph-name="nine.plf" horiz-adv-x="1165" 
d="M317 956q0 -122 75 -206t195 -84q119 0 193 85t74 205t-74 206q-74 85 -193 85q-120 0 -195 -85t-75 -206zM586 1458q223 0 363 -146t141 -356q0 -147 -93 -297l-409 -659h-271l301 455q-242 0 -389 140t-147 355t140 362q141 146 364 146z" />
    <glyph glyph-name="zero.slash" 
d="M862 477v479q0 37 -10 82l-358 -833q43 -18 98 -19q122 0 196 85t74 206zM326 477q0 -51 16 -104l365 848q-57 27 -115 26q-119 0 -193 -85t-73 -206v-479zM1098 956v-479q0 -209 -140 -355t-364 -146t-364 146t-140 355v479q0 210 140 356t364 146t364 -146t140 -356z
" />
    <glyph glyph-name="zero.plfslash" 
d="M862 477v479q0 37 -10 82l-358 -833q43 -18 98 -19q122 0 196 85t74 206zM326 477q0 -51 16 -104l365 848q-57 27 -115 26q-119 0 -193 -85t-73 -206v-479zM1098 477q0 -209 -140 -355t-364 -147q-224 1 -364 147t-140 355v479q0 210 140 356t364 146t363 -146
q140 -146 141 -356v-479z" />
    <glyph glyph-name="commaaccent" horiz-adv-x="512" 
d="M125 141q0 55 39 95q38 40 98 38q60 0 102 -47t42 -123q0 -145 -70 -208t-205 -66v84q78 0 117 31t43 75q-10 -10 -35 -10q-59 0 -95 38t-36 93z" />
    <glyph glyph-name="commaturn" horiz-adv-x="512" 
d="M406 1315q0 -55 -39 -94t-99 -39t-102 47t-41 123q0 144 70 208t204 66v-84q-141 0 -159 -106q10 10 34 10q60 0 96 -38t36 -93z" />
    <glyph glyph-name="E.smcp" horiz-adv-x="1026" 
d="M860 954h-452v-290h452v-189h-452v-282h452v-193h-684v1147h684v-193z" />
    <glyph glyph-name="P.smcp" horiz-adv-x="1134" 
d="M606 524q88 0 144 62t55 152q0 90 -55 152t-142 62h-200v-428h198zM176 0v1147h451q182 0 297 -120q114 -120 114 -290q0 -171 -114 -289t-297 -118h-219v-330h-232z" />
    <glyph glyph-name="W.smcp" horiz-adv-x="1779" 
d="M1135 0l-244 764l-246 -764h-180l-402 1147h244l248 -780l246 780h176l248 -780l248 780h243l-401 -1147h-180z" />
    <glyph glyph-name="N.smcp" horiz-adv-x="1259" 
d="M854 1147h229v-1147h-243l-432 772v-772h-232v1147h246l432 -778v778z" />
    <glyph glyph-name="H.smcp" horiz-adv-x="1245" 
d="M838 0v469h-430v-469h-232v1147h232v-477h430v477h231v-1147h-231z" />
    <glyph glyph-name="I.smcp" horiz-adv-x="587" 
d="M176 0v1147h236v-1147h-236z" />
    <glyph glyph-name="L.smcp" horiz-adv-x="847" 
d="M408 203h337v-203h-569v1147h232v-944z" />
    <glyph glyph-name="M.smcp" horiz-adv-x="1515" 
d="M1339 1147v-1147h-229v711l-264 -711h-172l-271 711v-711h-227v1147h250l334 -823l332 823h247z" />
    <glyph glyph-name="T.smcp" horiz-adv-x="935" 
d="M352 0v944h-270v203h772v-203h-270v-944h-232z" />
    <glyph glyph-name="K.smcp" horiz-adv-x="1163" 
d="M408 0h-232v1147h232v-496l395 496h280l-467 -574l467 -573h-280l-395 494v-494z" />
    <glyph glyph-name="J.smcp" horiz-adv-x="1044" 
d="M879 1147v-762q1 -190 -105 -302t-294 -112t-294 117q-104 117 -104 297h231q0 -95 43 -153t124 -58t125 56t44 155v762h230z" />
    <glyph glyph-name="B.smcp" horiz-adv-x="1136" 
d="M403 674h179q92 0 130 44t38 100t-37 102t-131 45h-179v-291zM590 489h-187v-301h187q92 0 130 46t38 102t-39 105q-39 48 -129 48zM172 0v1147h438q111 0 190 -32q80 -32 116 -86q66 -97 65 -203q0 -108 -55 -168t-127 -78q70 -16 131 -78t61 -173q0 -112 -65 -207
q-37 -54 -116 -88t-189 -34h-449z" />
    <glyph glyph-name="C.smcp" horiz-adv-x="1404" 
d="M729 -29q-276 0 -443 176t-167 424t164 426q164 179 422 179t406 -130t177 -331h-241q-21 113 -105 183t-211 71q-174 0 -275 -116q-102 -116 -102 -282q0 -165 106 -279t288 -114q98 0 182 62t110 151h248q-36 -180 -188 -300t-371 -120z" />
    <glyph glyph-name="V.smcp" horiz-adv-x="1124" 
d="M1065 1147l-408 -1147h-194l-404 1147h246l256 -821l254 821h250z" />
    <glyph glyph-name="Q.smcp" horiz-adv-x="1439" 
d="M719 180q162 0 262 117t100 277t-100 276q-100 117 -262 117t-261 -117q-100 -117 -100 -277q0 -161 100 -277t261 -116zM1321 573q0 -183 -96 -335t-264 -218l98 -133q-68 -37 -203 -104l-137 188q-272 1 -436 179t-164 424t165 423q165 179 436 179t436 -178t165 -425z
" />
    <glyph glyph-name="X.smcp" horiz-adv-x="1083" 
d="M543 758l215 389h256l-340 -574l340 -573h-256l-215 387l-215 -387h-258l340 573l-340 574h258z" />
    <glyph glyph-name="F.smcp" horiz-adv-x="1015" 
d="M860 948h-452v-334h452v-196h-452v-418h-232v1147h684v-199z" />
    <glyph glyph-name="Z.smcp" horiz-adv-x="1118" 
d="M127 948v199h909l-577 -948h565v-199h-938l576 948h-535z" />
    <glyph glyph-name="U.smcp" horiz-adv-x="1185" 
d="M162 387v760h231v-758q-1 -90 55 -152q56 -63 144 -63t145 62t58 153v758h229v-760q0 -176 -119 -296t-313 -120t-312 120t-118 296z" />
    <glyph glyph-name="D.smcp" horiz-adv-x="1290" 
d="M567 944h-159v-741h159q168 0 268 110q99 111 99 261t-99 260q-100 110 -268 110zM176 1147h399q273 0 435 -170q162 -169 162 -403t-162 -404t-435 -170h-399v1147z" />
    <glyph glyph-name="Y.smcp" horiz-adv-x="1144" 
d="M1096 1147l-570 -1147h-256l222 444l-418 703h268l272 -469l226 469h256z" />
    <glyph glyph-name="A.smcp" horiz-adv-x="1140" 
d="M569 825l-149 -493h297zM666 1147l407 -1147h-250l-45 141h-418l-47 -141h-245l403 1147h195z" />
    <glyph glyph-name="Eth.smcp" horiz-adv-x="1290" 
d="M600 666v-183h-192v-280h159q168 0 268 110q99 111 99 261t-99 260q-99 111 -268 110h-159v-278h192zM176 1147h399q269 0 433 -171q164 -170 164 -402t-164 -403q-162 -171 -433 -171h-399v483h-186v183h186v481z" />
    <glyph glyph-name="Lslash.smcp" horiz-adv-x="849" 
d="M410 203h338v-203h-570v414l-69 -29v188l69 27v547h232v-457l245 101v-187l-245 -102v-299z" />
    <glyph glyph-name="G.smcp" horiz-adv-x="1492" 
d="M827 408v184h574v-184h-123q-37 -201 -182 -319t-381 -118q-274 0 -435 176t-161 423t165 426t431 180q211 0 353 -113t157 -275h-242q-12 76 -87 130t-181 55q-164 0 -262 -119q-99 -119 -99 -286q0 -166 100 -282t283 -116q127 0 206 69t95 169h-211z" />
    <glyph glyph-name="Adieresis.smcp" horiz-adv-x="1140" 
d="M233 1399q0 59 42 101q43 42 103 42t102 -42t42 -101t-42 -101t-102 -43q-60 0 -103 42q-42 43 -42 102zM618 1399q0 59 42 101t102 42t103 -42q42 -42 42 -101t-42 -101t-102 -43q-60 0 -103 42q-42 43 -42 102zM569 825l-149 -493h297zM666 1147l407 -1147h-250
l-45 141h-418l-47 -141h-245l403 1147h195z" />
    <glyph glyph-name="Odieresis.smcp" horiz-adv-x="1439" 
d="M525 1544q61 0 103 -42t42 -102t-42 -102t-102 -41q-60 -1 -103 41q-42 42 -42 102t42 102t102 42zM910 1544q60 0 102 -42t43 -102q0 -60 -42 -102q-43 -42 -103 -41q-60 -1 -102 41t-42 102t42 102t102 42zM719 180q162 0 262 117t100 277t-100 276q-100 117 -262 117
t-261 -117q-100 -117 -100 -277q0 -161 100 -277t261 -116zM1321 573q0 -246 -165 -424t-436 -178q-271 1 -436 179t-165 424t165 423q165 179 436 179t436 -178t165 -425z" />
    <glyph glyph-name="Udieresis.smcp" horiz-adv-x="1185" 
d="M252 1399q0 59 43 101t102 42t103 -42t43 -101q0 -59 -43 -101q-42 -42 -102 -43q-60 1 -103 43t-43 101zM639 1399q0 59 42 101t102 42q61 0 103 -42t42 -101t-42 -101t-102 -43q-60 1 -103 43q-42 42 -42 101zM162 387v760h231v-758q-1 -90 55 -152q56 -63 144 -63
t145 62t58 153v758h229v-760q0 -176 -119 -296t-313 -120t-312 120t-118 296z" />
    <glyph glyph-name="Ydieresis.smcp" horiz-adv-x="1144" 
d="M283 1399q0 57 40 98t98 41t99 -41t41 -98t-41 -97t-99 -40t-98 40t-40 97zM668 1399q0 57 41 98t98 41t98 -41t41 -98t-41 -97t-98 -40t-98 40t-41 97zM1096 1147l-570 -1147h-256l222 444l-418 703h268l272 -469l226 469h256z" />
    <glyph glyph-name="Edieresis.smcp" horiz-adv-x="1026" 
d="M201 1399q0 59 43 101t102 42q58 0 102 -42t44 -101t-43 -101t-103 -43q-60 1 -102 43q-43 42 -43 101zM588 1399q0 59 42 101t102 42t102 -42t43 -101q0 -59 -42 -101q-43 -42 -103 -43q-60 1 -102 43t-42 101zM860 954h-452v-290h452v-189h-452v-282h452v-193h-684
v1147h684v-193z" />
    <glyph glyph-name="Aring.smcp" horiz-adv-x="1140" 
d="M571 1479q-31 0 -53 -23q-22 -22 -20 -52q0 -30 22 -50t50 -20q30 0 52 21t22 51t-22 52q-20 22 -51 21zM570 1616q88 0 150 -64t62 -149q0 -87 -61 -149t-149 -62t-151 62t-63 150t62 150t150 62zM569 825l-149 -493h297zM666 1147l407 -1147h-250l-45 141h-418
l-47 -141h-245l403 1147h195z" />
    <glyph glyph-name="Ccedilla.smcp" horiz-adv-x="1404" 
d="M840 -57q47 0 88 -40t41 -105q0 -64 -46 -112t-126 -48t-123 44t-51 101h114q10 -49 58 -49q27 0 43 18t16 45t-16 43t-46 16t-44 -28h-101v147q-242 27 -385 198t-143 409t164 415q164 179 422 179t406 -130t177 -331h-241q-21 113 -105 183t-211 71q-174 0 -275 -116
q-102 -116 -102 -282q0 -165 106 -279t288 -114q98 0 182 62t110 151h248q-35 -172 -174 -289t-344 -129v-53q23 23 70 23z" />
    <glyph glyph-name="Eacute.smcp" horiz-adv-x="1026" 
d="M774 1436l-434 -217l-82 157l434 217zM860 954h-452v-290h452v-189h-452v-282h452v-193h-684v1147h684v-193z" />
    <glyph glyph-name="Ntilde.smcp" horiz-adv-x="1259" 
d="M745 1284q-25 0 -121 22t-123 22q-26 0 -114 -36l-80 135q100 61 174 62q25 0 122 -22q97 -21 130 -21t123 43l74 -131q-90 -74 -185 -74zM854 1147h229v-1147h-243l-432 772v-772h-232v1147h246l432 -778v778z" />
    <glyph glyph-name="Aacute.smcp" horiz-adv-x="1140" 
d="M829 1409l-434 -215l-82 158l435 215zM569 825l-149 -493h297zM666 1147l407 -1147h-250l-45 141h-418l-47 -141h-245l403 1147h195z" />
    <glyph glyph-name="Egrave.smcp" horiz-adv-x="1026" 
d="M717 1194l-432 217l82 158l432 -215zM860 954h-452v-290h452v-189h-452v-282h452v-193h-684v1147h684v-193z" />
    <glyph glyph-name="Ocircumflex.smcp" horiz-adv-x="1439" 
d="M412 1352l307 250l311 -250l-121 -135l-188 151l-186 -149zM719 180q162 0 262 117t100 277t-100 276q-100 117 -262 117t-261 -117q-100 -117 -100 -277q0 -161 100 -277t261 -116zM1321 573q0 -246 -165 -424t-436 -178q-271 1 -436 179t-165 424t165 423
q165 179 436 179t436 -178t165 -425z" />
    <glyph glyph-name="Ucircumflex.smcp" horiz-adv-x="1185" 
d="M276 1352l310 250l309 -250l-121 -135l-188 151l-187 -149zM162 387v760h231v-758q-1 -90 55 -152q56 -63 144 -63t145 62t58 153v758h229v-760q0 -176 -119 -296t-313 -120t-312 120t-118 296z" />
    <glyph glyph-name="AE.smcp" horiz-adv-x="1601" 
d="M745 334v602l-278 -602h278zM1427 954h-450v-290h450v-189h-450v-282h450v-193h-682v143h-366l-64 -143h-252l553 1147h811v-193z" />
    <glyph glyph-name="Ecircumflex.smcp" horiz-adv-x="1026" 
d="M215 1352l307 250l312 -250l-121 -135l-189 151l-186 -149zM860 954h-452v-290h452v-189h-452v-282h452v-193h-684v1147h684v-193z" />
    <glyph glyph-name="Acircumflex.smcp" horiz-adv-x="1140" 
d="M262 1364l307 250l312 -250l-123 -135l-187 151l-186 -149zM569 825l-149 -493h297zM666 1147l407 -1147h-250l-45 141h-418l-47 -141h-245l403 1147h195z" />
    <glyph glyph-name="Oacute.smcp" horiz-adv-x="1439" 
d="M948 1436l-432 -217l-82 157l432 217zM719 180q162 0 262 117t100 277t-100 276q-100 117 -262 117t-261 -117q-100 -117 -100 -277q0 -161 100 -277t261 -116zM1321 573q0 -246 -165 -424t-436 -178q-271 1 -436 179t-165 424t165 423q165 179 436 179t436 -178
t165 -425z" />
    <glyph glyph-name="Ograve.smcp" horiz-adv-x="1439" 
d="M918 1219l-433 217l82 157l432 -217zM719 180q162 0 262 117t100 277t-100 276q-100 117 -262 117t-261 -117q-100 -117 -100 -277q0 -161 100 -277t261 -116zM1321 573q0 -246 -165 -424t-436 -178q-271 1 -436 179t-165 424t165 423q165 179 436 179t436 -178t165 -425
z" />
    <glyph glyph-name="Uacute.smcp" horiz-adv-x="1185" 
d="M817 1436l-432 -217l-82 157l432 217zM162 387v760h231v-758q-1 -90 55 -152q56 -63 144 -63t145 62t58 153v758h229v-760q0 -176 -119 -296t-313 -120t-312 120t-118 296z" />
    <glyph glyph-name="Ugrave.smcp" horiz-adv-x="1185" 
d="M788 1219l-434 217l82 157l434 -217zM162 387v760h231v-758q-1 -90 55 -152q56 -63 144 -63t145 62t58 153v758h229v-760q0 -176 -119 -296t-313 -120t-312 120t-118 296z" />
    <glyph glyph-name="Agrave.smcp" horiz-adv-x="1140" 
d="M774 1217l-432 217l82 157l432 -217zM569 825l-149 -493h297zM666 1147l407 -1147h-250l-45 141h-418l-47 -141h-245l403 1147h195z" />
    <glyph glyph-name="Atilde.smcp" horiz-adv-x="1140" 
d="M702 1284q-24 0 -120 20t-126 21q-30 0 -112 -33l-80 135q100 61 176 62q25 0 121 -23q96 -22 126 -22t128 45l74 -131q-90 -74 -187 -74zM569 825l-149 -493h297zM666 1147l407 -1147h-250l-45 141h-418l-47 -141h-245l403 1147h195z" />
    <glyph glyph-name="Otilde.smcp" horiz-adv-x="1439" 
d="M846 1284q-25 0 -122 20t-126 21q-29 0 -111 -33l-79 135q100 61 174 62q26 0 122 -23q96 -22 126 -22t128 45l72 -131q-90 -74 -184 -74zM719 180q162 0 262 117t100 277t-100 276q-100 117 -262 117t-261 -117q-100 -117 -100 -277q0 -161 100 -277t261 -116zM1321 573
q0 -246 -165 -424t-436 -178q-271 1 -436 179t-165 424t165 423q165 179 436 179t436 -178t165 -425z" />
    <glyph glyph-name="Scaron.smcp" horiz-adv-x="1089" 
d="M549 1241l-281 248l109 135l172 -160l174 160l111 -135zM127 379h231q0 -99 56 -157t136 -58q81 0 129 42t48 93t-14 79q-26 52 -136 93t-153 58t-101 51t-89 67q-74 86 -73 220t114 222q114 87 282 87t272 -104t105 -259h-232q0 80 -40 128q-41 48 -111 48t-114 -34
t-44 -95q0 -100 164 -160q245 -85 323 -168t76 -196q0 -172 -116 -268t-295 -96q-180 0 -299 109q-119 110 -119 298z" />
    <glyph glyph-name="Yacute.smcp" horiz-adv-x="1144" 
d="M895 1434l-432 -217l-82 157l432 217zM1096 1147l-570 -1147h-256l222 444l-418 703h268l272 -469l226 469h256z" />
    <glyph glyph-name="OE.smcp" horiz-adv-x="1931" 
d="M719 176q162 0 262 117t100 277t-100 278q-100 117 -262 117t-261 -117q-100 -117 -100 -278q0 -162 100 -278t261 -116zM1765 954h-450v-290h450v-189h-450v-282h450v-193h-682v131q-113 -162 -373 -162t-426 178q-165 178 -165 424t165 424t435 179q119 0 221 -44
t143 -100v117h682v-193z" />
    <glyph glyph-name="Oslash.smcp" horiz-adv-x="1439" 
d="M719 967q-161 0 -261 -117t-100 -291t123 -287l293 691q-37 4 -55 4zM719 180q162 0 262 117t100 287t-125 290l-297 -690q19 -4 60 -4zM719 -29q-72 0 -144 17l-59 -140l-182 78l57 135q-129 79 -201 217t-71 295q0 246 165 424t435 179q61 0 141 -15l66 154l186 -80
l-65 -150q131 -82 203 -218t71 -294q0 -246 -165 -424t-437 -178z" />
    <glyph glyph-name="Igrave.smcp" horiz-adv-x="587" 
d="M469 1194l-432 215l82 160l432 -217zM176 0v1147h236v-1147h-236z" />
    <glyph glyph-name="Idieresis.smcp" horiz-adv-x="587" 
d="M-25 1399q0 59 42 101q43 42 103 42t102 -42t42 -101t-42 -101t-102 -43q-60 0 -103 42q-42 43 -42 102zM360 1399q0 59 43 101t103 42t102 -42q43 -42 43 -101t-43 -101t-102 -43q-59 0 -103 42q-43 43 -43 102zM176 0v1147h236v-1147h-236z" />
    <glyph glyph-name="Icircumflex.smcp" horiz-adv-x="587" 
d="M-14 1352l307 250l311 -250l-121 -135l-188 151l-186 -149zM176 0v1147h236v-1147h-236z" />
    <glyph glyph-name="Iacute.smcp" horiz-adv-x="587" 
d="M551 1409l-432 -215l-82 158l432 215zM176 0v1147h236v-1147h-236z" />
    <glyph glyph-name="Zcaron.smcp" horiz-adv-x="1118" 
d="M127 948v199h909l-577 -948h565v-199h-938l576 948h-535zM563 1190l-280 250l108 135l172 -160l174 160l111 -135z" />
    <glyph glyph-name="R.smcp" horiz-adv-x="1161" 
d="M606 524q88 0 144 62t55 152q0 90 -55 152t-142 62h-200v-428h198zM176 0v1147h451q182 0 297 -120t114 -290q0 -123 -62 -222t-171 -148l227 -367h-266l-205 330h-153v-330h-232z" />
    <glyph glyph-name="O.smcp" horiz-adv-x="1439" 
d="M719 180q162 0 262 117t100 277t-100 276q-100 117 -262 117t-261 -117q-100 -117 -100 -277q0 -161 100 -277t261 -116zM1321 573q0 -246 -165 -424t-436 -178q-271 1 -436 179t-165 424t165 423q165 179 436 179t436 -178t165 -425z" />
    <glyph glyph-name="S.smcp" horiz-adv-x="1089" 
d="M127 379h231q0 -99 56 -157t136 -58q81 0 129 42t48 93t-14 79q-26 52 -136 93t-153 58t-101 51t-89 67q-74 86 -73 220t112 222q112 87 280 87t274 -104t107 -259h-232q0 80 -40 128q-41 48 -111 48t-114 -34t-44 -95q0 -100 164 -160q245 -85 323 -168t76 -196
q0 -172 -116 -268t-295 -96q-180 0 -299 109q-119 110 -119 298z" />
    <glyph glyph-name="Amacron.smcp" horiz-adv-x="1140" 
d="M866 1483v-176h-596v176h596zM569 825l-149 -493h297zM666 1147l407 -1147h-250l-45 141h-418l-47 -141h-245l403 1147h195z" />
    <glyph glyph-name="Emacron.smcp" horiz-adv-x="1026" 
d="M811 1483v-176h-596v176h596zM860 954h-452v-290h452v-189h-452v-282h452v-193h-684v1147h684v-193z" />
    <glyph glyph-name="Omacron.smcp" horiz-adv-x="1439" 
d="M1018 1483v-176h-596v176h596zM719 180q162 0 262 117t100 277t-100 276q-100 117 -262 117t-261 -117q-100 -117 -100 -277q0 -161 100 -277t261 -116zM1321 573q0 -246 -165 -424t-436 -178q-271 1 -436 179t-165 424t165 423q165 179 436 179t436 -178t165 -425z" />
    <glyph glyph-name="Umacron.smcp" horiz-adv-x="1185" 
d="M891 1499v-176h-596v176h596zM162 387v760h231v-758q-1 -90 55 -152q56 -63 144 -63t145 62t58 153v758h229v-760q0 -176 -119 -296t-313 -120t-312 120t-118 296z" />
    <glyph glyph-name="Imacron.smcp" horiz-adv-x="587" 
d="M592 1483v-176h-596v176h596zM174 0v1147h238v-1147h-238z" />
    <glyph glyph-name="Dcroat.smcp" horiz-adv-x="1290" 
d="M594 662v-177h-186v-282h161q166 0 267 110q100 111 100 261t-100 260q-100 111 -267 110h-161v-282h186zM176 1147h399q273 0 435 -170q162 -169 162 -403t-162 -404t-435 -170h-399v485h-178v177h178v485z" />
    <glyph glyph-name="Ecaron.smcp" horiz-adv-x="1026" 
d="M512 1217l-283 249l109 136l174 -160l174 160l109 -136zM860 954h-452v-290h452v-189h-452v-282h452v-193h-684v1147h684v-193z" />
    <glyph glyph-name="Dcaron.smcp" horiz-adv-x="1290" 
d="M616 1217l-282 249l108 136l174 -160l175 160l110 -136zM567 944h-159v-741h159q168 0 268 110q99 111 99 261t-99 260q-100 110 -268 110zM176 1147h399q273 0 435 -170q162 -169 162 -403t-162 -404t-435 -170h-399v1147z" />
    <glyph glyph-name="Ccaron.smcp" horiz-adv-x="1404" 
d="M700 1223l-280 247l108 136l172 -158l174 158l111 -136zM729 -29q-276 0 -443 176t-167 424t164 426q164 179 422 179t406 -130t177 -331h-241q-21 113 -105 183t-211 71q-174 0 -275 -116q-102 -116 -102 -282q0 -165 106 -279t288 -114q98 0 182 62t110 151h248
q-36 -180 -188 -300t-371 -120z" />
    <glyph glyph-name="Ccircumflex.smcp" horiz-adv-x="1404" 
d="M406 1366l309 248l309 -248l-121 -135l-188 149l-187 -147zM729 -29q-276 0 -443 176t-167 424t164 426q164 179 422 179t406 -130t177 -331h-241q-21 113 -105 183t-211 71q-174 0 -275 -116q-102 -116 -102 -282q0 -165 106 -279t288 -114q98 0 182 62t110 151h248
q-36 -180 -188 -300t-371 -120z" />
    <glyph glyph-name="AEacute.smcp" horiz-adv-x="1601" 
d="M1159 1436l-432 -217l-82 157l432 217zM745 334v602l-278 -602h278zM1427 954h-450v-290h450v-189h-450v-282h450v-193h-682v143h-366l-64 -143h-252l553 1147h811v-193z" />
    <glyph glyph-name="Cacute.smcp" horiz-adv-x="1404" 
d="M961 1436l-435 -217l-82 157l435 217zM729 -29q-276 0 -443 176t-167 424t164 426q164 179 422 179t406 -130t177 -331h-241q-21 113 -105 183t-211 71q-174 0 -275 -116q-102 -116 -102 -282q0 -165 106 -279t288 -114q98 0 182 62t110 151h248q-36 -180 -188 -300
t-371 -120z" />
    <glyph glyph-name="Hcircumflex.smcp" horiz-adv-x="1245" 
d="M311 1354l312 248l309 -248l-123 -135l-186 151l-187 -149zM838 0v469h-430v-469h-232v1147h232v-477h430v477h231v-1147h-231z" />
    <glyph glyph-name="Nacute.smcp" horiz-adv-x="1259" 
d="M887 1436l-432 -217l-82 157l432 217zM854 1147h229v-1147h-243l-432 772v-772h-232v1147h246l432 -778v778z" />
    <glyph glyph-name="Ncaron.smcp" horiz-adv-x="1259" 
d="M629 1217l-281 249l109 136l172 -160l174 160l110 -136zM854 1147h229v-1147h-243l-432 772v-772h-232v1147h246l432 -778v778z" />
    <glyph glyph-name="Rcaron.smcp" horiz-adv-x="1161" 
d="M553 1221l-283 247l109 136l174 -158l174 158l109 -136zM608 952h-200v-428h198q88 0 144 62t55 152q0 89 -55 152q-56 62 -142 62zM176 0v1147h451q182 0 297 -120t114 -290q0 -123 -62 -222t-171 -148l227 -367h-266l-205 330h-153v-330h-232z" />
    <glyph glyph-name="Lacute.smcp" horiz-adv-x="847" 
d="M551 1436l-432 -217l-82 157l432 217zM406 203h339v-203h-569v1147h230v-944z" />
    <glyph glyph-name="Lcaron.smcp" horiz-adv-x="847" 
d="M287 1217l-281 249l109 136l172 -160l176 160l108 -136zM406 203h339v-203h-569v1147h230v-944z" />
    <glyph glyph-name="Racute.smcp" horiz-adv-x="1161" 
d="M838 1436l-432 -217l-82 157l432 217zM608 952h-200v-428h198q88 0 144 62t55 152q0 89 -55 152q-56 62 -142 62zM176 0v1147h451q182 0 297 -120t114 -290q0 -123 -62 -222t-171 -148l227 -367h-266l-205 330h-153v-330h-232z" />
    <glyph glyph-name="Sacute.smcp" horiz-adv-x="1089" 
d="M801 1436l-432 -217l-82 157l432 217zM127 379h231q0 -99 56 -157t136 -58q81 0 129 42t48 93t-14 79q-26 52 -136 93t-153 58t-101 51t-89 67q-74 86 -73 220t112 222q112 87 280 87t274 -104t107 -259h-232q0 80 -40 128q-41 48 -111 48t-114 -34t-44 -95
q0 -100 164 -160q245 -85 323 -168t76 -196q0 -172 -116 -268t-295 -96q-180 0 -299 109q-119 110 -119 298z" />
    <glyph glyph-name="Scircumflex.smcp" horiz-adv-x="1089" 
d="M238 1354l309 248l309 -248l-123 -135l-186 151l-187 -149zM127 379h231q0 -99 56 -157t136 -58q81 0 129 42t48 93t-14 79q-26 52 -136 93t-153 58t-101 51t-89 67q-74 86 -73 220t112 222q112 87 280 87t274 -104t107 -259h-232q0 80 -40 128q-41 48 -111 48t-114 -34
t-44 -95q0 -100 164 -160q245 -85 323 -168t76 -196q0 -172 -116 -268t-295 -96q-180 0 -299 109q-119 110 -119 298z" />
    <glyph glyph-name="Tcaron.smcp" horiz-adv-x="935" 
d="M467 1221l-283 247l109 136l174 -158l174 158l111 -136zM352 0v944h-270v203h772v-203h-270v-944h-232z" />
    <glyph glyph-name="Wgrave.smcp" horiz-adv-x="1779" 
d="M1065 1219l-432 217l82 157l432 -217zM1135 0l-244 764l-246 -764h-180l-402 1147h244l248 -780l246 780h176l248 -780l248 780h243l-401 -1147h-180z" />
    <glyph glyph-name="Wacute.smcp" horiz-adv-x="1779" 
d="M1147 1436l-432 -217l-82 157l432 217zM1135 0l-244 764l-246 -764h-180l-402 1147h244l248 -780l246 780h176l248 -780l248 780h243l-401 -1147h-180z" />
    <glyph glyph-name="Wcircumflex.smcp" horiz-adv-x="1779" 
d="M580 1354l309 248l309 -248l-121 -135l-188 151l-187 -149zM1135 0l-244 764l-246 -764h-180l-402 1147h244l248 -780l246 780h176l248 -780l248 780h243l-401 -1147h-180z" />
    <glyph glyph-name="Ycircumflex.smcp" horiz-adv-x="1144" 
d="M264 1354l309 248l310 -248l-123 -135l-187 151l-186 -149zM1096 1147l-570 -1147h-256l222 444l-418 703h268l272 -469l226 469h256z" />
    <glyph glyph-name="Zacute.smcp" horiz-adv-x="1118" 
d="M819 1436l-432 -217l-82 157l432 217zM127 948v199h909l-577 -948h565v-199h-938l576 948h-535z" />
    <glyph glyph-name="Eng.smcp" horiz-adv-x="1259" 
d="M684 -201q80 1 123 55t45 146l-444 772v-772h-232v1147h232l446 -778v778h229v-1137q0 -190 -105 -301t-281 -111t-287 128l139 143q35 -35 47 -41t20 -12t16 -7t17 -5q11 -4 35 -5z" />
    <glyph glyph-name="Tcommaaccent.smcp" horiz-adv-x="935" 
d="M348 -144q0 48 35 83t87 35t89 -43q37 -42 37 -107q0 -129 -61 -185t-181 -57v74q129 0 142 94q-10 -10 -46 -10t-69 34t-33 82zM352 0v944h-270v203h772v-203h-270v-944h-232z" />
    <glyph glyph-name="uni021A.smcp" horiz-adv-x="935" 
d="M348 -144q0 48 35 83t87 35t89 -43q37 -42 37 -107q0 -129 -61 -185t-181 -57v74q129 0 142 94q-10 -10 -46 -10t-69 34t-33 82zM352 0v944h-270v203h772v-203h-270v-944h-232z" />
    <glyph glyph-name="Gcommaaccent.smcp" horiz-adv-x="1492" 
d="M600 -162q0 49 35 83t87 34t89 -42t37 -108q0 -127 -62 -183t-180 -58v74q129 0 142 94q-8 -8 -46 -8t-70 32t-32 82zM827 408v184h574v-184h-123q-37 -201 -182 -319t-381 -118q-274 0 -435 176t-161 423t165 426t431 180q211 0 353 -113t157 -275h-242q-12 76 -87 130
t-181 55q-164 0 -262 -119q-99 -119 -99 -286q0 -166 100 -282t283 -116q127 0 206 69t95 169h-211z" />
    <glyph glyph-name="Kcommaaccent.smcp" horiz-adv-x="1163" 
d="M469 -144q0 48 34 83t86 35t89 -43q37 -42 37 -107q1 -129 -61 -185t-181 -57v74q129 0 141 94q-10 -10 -46 -10t-67 34q-32 34 -32 82zM408 0h-232v1147h232v-496l395 496h280l-467 -574l467 -573h-280l-395 494v-494z" />
    <glyph glyph-name="Lcommaaccent.smcp" horiz-adv-x="847" 
d="M301 -144q0 48 34 83t86 35t89 -43q37 -42 37 -107q1 -129 -61 -185t-181 -57v74q129 0 141 94q-10 -10 -46 -10t-67 34q-32 34 -32 82zM176 0v1147h232v-944h337v-203h-569z" />
    <glyph glyph-name="Ncommaaccent.smcp" horiz-adv-x="1259" 
d="M506 -144q0 48 34 83t87 35t90 -43q37 -42 37 -107q0 -129 -62 -185t-180 -57v74q131 0 139 94q-5 -10 -43 -10t-70 34t-32 82zM1083 0h-243l-432 772v-772h-232v1147h246l432 -778v778h229v-1147z" />
    <glyph glyph-name="Rcommaaccent.smcp" horiz-adv-x="1161" 
d="M457 -144q0 48 35 83q34 35 86 35t90 -43q38 -42 37 -107q1 -129 -61 -185t-181 -57v74q129 0 141 94q-10 -10 -46 -10t-69 34q-32 34 -32 82zM608 952h-200v-428h198q88 0 144 62t55 152q0 89 -55 152q-56 62 -142 62zM176 0v1147h451q182 0 297 -120t114 -290
q0 -123 -62 -222t-171 -148l227 -367h-266l-205 330h-153v-330h-232z" />
    <glyph glyph-name="Scommaaccent.smcp" horiz-adv-x="1089" 
d="M424 -162q0 49 34 83t87 34t90 -42t37 -108q0 -127 -62 -183t-180 -58v74q127 0 139 94q-5 -8 -43 -8t-70 32t-32 82zM127 379h231q0 -99 56 -157t136 -58q81 0 129 42t48 93t-14 79q-26 52 -136 93t-153 58t-101 51t-89 67q-74 86 -73 220t112 222q112 87 280 87
t274 -104t107 -259h-232q0 80 -40 128q-41 48 -111 48t-114 -34t-44 -95q0 -100 164 -160q245 -85 323 -168t76 -196q0 -172 -116 -268t-295 -96q-180 0 -299 109q-119 110 -119 298z" />
    <glyph glyph-name="Ygrave.smcp" horiz-adv-x="1144" 
d="M748 1219l-433 217l82 157l432 -217zM1096 1147l-570 -1147h-256l222 444l-418 703h268l272 -469l226 469h256z" />
    <glyph glyph-name="Idotaccent.smcp" horiz-adv-x="587" 
d="M150 1413q0 59 41 103q43 43 103 43t102 -43q42 -42 42 -102t-42 -102t-102 -42t-103 42q-41 42 -41 101zM176 0v1147h236v-1147h-236z" />
    <glyph glyph-name="Jcircumflex.smcp" horiz-adv-x="1044" 
d="M455 1352l309 250l309 -250l-123 -135l-186 151l-186 -149zM879 1147v-762q1 -190 -105 -302t-294 -112t-294 117q-104 117 -104 297h231q0 -95 43 -153t124 -58t125 56t44 155v762h230z" />
    <glyph glyph-name="IJ.smcp" horiz-adv-x="1509" 
d="M176 0v1147h236v-1147h-236zM1343 1147v-762q0 -188 -106 -301q-105 -113 -293 -113t-293 117q-104 117 -104 297h229q0 -95 43 -153t125 -58t125 56t43 155v762h231z" />
    <glyph glyph-name="Ldot.smcp" horiz-adv-x="872" 
d="M516 527q0 63 44 107t108 44t107 -44q44 -44 44 -106t-44 -106q-44 -43 -107 -43t-108 43q-44 43 -44 105zM408 203h337v-203h-569v1147h232v-944z" />
    <glyph glyph-name="Cdotaccent.smcp" horiz-adv-x="1404" 
d="M567 1413q0 59 43 103q42 44 102 43q60 0 103 -43q43 -42 43 -102t-43 -102t-102 -42t-103 42q-43 42 -43 101zM729 -29q-276 0 -443 176t-167 424t164 426q164 179 422 179t406 -130t177 -331h-241q-21 113 -105 183t-211 71q-174 0 -275 -116q-102 -116 -102 -282
q0 -165 106 -279t288 -114q98 0 182 62t110 151h248q-36 -180 -188 -300t-371 -120z" />
    <glyph glyph-name="Edotaccent.smcp" horiz-adv-x="1026" 
d="M369 1413q0 59 42 103t102 43q60 0 102 -43q42 -42 42 -102t-42 -102t-102 -42t-102 42t-42 101zM860 954h-452v-290h452v-189h-452v-282h452v-193h-684v1147h684v-193z" />
    <glyph glyph-name="Gdotaccent.smcp" horiz-adv-x="1492" 
d="M571 1413q0 59 42 103q43 44 103 43q60 0 102 -43q42 -42 42 -102t-42 -102t-102 -42t-103 42q-42 42 -42 101zM827 408v184h574v-184h-123q-37 -201 -182 -319t-381 -118q-274 0 -435 176t-161 423t165 426t431 180q211 0 353 -113t157 -275h-242q-12 76 -87 130
t-181 55q-164 0 -262 -119q-99 -119 -99 -286q0 -166 100 -282t283 -116q127 0 206 69t95 169h-211z" />
    <glyph glyph-name="Gcircumflex.smcp" horiz-adv-x="1492" 
d="M406 1358l309 248l311 -248l-123 -135l-188 151l-187 -149zM827 408v184h574v-184h-123q-37 -201 -182 -319t-381 -118q-274 0 -435 176t-161 423t165 426t431 180q211 0 353 -113t157 -275h-242q-12 76 -87 130t-181 55q-164 0 -262 -119q-99 -119 -99 -286
q0 -166 100 -282t283 -116q127 0 206 69t95 169h-211z" />
    <glyph glyph-name="Wdieresis.smcp" horiz-adv-x="1779" 
d="M557 1419q0 57 40 99t98 41q57 0 99 -41q42 -40 42 -98t-41 -99t-99 -41t-99 41q-40 41 -40 98zM942 1419q0 57 41 99t98 41q57 0 99 -41q42 -40 41 -98q0 -58 -41 -99q-40 -41 -98 -41t-99 41t-41 98zM1135 0l-244 764l-246 -764h-180l-402 1147h244l248 -780l246 780
h176l248 -780l248 780h243l-401 -1147h-180z" />
    <glyph glyph-name="Zdotaccent.smcp" horiz-adv-x="1118" 
d="M416 1413q0 59 43 103t102 43q59 0 103 -43q44 -42 43 -102q0 -60 -43 -102q-42 -42 -102 -42t-103 42t-43 101zM127 948v199h909l-577 -948h565v-199h-938l576 948h-535z" />
    <glyph glyph-name="Aogonek.smcp" horiz-adv-x="1140" 
d="M569 825l-149 -493h297zM694 -188q0 96 129 188l-45 141h-418l-47 -141h-245l403 1147h195l407 -1147h-100q-92 -59 -92 -127q0 -37 20 -63q19 -26 61 -25q42 0 85 20v-129q-78 -24 -164 -24t-138 46q-51 46 -51 114z" />
    <glyph glyph-name="Eogonek.smcp" horiz-adv-x="1024" 
d="M582 -188q0 96 129 188h-535v1147h684v-193h-452v-290h452v-189h-452v-282h452v-193q-92 -59 -92 -127q0 -37 20 -63t62 -25q42 0 84 20l-2 -129q-78 -24 -163 -24t-136 46t-51 114z" />
    <glyph glyph-name="Iogonek.smcp" horiz-adv-x="587" 
d="M236 -127q0 -37 20 -63t61 -25q41 0 84 20v-129q-77 -24 -163 -24t-138 46q-51 46 -51 114q0 98 127 188v1147h236v-1147h-84q-92 -59 -92 -127z" />
    <glyph glyph-name="Uogonek.smcp" horiz-adv-x="1185" 
d="M406 -179q0 77 100 156q-156 27 -250 142t-94 268v760h231v-758q-1 -90 55 -152q56 -63 144 -63t145 62t58 153v758h229v-760q0 -163 -102 -279t-273 -133q-57 -43 -57 -91q0 -99 76 -99q45 0 92 20l-2 -129q-78 -24 -164 -24t-137 46t-51 123z" />
    <glyph glyph-name="Scedilla.smcp" horiz-adv-x="1089" 
d="M127 379h231q0 -99 56 -157t136 -58q81 0 129 42t48 93t-14 79q-26 52 -136 93t-153 58t-101 51t-89 67q-74 86 -73 220t112 222q112 87 280 87t274 -104t107 -259h-232q0 80 -40 128q-41 48 -111 48t-114 -34t-44 -95q0 -100 164 -160q245 -85 323 -168t76 -196
q0 -158 -96 -251t-256 -110v-75q23 22 70 22t88 -40t41 -104t-46 -113q-46 -48 -126 -48t-123 45t-51 102h114q12 -49 58 -49q27 -1 43 17t16 45t-16 43t-46 16t-44 -26h-99v165q-158 18 -257 125t-99 279z" />
    <glyph glyph-name="Itilde.smcp" horiz-adv-x="587" 
d="M420 1284q-25 0 -121 20t-126 21q-30 0 -112 -33l-79 135q100 61 176 62q25 0 121 -23q95 -22 125 -22t128 45l74 -131q-92 -74 -186 -74zM176 0v1147h236v-1147h-236z" />
    <glyph glyph-name="Ibreve.smcp" horiz-adv-x="587" 
d="M294 1389q122 0 163 98h188q-15 -119 -117 -195t-233 -76t-231 76t-119 195h186q41 -98 163 -98zM176 0v1147h236v-1147h-236z" />
    <glyph glyph-name="Abreve.smcp" horiz-adv-x="1140" 
d="M570 1389q120 0 161 98h189q-16 -119 -116 -195t-234 -76q-132 0 -232 76t-119 195h187q44 -98 164 -98zM569 825l-149 -493h297zM666 1147l407 -1147h-250l-45 141h-418l-47 -141h-245l403 1147h195z" />
    <glyph glyph-name="Ebreve.smcp" horiz-adv-x="1026" 
d="M514 1214q-130 0 -230 76t-120 195h186q41 -99 163 -99t163 99h188q-16 -119 -118 -195t-232 -76zM858 954h-450v-290h450v-189h-450v-282h450v-193h-682v1147h682v-193z" />
    <glyph glyph-name="Ubreve.smcp" horiz-adv-x="1185" 
d="M593 1391q122 0 163 98h186q-14 -119 -116 -195t-232 -76q-131 0 -229 76t-121 195h186q41 -98 163 -98zM162 387v760h231v-758q-1 -90 55 -152q56 -63 144 -63t145 62t58 153v758h229v-760q0 -176 -119 -296t-313 -120t-312 120t-118 296z" />
    <glyph glyph-name="Obreve.smcp" horiz-adv-x="1439" 
d="M720 1214q-132 0 -231 76q-98 76 -118 195h184q45 -99 165 -99t163 99h186q-13 -119 -115 -195t-234 -76zM719 180q162 0 262 117t100 277t-100 276q-100 117 -262 117t-261 -117q-100 -117 -100 -277q0 -161 100 -277t261 -116zM1321 573q0 -246 -165 -424t-436 -178
q-271 1 -436 179t-165 424t165 423q165 179 436 179t436 -178t165 -425z" />
    <glyph glyph-name="Gbreve.smcp" horiz-adv-x="1492" 
d="M714 1391q124 0 163 98h188q-15 -119 -117 -195t-233 -76t-231 76q-99 76 -119 195h186q39 -98 163 -98zM827 408v184h574v-184h-123q-37 -201 -182 -319t-381 -118q-274 0 -435 176t-161 423t165 426t431 180q211 0 353 -113t157 -275h-242q-12 76 -87 130t-181 55
q-164 0 -262 -119q-99 -119 -99 -286q0 -166 100 -282t283 -116q127 0 206 69t95 169h-211z" />
    <glyph glyph-name="Uring.smcp" horiz-adv-x="1185" 
d="M594 1479q-30 0 -52 -23q-22 -22 -22 -52t22 -50t52 -20t50 21q22 21 22 51t-20 52t-52 21zM381 1404q1 88 63 150t149 62t149 -64t62 -149q0 -87 -60 -149q-62 -62 -150 -62t-151 62q-62 62 -62 150zM162 387v760h231v-758q-1 -90 55 -152q56 -63 144 -63t145 62t58 153
v758h229v-760q0 -176 -119 -296t-313 -120t-312 120t-118 296z" />
    <glyph glyph-name="Utilde.smcp" horiz-adv-x="1185" 
d="M719 1284q-25 0 -121 20t-126 21q-30 0 -112 -33l-79 135q100 61 174 62q25 0 122 -23q97 -22 127 -22t127 45l74 -131q-92 -74 -186 -74zM162 387v760h231v-758q-1 -90 55 -152q56 -63 144 -63t145 62t58 153v758h229v-760q0 -176 -119 -296t-313 -120t-312 120
t-118 296z" />
    <glyph glyph-name="Uhungarumlaut.smcp" horiz-adv-x="1185" 
d="M303 1311l205 284l168 -92l-279 -237zM623 1311l204 284l168 -92l-278 -237zM162 387v760h231v-758q-1 -90 55 -152q56 -63 144 -63t145 62t58 153v758h229v-760q0 -176 -119 -296t-313 -120t-312 120t-118 296z" />
    <glyph glyph-name="Ohungarumlaut.smcp" horiz-adv-x="1439" 
d="M410 1311l204 284l168 -92l-278 -237zM729 1311l205 284l168 -92l-279 -237zM719 180q162 0 262 117t100 277t-100 276q-100 117 -262 117t-261 -117q-100 -117 -100 -277q0 -161 100 -277t261 -116zM1321 573q0 -246 -165 -424t-436 -178q-271 1 -436 179t-165 424
t165 423q165 179 436 179t436 -178t165 -425z" />
    <glyph glyph-name="Hbar.smcp" horiz-adv-x="1241" 
d="M838 670v153h-430v-153h430zM176 1147h232v-168h430v168h231v-1147h-231v469h-430v-469h-232v1147z" />
    <glyph glyph-name="Oslashacute.smcp" horiz-adv-x="1439" 
d="M977 1436l-434 -217l-82 157l434 217zM719 967q-161 0 -261 -117t-100 -291t123 -287l293 691q-37 4 -55 4zM719 180q162 0 262 117t100 287t-125 290l-297 -690q19 -4 60 -4zM719 -29q-72 0 -144 17l-59 -140l-182 78l57 135q-129 79 -201 217t-71 295q0 246 165 424
t435 179q61 0 141 -15l66 154l186 -80l-65 -150q131 -82 203 -218t71 -294q0 -246 -165 -424t-437 -178z" />
    <glyph glyph-name="Tbar.smcp" horiz-adv-x="935" 
d="M766 793v-175h-182v-618h-232v618h-182v175h182v151h-270v203h772v-203h-270v-151h182z" />
    <glyph glyph-name="Aringacute.smcp" horiz-adv-x="1140" 
d="M567 1282q-18 0 -30 -13q-13 -13 -13 -31t12 -30t30 -12q17 0 30 13q12 13 12 31t-11 30q-12 12 -30 12zM772 1509l-395 -204l-53 98l397 203zM717 332l-148 493l-149 -493h297zM692 1242q0 -46 -41 -91l15 -4l407 -1147h-250l-45 141h-418l-47 -141h-245l403 1145h14
q-45 35 -45 89t37 91t89 37t89 -37t37 -83z" />
    <glyph glyph-name="Thorn.smcp" horiz-adv-x="978" 
d="M383 766v-401h82q90 0 144 59t55 141q0 81 -54 141t-145 60h-82zM383 1147v-201h82q188 0 299 -112q110 -112 110 -269t-110 -269t-299 -112h-82v-184h-211v1147h211z" />
    <glyph glyph-name="slash.smcp" horiz-adv-x="901" 
d="M68 -29l583 1358l205 -86l-586 -1360z" />
    <glyph glyph-name="backslash.smcp" horiz-adv-x="901" 
d="M260 1329l586 -1358l-205 -88l-584 1360z" />
    <glyph glyph-name="bracketleft.smcp" horiz-adv-x="731" 
d="M557 -373h-381v1657h381v-190h-162v-1276h162v-191z" />
    <glyph glyph-name="bracketright.smcp" horiz-adv-x="731" 
d="M555 -373h-381v191h164v1274h-164v192h381v-1657z" />
    <glyph glyph-name="question.smcp" horiz-adv-x="987" 
d="M305 128q0 64 45 110t111 45q65 0 111 -45t46 -110t-46 -110t-112 -45t-110 45q-45 46 -45 110zM633 858q0 56 -42 90t-111 35q-70 0 -112 -44t-42 -132h-230q0 164 106 263t271 99q166 0 277 -87t110 -236q0 -72 -18 -108l-29 -58q-11 -23 -46 -56q-35 -32 -39 -35
t-23 -20l-19 -14q-72 -57 -92 -95t-21 -124h-225q2 114 30 182t107 125q45 33 70 53t51 62q26 44 27 100z" />
    <glyph glyph-name="ampersand.smcp" horiz-adv-x="1134" 
d="M621 381v188h417v-188h-82q-2 -184 -118 -294t-289 -110q-174 -1 -297 97t-123 264t186 260q-164 78 -163 254q0 145 111 231t281 86t272 -102t104 -260h-232q0 176 -162 176q-66 0 -106 -35t-39 -100q0 -154 176 -154v-188q-197 0 -197 -176q0 -64 50 -112t130 -48
q79 0 133 57t56 154h-108z" />
    <glyph glyph-name="parenleft.smcp" horiz-adv-x="768" 
d="M645 1284v-201q-94 -1 -152 -67t-59 -162v-813q0 -96 58 -163t153 -66v-201q-197 0 -317 125t-121 305v813q1 180 121 305t317 125z" />
    <glyph glyph-name="parenright.smcp" horiz-adv-x="768" 
d="M123 1083v201q197 0 317 -125t121 -305v-813q0 -180 -121 -305t-317 -125v201q96 0 155 66q58 67 58 163v813q0 96 -58 163q-59 66 -155 66z" />
    <glyph glyph-name="germandbls.smcp" horiz-adv-x="1075" 
d="M561 162q60 0 113 46t53 120t-47 128t-137 54h-54v180h50q86 0 126 44t40 110q1 66 -47 107q-48 40 -118 40t-113 -51q-44 -51 -44 -133v-807h-223v807q0 158 101 260t271 102t284 -86q112 -86 112 -231q0 -188 -174 -254q84 -32 140 -104t56 -168q0 -166 -108 -256
t-264 -90q-87 0 -140 20v176q63 -14 123 -14z" />
    <glyph glyph-name="bar.smcp" horiz-adv-x="571" 
d="M395 -319h-219v1603h219v-1603z" />
    <glyph glyph-name="braceleft.smcp" horiz-adv-x="890" 
d="M567 1284h144v-172h-70q-100 0 -100 -129v-356q-1 -91 -55 -137t-109 -50q164 -27 164 -200v-314q0 -129 100 -129h70v-170h-144q-104 0 -176 65t-72 181v326q0 73 -46 109t-99 36v188q53 0 99 34t46 102v368q0 116 73 182t175 66z" />
    <glyph glyph-name="braceright.smcp" horiz-adv-x="890" 
d="M180 1284h144q104 0 176 -66t71 -182v-368q0 -68 46 -102t100 -34v-188q-53 0 -99 -36t-47 -109v-326q1 -117 -71 -181t-176 -65h-144v170h70q102 0 102 129v314q0 174 162 200q-55 4 -108 49t-54 138v356q0 129 -102 129h-70v172z" />
    <glyph glyph-name="questiondown.smcp" horiz-adv-x="987" 
d="M682 1020q0 -62 -45 -108t-109 -46t-111 45q-46 45 -46 109t46 109q47 47 111 47t109 -46t45 -110zM639 813q0 -113 -28 -181t-90 -113q-62 -43 -87 -65q-24 -22 -52 -64t-28 -98t42 -92q42 -34 111 -34t111 44t44 132h229q1 -164 -105 -263t-272 -99t-276 87t-111 236
q0 99 54 171q15 19 25 33t33 33t44 38l20 16q72 57 91 95t20 124h225z" />
    <glyph glyph-name="brokenbar.smcp" horiz-adv-x="716" 
d="M176 385h219v-704h-219v704zM395 584h-219v700h219v-700z" />
    <glyph glyph-name="exclam.smcp" horiz-adv-x="655" 
d="M172 128q0 64 45 110t111 45q66 0 110 -45t45 -110q0 -65 -45 -110q-44 -45 -110 -45t-111 45q-45 46 -45 110zM211 383v764h235v-764h-235z" />
    <glyph glyph-name="exclamdown.smcp" horiz-adv-x="653" 
d="M178 1012q0 61 44 106t108 45t107 -45q44 -45 44 -106q0 -60 -44 -106t-107 -46t-108 45q-44 46 -44 107zM213 -4v758h236v-758h-236z" />
    <glyph glyph-name="ordfeminine.smcp" horiz-adv-x="1140" 
d="M544 170q91 0 147 63q57 63 57 155t-56 156t-148 64t-148 -63t-56 -155t56 -157q57 -63 148 -63zM748 778h219v-778h-219v109q-31 -55 -100 -93t-140 -36q-170 0 -279 118t-109 290q0 173 109 291t279 118q72 0 140 -36t100 -91v108z" />
    <glyph glyph-name="ordmasculine.smcp" horiz-adv-x="1083" 
d="M542 170q91 0 147 63t56 155t-56 156t-147 64q-92 0 -148 -63t-56 -155t56 -157q57 -63 148 -63zM541 -20q-190 0 -307 118q-116 119 -115 291q0 172 115 291q116 119 306 119t308 -119q117 -119 117 -291q0 -173 -117 -291t-307 -118z" />
    <glyph glyph-name="one.numerator" horiz-adv-x="577" 
d="M94 1167v129q109 0 148 32t39 106h159v-789h-184v522h-162z" />
    <glyph glyph-name="two.numerator" horiz-adv-x="772" 
d="M113 645q0 176 51 260t162 150q112 67 136 99t23 71q0 88 -90 88q-100 0 -100 -115h-180q1 112 75 182t198 70t200 -59t76 -179t-152 -226q-10 -7 -74 -48t-92 -71q-27 -30 -27 -74h340v-148h-546z" />
    <glyph glyph-name="four.numerator" horiz-adv-x="808" 
d="M440 645v219h-313v570h180v-418h133v219h181v-219h96v-152h-96v-219h-181z" />
    <glyph glyph-name="three.numerator" horiz-adv-x="800" 
d="M98 909h181q1 -63 33 -99t84 -36t80 31t28 74q0 109 -117 108h-70v141h70q105 0 105 92t-91 93q-100 0 -100 -115h-180q-1 108 69 180t197 72t206 -58t79 -163q0 -63 -33 -109t-84 -65q57 -19 93 -69t36 -120q0 -110 -82 -174t-213 -64t-211 78q-80 76 -80 203z" />
    <glyph glyph-name="plus.numerator" horiz-adv-x="813" 
d="M479 725h-145v172h-168v137h168v172h145v-172h168v-137h-168v-172z" />
    <glyph glyph-name="parenleft.numerator" horiz-adv-x="571" 
d="M469 1518v-154q-65 0 -105 -45t-40 -111v-514q0 -66 40 -110t105 -45v-154q-145 0 -233 89t-89 220v514q1 130 89 220t233 90z" />
    <glyph glyph-name="parenright.numerator" horiz-adv-x="571" 
d="M102 1364v154q146 0 234 -90t88 -220v-514q0 -131 -88 -220t-234 -89v154q66 0 106 45t40 110v514q0 66 -40 111t-106 45z" />
    <glyph glyph-name="equal.numerator" horiz-adv-x="813" 
d="M647 795h-481v137h481v-137zM647 997h-481v138h481v-138z" />
    <glyph glyph-name="minus.numerator" horiz-adv-x="813" 
d="M647 897h-481v137h481v-137z" />
    <glyph glyph-name="zero.numerator" horiz-adv-x="817" 
d="M528 909v260q0 53 -33 92q-34 37 -87 37t-86 -38t-33 -91v-260q0 -53 33 -91t86 -38t87 38q33 38 33 91zM109 909v260q0 117 81 199q82 82 218 82t218 -82q83 -82 83 -199v-260q0 -117 -83 -199t-218 -81q-135 -1 -217 81t-82 199z" />
    <glyph glyph-name="five.numerator" horiz-adv-x="835" 
d="M139 977v457h531v-142h-365v-178q45 74 164 74t187 -80t67 -197q0 -117 -82 -199t-219 -83q-137 0 -219 83t-82 201h176q0 -57 34 -96t90 -39t91 40t35 96t-34 96q-33 40 -101 41q-68 0 -105 -74h-168z" />
    <glyph glyph-name="six.numerator" horiz-adv-x="798" 
d="M396 780q56 0 91 39t35 96t-35 97t-91 39q-56 0 -90 -39q-34 -38 -34 -96t34 -97t90 -39zM698 906q0 -112 -83 -194t-219 -81q-136 0 -218 82t-82 188t47 178l228 355h204l-157 -238l24 -6q16 -4 23 -4q105 -16 169 -92t64 -188z" />
    <glyph glyph-name="seven.numerator" horiz-adv-x="718" 
d="M100 1434h566l-336 -789h-193l273 637h-310v152z" />
    <glyph glyph-name="eight.numerator" horiz-adv-x="817" 
d="M289 873q0 -47 33 -77t87 -30t87 32q32 32 32 76t-32 76q-33 33 -87 33t-87 -32t-33 -78zM408 1116q48 0 76 30t28 71t-29 69t-75 27q-46 0 -75 -28q-28 -27 -28 -69t28 -71t75 -29zM705 870q0 -100 -80 -170t-216 -71q-136 1 -216 69t-80 172q0 63 35 117q36 53 92 70
q-49 20 -78 65t-29 103q0 97 75 161t202 64q126 0 200 -66t74 -159q0 -57 -29 -103t-77 -65q55 -17 91 -71t36 -116z" />
    <glyph glyph-name="nine.numerator" horiz-adv-x="798" 
d="M401 1298q-55 0 -90 -38t-35 -96t35 -97t90 -39t91 39q35 39 34 96q0 57 -34 97q-36 38 -91 38zM400 1448q136 0 220 -82t82 -203q0 -88 -49 -164l-227 -354h-203l158 236q-129 8 -205 87q-76 80 -76 198t82 200t218 82z" />
    <glyph glyph-name="ksuperior" horiz-adv-x="745" 
d="M305 645h-170v789h170v-476l168 230h205l-211 -273l211 -270h-205l-168 227v-227z" />
    <glyph glyph-name="osuperior" horiz-adv-x="798" 
d="M398 776q58 0 95 41q35 41 35 99t-35 99q-37 40 -95 40t-94 -40q-36 -39 -36 -99t36 -100t94 -40zM700 916q0 -120 -83 -202t-219 -83q-136 0 -218 83q-82 82 -82 202t82 203t218 83t219 -83t83 -203z" />
    <glyph glyph-name="bsuperior" horiz-adv-x="839" 
d="M436 776q57 0 93 41t36 98t-36 99t-93 41q-57 0 -94 -41q-37 -40 -37 -98t37 -99t94 -41zM305 645h-170v789h170v-324q19 37 67 64t99 26q117 0 192 -81t75 -204t-76 -203q-74 -80 -191 -81q-51 1 -99 27t-67 65v-78z" />
    <glyph glyph-name="csuperior" horiz-adv-x="770" 
d="M391 1057q-59 0 -91 -40q-32 -39 -32 -101t33 -101t103 -39t94 72h172q-12 -96 -85 -156t-203 -61q-130 0 -207 83q-77 82 -77 202t77 203t210 83t204 -66t79 -161h-170q-10 82 -107 82z" />
    <glyph glyph-name="esuperior" horiz-adv-x="772" 
d="M498 973q0 49 -31 79t-81 29t-82 -29t-32 -79h226zM272 874q0 -121 119 -120q76 0 103 63h165q-12 -80 -84 -133q-71 -53 -195 -53t-202 81q-78 80 -78 204t76 205t206 81t208 -73t78 -175q0 -31 -6 -80h-390z" />
    <glyph glyph-name="dsuperior" horiz-adv-x="837" 
d="M401 776q57 0 94 41q36 41 35 98q0 57 -35 99q-35 41 -93 41t-95 -41q-37 -40 -37 -98t37 -99t94 -41zM530 645v78q-18 -39 -66 -66t-99 -26q-117 0 -191 81q-74 82 -74 204t74 203t191 81q51 0 99 -26t66 -64v324h172v-789h-172z" />
    <glyph glyph-name="fsuperior" horiz-adv-x="550" 
d="M422 1315q-74 0 -74 -70v-57h127v-129h-127v-414h-170v414h-98v129h98v47q0 143 66 177t125 34t106 -14v-125q-25 8 -53 8z" />
    <glyph glyph-name="gsuperior" horiz-adv-x="833" 
d="M702 1188v-541q0 -139 -73 -201q-75 -61 -225 -61t-222 59t-76 158h173q5 -38 35 -64t83 -26q133 0 133 125v88q-50 -86 -166 -86t-190 78q-74 77 -74 199t73 203t191 81t166 -90v78h172zM401 1055q-57 0 -94 -41q-37 -40 -37 -98t37 -99t94 -41t94 41q36 41 35 98
q0 57 -35 99q-37 41 -94 41z" />
    <glyph glyph-name="tsuperior" horiz-adv-x="552" 
d="M370 637q-153 0 -187 85q-17 42 -17 105v232h-86v129h86v160h170v-160h123v-129h-123v-193q0 -57 23 -80t112 -10v-131q-49 -8 -101 -8z" />
    <glyph glyph-name="isuperior" horiz-adv-x="481" 
d="M156 1188h170v-543h-170v543zM350 1368q0 -44 -32 -76t-77 -32q-46 0 -78 32t-32 76q0 45 32 77t78 32q45 0 77 -32t32 -77z" />
    <glyph glyph-name="zsuperior" horiz-adv-x="663" 
d="M96 1188h490l-238 -397h230v-146h-496l240 397h-226v146z" />
    <glyph glyph-name="psuperior" horiz-adv-x="839" 
d="M436 1055q-57 0 -94 -41q-37 -40 -37 -98t37 -99t94 -41t93 41t36 98t-36 99t-93 41zM305 1188v-78q19 37 67 64t99 26q117 0 192 -81t75 -204t-76 -203q-74 -80 -191 -81q-51 1 -98 27t-68 65v-324h-170v789h170z" />
    <glyph glyph-name="qsuperior" horiz-adv-x="839" 
d="M403 1055q-57 0 -94 -41q-37 -40 -37 -98t37 -99t94 -41t94 41q36 41 35 98q0 57 -35 99q-37 41 -94 41zM532 1188h173v-789h-173v324q-18 -39 -66 -66t-99 -26q-117 0 -191 81q-74 82 -74 204t74 203t191 81q51 0 99 -26t66 -64v78z" />
    <glyph glyph-name="rsuperior" horiz-adv-x="591" 
d="M463 1040q-158 0 -158 -182v-213h-170v543h170v-88q19 40 65 68t88 28t66 -8v-156q-33 8 -61 8z" />
    <glyph glyph-name="ssuperior" horiz-adv-x="694" 
d="M592 805q0 -174 -244 -174q-118 0 -184 52t-66 144h168q0 -82 88 -82q72 0 72 52q0 25 -23 38t-63 25t-46 14q-8 2 -40 12t-61 23q-29 12 -55 45t-25 82q0 82 63 124t175 42t172 -51t61 -131h-168q0 70 -72 70q-63 0 -63 -50q0 -14 6 -20t11 -12t18 -11q14 -4 27 -8
t23 -7t56 -17q47 -14 82 -30q36 -15 62 -48t26 -82z" />
    <glyph glyph-name="usuperior" horiz-adv-x="804" 
d="M670 1188v-543h-170v78q-50 -92 -166 -92t-162 58t-45 177v322h170v-279q0 -133 96 -133q106 0 107 139v273h170z" />
    <glyph glyph-name="msuperior" horiz-adv-x="1110" 
d="M981 645h-164v293q0 117 -84 117q-92 0 -92 -137v-273h-166v293q0 117 -80 117q-94 0 -94 -140v-270h-166v543h166v-78q18 39 59 65t97 25q125 0 164 -96q49 96 170 96q190 0 190 -221v-334z" />
    <glyph glyph-name="vsuperior" horiz-adv-x="741" 
d="M59 1188h181l131 -342l133 342h178l-244 -543h-137z" />
    <glyph glyph-name="asuperior" horiz-adv-x="837" 
d="M401 776q57 0 94 41q36 41 35 98q0 57 -35 99q-35 41 -93 41t-95 -41q-37 -40 -37 -98t37 -99t94 -41zM530 1188h172v-543h-172v78q-18 -39 -66 -66t-99 -26q-117 0 -191 81q-74 82 -74 204t74 203t191 81q51 0 99 -26t66 -64v78z" />
    <glyph glyph-name="lsuperior" horiz-adv-x="440" 
d="M135 645v789h170v-789h-170z" />
    <glyph glyph-name="plusinferior" horiz-adv-x="813" 
d="M479 -330h-145v172h-168v138h168v172h145v-172h168v-138h-168v-172z" />
    <glyph glyph-name="equalinferior" horiz-adv-x="813" 
d="M647 -260h-481v137h481v-137zM647 -57h-481v137h481v-137z" />
    <glyph glyph-name="minusinferior" horiz-adv-x="813" 
d="M647 -158h-481v138h481v-138z" />
    <glyph glyph-name="one.denominator" horiz-adv-x="577" 
d="M94 522v129q109 0 148 32t39 105h159v-788h-184v522h-162z" />
    <glyph glyph-name="two.denominator" horiz-adv-x="772" 
d="M113 0q0 176 51 260t162 150q112 66 136 98t23 72q0 88 -90 88q-100 0 -100 -115h-180q1 111 75 181t198 71t200 -59t76 -179t-152 -226q-10 -7 -74 -48t-92 -71q-27 -30 -27 -75h340v-147h-546z" />
    <glyph glyph-name="four.denominator" horiz-adv-x="808" 
d="M440 0v219h-313v569h180v-417h133v219h181v-219h96v-152h-96v-219h-181z" />
    <glyph glyph-name="three.denominator" horiz-adv-x="800" 
d="M98 264h181q1 -63 33 -99t84 -36t80 31t28 73q0 109 -117 109h-70v141h70q105 1 105 93t-91 92q-100 0 -100 -115h-180q-1 109 69 181t197 71t206 -59t79 -162q0 -64 -33 -110t-84 -64q57 -20 93 -70t36 -119q0 -109 -82 -173t-213 -64t-211 76t-80 204z" />
    <glyph glyph-name="plus.denominator" horiz-adv-x="813" 
d="M479 80h-145v172h-168v137h168v172h145v-172h168v-137h-168v-172z" />
    <glyph glyph-name="parenleft.denominator" horiz-adv-x="571" 
d="M469 872v-153q-65 0 -105 -45t-40 -111v-514q0 -67 40 -111t105 -44v-154q-145 0 -233 89t-89 220v514q1 131 89 220t233 89z" />
    <glyph glyph-name="parenright.denominator" horiz-adv-x="571" 
d="M102 719v153q146 0 234 -89t88 -220v-514q0 -131 -88 -220t-234 -89v154q66 0 106 45t40 110v514q0 66 -40 111t-106 45z" />
    <glyph glyph-name="equal.denominator" horiz-adv-x="813" 
d="M647 150h-481v137h481v-137zM647 352h-481v137h481v-137z" />
    <glyph glyph-name="minus.denominator" horiz-adv-x="813" 
d="M647 252h-481v137h481v-137z" />
    <glyph glyph-name="five.denominator" horiz-adv-x="835" 
d="M139 332v456h531v-141h-365v-178q45 74 164 74t187 -80t67 -197q0 -118 -82 -200t-219 -82t-219 83t-82 201h176q0 -57 34 -96t90 -39t91 40t35 96q0 57 -34 97q-33 40 -101 40t-105 -74h-168z" />
    <glyph glyph-name="six.denominator" horiz-adv-x="798" 
d="M396 135q56 0 91 39t35 96q0 56 -35 96t-91 40t-90 -39t-34 -97t34 -96q34 -39 90 -39zM698 261q0 -111 -83 -193t-219 -82t-218 82t-82 188t47 178l228 354h204l-157 -237l24 -6q16 -4 23 -4q105 -16 169 -92t64 -188z" />
    <glyph glyph-name="seven.denominator" horiz-adv-x="718" 
d="M100 788h566l-336 -788h-193l273 637h-310v151z" />
    <glyph glyph-name="eight.denominator" horiz-adv-x="817" 
d="M289 228q0 -46 33 -76t87 -31q54 0 87 32q32 33 32 77t-32 76q-33 32 -87 32t-87 -32t-33 -78zM305 570q0 -42 28 -70t75 -29q48 0 76 30q28 29 28 69t-29 69t-75 29t-75 -28q-28 -28 -28 -70zM705 225q0 -101 -80 -171t-216 -70t-216 68t-80 173q0 63 35 117
q36 53 92 70q-49 20 -78 65t-29 103q0 96 75 160t202 65q126 0 200 -66t74 -159q0 -56 -29 -102t-77 -66q55 -18 91 -72t36 -115z" />
    <glyph glyph-name="nine.denominator" horiz-adv-x="798" 
d="M401 653q-55 0 -90 -39t-35 -96t35 -96t90 -39t91 39q35 39 34 96q0 57 -34 96q-36 39 -91 39zM400 803q136 0 220 -82t82 -203q0 -88 -49 -164l-227 -354h-203l158 236q-129 8 -205 87t-76 197t82 201q82 82 218 82z" />
    <glyph glyph-name="zero.denominator" horiz-adv-x="817" 
d="M528 264v260q0 53 -33 91q-34 38 -87 38t-86 -38t-33 -91v-260q0 -53 33 -91t86 -38t87 38q33 38 33 91zM109 264v260q0 117 81 199q82 82 218 82t218 -82q83 -82 83 -199v-260q0 -116 -83 -198t-218 -82t-217 82t-82 198z" />
    <glyph glyph-name="Adieresis.001.smcp" horiz-adv-x="1140" 
d="M569 825l-149 -493h297zM666 1147l407 -1147h-250l-45 141h-418l-47 -141h-245l403 1147h195zM881 1425l-142 -213h-149l143 213h148zM666 1425l-142 -213h-149l143 213h148z" />
    <glyph glyph-name="Odieresis.001.smcp" horiz-adv-x="1439" 
d="M719 180q162 0 262 117t100 277t-100 276q-100 117 -262 117t-261 -117q-100 -117 -100 -277q0 -161 100 -277t261 -116zM1321 573q0 -246 -165 -424t-436 -178q-271 1 -436 179t-165 424t165 423q165 179 436 179t436 -178t165 -425zM1006 1425l-144 -213h-147l143 213
h148zM791 1425l-144 -213h-147l143 213h148z" />
    <glyph glyph-name="Udieresis.001.smcp" horiz-adv-x="1185" 
d="M162 387v760h231v-758q-1 -90 55 -152q56 -63 144 -63t145 62t58 153v758h229v-760q0 -176 -119 -296t-313 -120t-312 120t-118 296zM897 1425l-141 -213h-150l144 213h147zM682 1425l-143 -213h-148l144 213h147z" />
    <glyph glyph-name="Edieresis.001.smcp" horiz-adv-x="1026" 
d="M860 954h-452v-290h452v-189h-452v-282h452v-193h-684v1147h684v-193zM844 1425l-144 -213h-147l143 213h148zM629 1425l-144 -213h-147l143 213h148z" />
    <glyph glyph-name="zero.smcp" horiz-adv-x="1146" 
d="M762 385v377q0 86 -52 145t-136 59t-137 -58q-52 -60 -52 -146v-377q0 -86 52 -145q52 -60 136 -60q85 0 137 60t52 145zM150 385v377q0 172 116 290q117 118 306 118t308 -119q118 -119 117 -289v-377q1 -170 -117 -289t-308 -119t-306 118t-116 290z" />
    <glyph glyph-name="one.plf.smcp" horiz-adv-x="802" 
d="M131 778v172q156 0 210 44t54 153h213v-1147h-241v778h-236z" />
    <glyph glyph-name="two.plf.smcp" horiz-adv-x="1079" 
d="M696 838q0 143 -146 143q-66 0 -111 -43q-44 -43 -44 -131h-235q0 162 108 262q109 100 279 100t276 -88t107 -258q0 -112 -72 -192q-27 -31 -42 -48t-52 -45t-48 -35t-50 -32l-39 -27q-125 -84 -162 -129t-37 -118h494v-197h-764q0 265 89 393q77 111 181 175
q43 26 74 43t40 23t35 23q27 15 35 25t26 26q58 56 58 130z" />
    <glyph glyph-name="seven.smcp" horiz-adv-x="1148" 
d="M213 1147h788l-489 -1147h-250l408 944h-457v203z" />
    <glyph glyph-name="four.plf.smcp" horiz-adv-x="1130" 
d="M623 0v328h-443v819h236v-617h207v326h235v-326h146v-202h-146v-328h-235z" />
    <glyph glyph-name="eight.smcp" horiz-adv-x="1148" 
d="M560 166q83 0 134 49t51 118t-49 118t-136 49t-136 -48t-49 -119t51 -119t134 -48zM560 678q73 0 117 45t44 107t-44 106t-117 45q-73 0 -117 -43q-44 -42 -44 -106t44 -109t117 -45zM558 -23q-190 1 -302 101t-113 250q-1 92 49 170t130 102q-72 30 -111 96t-39 146
q0 139 106 233t282 94t282 -95t106 -232q0 -80 -39 -147t-110 -95q80 -26 129 -104t49 -168q0 -145 -114 -248q-115 -103 -305 -103z" />
    <glyph glyph-name="three.plf.smcp" horiz-adv-x="1130" 
d="M135 385h236q0 -97 53 -155t133 -58t126 48t46 116q0 170 -184 170h-92v190h94q162 0 162 152q0 66 -39 100t-105 33q-160 0 -159 -174h-236q0 158 100 260t274 102t286 -85t112 -232q0 -94 -45 -161t-119 -93q82 -32 134 -102t53 -172q0 -156 -118 -251
q-119 -95 -299 -95t-296 110q-116 111 -117 297z" />
    <glyph glyph-name="six.smcp" horiz-adv-x="1146" 
d="M571 180q87 0 141 60t54 149t-54 149t-140 60t-140 -60q-53 -60 -53 -148t53 -150q53 -60 139 -60zM572 -20q-192 0 -308 118q-117 118 -117 291q0 121 72 238l332 520h264l-233 -352q6 2 20 2q178 -8 287 -125t109 -286t-117 -288q-117 -118 -309 -118z" />
    <glyph glyph-name="nine.smcp" horiz-adv-x="1146" 
d="M573 967q-86 -1 -140 -61t-54 -148t54 -148t140 -61q86 0 140 60q53 61 53 149t-54 148t-139 61zM147 761q1 169 117 287t308 119q192 0 309 -118q117 -119 116 -291q0 -121 -71 -238l-330 -520h-266l233 350h-20q-178 8 -287 125t-109 286z" />
    <glyph glyph-name="five.smcp" horiz-adv-x="1148" 
d="M172 485v662h746v-193h-531v-278q33 55 101 83t139 27q178 0 275 -116t97 -285q-1 -170 -117 -289t-308 -119t-308 119q-117 119 -116 291h231q0 -88 53 -148q53 -61 140 -61q86 0 140 62t54 149q0 89 -53 149t-142 60q-121 0 -176 -113h-225z" />
    <glyph glyph-name="zero.plf.smcp" horiz-adv-x="1150" 
d="M764 385v377q0 86 -52 145t-136 59t-137 -58q-52 -60 -52 -146v-377q0 -86 52 -145q52 -60 136 -60q85 0 137 60t52 145zM152 385v377q0 172 116 290q117 118 306 118t308 -119q118 -119 117 -289v-377q1 -170 -117 -289t-308 -119t-306 118t-116 290z" />
    <glyph glyph-name="one.smcp" horiz-adv-x="1148" 
d="M276 778v172q156 0 210 44t55 153h213v-1147h-242v778h-236z" />
    <glyph glyph-name="two.smcp" horiz-adv-x="1148" 
d="M739 838q-1 143 -147 143q-66 0 -110 -43t-44 -131h-235q0 162 108 262q109 100 279 100t276 -88t107 -258q0 -112 -72 -192q-27 -31 -42 -48t-52 -45t-48 -35t-50 -32l-39 -27q-125 -84 -162 -129t-37 -118h494v-197h-764q0 265 89 393q77 111 181 175q43 26 74 43
t40 23t35 23q26 15 34 25t26 26q58 56 59 130z" />
    <glyph glyph-name="three.smcp" horiz-adv-x="1148" 
d="M152 385h235q0 -97 53 -155q54 -58 134 -58t126 48t45 116q0 170 -184 170h-92v190h94q162 0 162 152q0 66 -39 100t-104 33q-160 0 -160 -174h-236q0 158 100 260t275 102q174 0 286 -85t111 -232q0 -94 -45 -161t-118 -93q82 -32 134 -102t52 -172q0 -156 -118 -251
t-298 -95t-297 110q-116 111 -116 297z" />
    <glyph glyph-name="four.smcp" horiz-adv-x="1148" 
d="M623 0v328h-443v819h236v-617h207v326h235v-326h146v-202h-146v-328h-235z" />
    <glyph glyph-name="five.plf.smcp" horiz-adv-x="1185" 
d="M199 485v662h745v-193h-530v-278q34 55 102 83t137 27q178 0 276 -115q97 -116 97 -286t-117 -289t-308 -119t-308 119t-117 291h232q0 -88 53 -148q53 -61 140 -61t140 62t54 149q1 89 -53 149t-142 60q-121 0 -176 -113h-225z" />
    <glyph glyph-name="six.plf.smcp" horiz-adv-x="1128" 
d="M561 180q86 0 140 60t55 149q0 89 -54 149t-141 60q-86 0 -139 -60t-53 -148t53 -150q53 -60 139 -60zM987 380q-1 -164 -117 -282t-308 -118t-308 118q-117 118 -117 291q0 121 72 238l332 520h264l-234 -352l52 -9q164 -14 264 -128t100 -278z" />
    <glyph glyph-name="seven.plf.smcp" horiz-adv-x="1001" 
d="M141 1147h789l-490 -1147h-250l408 944h-457v203z" />
    <glyph glyph-name="eight.plf.smcp" horiz-adv-x="1157" 
d="M578 500q-86 0 -136 -48t-49 -119q-1 -71 51 -119t135 -48t134 49t51 118t-50 118t-136 49zM579 678q73 0 117 45t43 107q0 62 -44 106q-45 44 -117 45q-72 0 -116 -43q-44 -42 -44 -106t44 -109t117 -45zM995 328q1 -145 -113 -248t-304 -103q-190 1 -304 101
q-113 100 -112 250q0 92 49 170t129 102q-72 30 -111 96t-39 146q0 139 106 233t282 94q178 0 283 -95t106 -232q0 -80 -39 -147t-111 -95q80 -26 129 -104t49 -168z" />
    <glyph glyph-name="nine.plf.smcp" horiz-adv-x="1128" 
d="M567 967q-86 -1 -140 -61t-54 -148t54 -148t140 -61q86 0 140 60q53 61 53 149t-54 148t-139 61zM141 758q1 172 117 290t308 119q192 -1 308 -119q117 -118 117 -290q0 -125 -71 -238l-330 -520h-266l233 350q-190 8 -303 122t-113 286z" />
    <glyph glyph-name="zero.slash.smcp" horiz-adv-x="1146" 
d="M762 385v324q0 30 -6 61l-248 -577q29 -12 65 -13q85 0 137 60t52 145zM385 768v-334q0 -33 10 -74l254 590q-39 16 -76 17q-82 1 -135 -57t-53 -142zM997 762v-377q1 -170 -117 -289t-308 -119t-306 118q-117 118 -116 290v377q0 172 116 290q117 118 306 118t308 -119
q117 -119 117 -289z" />
    <glyph glyph-name="zero.plfslash.smcp" horiz-adv-x="1146" 
d="M762 385v324q0 30 -6 61l-248 -577q29 -12 65 -13q85 0 137 60t52 145zM385 768v-334q0 -33 10 -74l254 590q-39 16 -76 17q-82 1 -135 -57t-53 -142zM997 762v-377q1 -170 -117 -289t-308 -119t-306 118q-117 118 -116 290v377q0 172 116 290q117 118 306 118t308 -119
q117 -119 117 -289z" />
    </font>
</defs>
</svg>
