<svg xmlns="http://www.w3.org/2000/svg"><defs><style/><style/></defs><symbol id="icon-calendar" viewBox="0 0 25.35 27.3"><title>icon-calendar</title><path class="cls-1" d="M25.36 5.85v19.5a2 2 0 0 1-2 2H1.95a1.87 1.87 0 0 1-1.37-.58A1.88 1.88 0 0 1 0 25.4V5.85a1.88 1.88 0 0 1 .58-1.37 1.87 1.87 0 0 1 1.37-.58h2V2.44A2.35 2.35 0 0 1 4.67.72 2.35 2.35 0 0 1 6.34 0h1a2.35 2.35 0 0 1 1.72.72 2.35 2.35 0 0 1 .72 1.72V3.9h5.85V2.44a2.35 2.35 0 0 1 .72-1.72A2.35 2.35 0 0 1 18.04 0h1a2.35 2.35 0 0 1 1.72.72 2.35 2.35 0 0 1 .72 1.72V3.9h1.95a2 2 0 0 1 1.93 1.95zM1.95 14.14h4.39V9.75H1.95v4.39zm0 5.85h4.39v-4.88H1.95v4.88zm0 5.36h4.39v-4.39H1.95v4.39zM7.8 6.82V2.44a.5.5 0 0 0-.48-.49h-1a.5.5 0 0 0-.49.49v4.38a.5.5 0 0 0 .49.49h1a.5.5 0 0 0 .48-.49zm-.48 7.32h4.87V9.75H7.32v4.39zm0 5.85h4.87v-4.88H7.32v4.88zm0 5.36h4.87v-4.39H7.32v4.39zm5.85-11.21h4.88V9.75h-4.88v4.39zm0 5.85h4.88v-4.88h-4.88v4.88zm0 5.36h4.88v-4.39h-4.88v4.39zm6.34-18.53V2.44a.49.49 0 0 0-.49-.49h-1a.49.49 0 0 0-.49.49v4.38a.49.49 0 0 0 .49.49h1a.49.49 0 0 0 .49-.49zm-.49 7.31h4.39V9.75h-4.39v4.39zm0 5.85h4.39v-4.87h-4.39v4.88zm0 5.36h4.39v-4.38h-4.39v4.39z"/></symbol><symbol id="icon-facebook" viewBox="0 0 24 24"><path d="M9 8H6v4h3v12h5V12h3.642L18 8h-4V6.333C14 5.378 14.192 5 15.115 5H18V0h-3.808C10.596 0 9 1.583 9 4.615V8z"/></symbol><symbol id="icon-instagram" viewBox="0 0 24 24"><path d="M21.23 0H2.77A2.77 2.77 0 0 0 0 2.77v18.46A2.77 2.77 0 0 0 2.77 24H21.23A2.77 2.77 0 0 0 24 21.23V2.77A2.77 2.77 0 0 0 21.23 0zM12 7.385a4.615 4.615 0 1 1 .002 9.23A4.615 4.615 0 0 1 12 7.385zm9 12.693c0 .51-.413.922-.924.922H3.924A.923.923 0 0 1 3 20.078V10h1.897a7.56 7.56 0 0 0-.2.97c-.05.338-.08.68-.08 1.03a7.384 7.384 0 0 0 14.767 0c0-.35-.03-.692-.08-1.028a7.56 7.56 0 0 0-.2-.97H21v10.076zm0-13.98c0 .51-.413.923-.924.923h-2.174a.923.923 0 0 1-.923-.922V3.923c0-.51.41-.923.922-.923h2.174c.51 0 .924.413.924.923v2.175z" clip-rule="evenodd"/></symbol><symbol id="icon-letter" viewBox="0 0 22.32 14.73"><title>icon-letter</title><path class="cls-1" d="M20.98 0H1.34A1.34 1.34 0 0 0 0 1.34v12.05a1.34 1.34 0 0 0 1.34 1.34h19.64a1.34 1.34 0 0 0 1.34-1.34V1.34A1.34 1.34 0 0 0 20.98 0zm-9.82 7.93l-9.52-7h19zM7.65 6.45L.89 13.21V1.45zm.73.54l2.78 2.05 2.78-2.05 6.86 6.86H1.53zm6.29-.54l6.76-5v11.76z"/></symbol><symbol id="icon-map-marker" viewBox="0 0 51.56 68.97"><title>icon-map-marker</title><path d="M50.08 16.7c-2.1-5.84-6.15-10.32-12.37-13.69a25.23 25.23 0 0 0-12-3 24.84 24.84 0 0 0-11.86 3C7.63 6.4 3.59 10.88 1.49 16.7a27 27 0 0 0 .46 18.85c2.67 6.92 8.83 18.2 23 32.57l.84.85.84-.85c14.16-14.37 20.32-25.64 23-32.57a27 27 0 0 0 .45-18.85zm-24.3 18.15a9.05 9.05 0 1 1 9.05-9.05 9.05 9.05 0 0 1-9.05 9.05z"/></symbol><symbol id="icon-menu-arrow" viewBox="0 0 56 8.18"><title>icon-menu-arrow</title><path class="cls-1" d="M0 3.59h55v1H0z"/><path class="cls-1" d="M51.6 8.18l-.68-.73 3.61-3.36L50.92.73 51.6 0 56 4.09l-4.4 4.09z"/></symbol><symbol id="icon-next-arrow" viewBox="0 0 17.15 29.28"><title>icon-next-arrow</title><path class="cls-1" d="M2.5 29.28a2.5 2.5 0 0 1-1.77-4.27L11.1 14.64.77 4.23A2.503 2.503 0 1 1 4.31.69l12.14 12.14a2.5 2.5 0 0 1 0 3.54L4.31 28.51a2.5 2.5 0 0 1-1.81.77z"/></symbol><symbol id="icon-phone" viewBox="0 0 24.95 24.93"><title>icon-phone</title><path class="cls-1" d="M24.46 18.63l-3.55-3.55a1.72 1.72 0 0 0-2.37 0l-1.58 1.58a1.72 1.72 0 0 1-2.37 0l-6.32-6.32a1.68 1.68 0 0 1 0-2.37l1.58-1.58a1.68 1.68 0 0 0 0-2.37L6.3.47a1.72 1.72 0 0 0-2.37 0L2.35 2.05h-.07a.83.83 0 0 0-.44.47c-2 2.12-2.39 4.75-1.06 7.83a27.07 27.07 0 0 0 5.91 7.84c4.57 4.57 8.15 6.7 11.27 6.7a6.19 6.19 0 0 0 4.4-1.85.83.83 0 0 0 .47-.44v-.07l1.58-1.58a1.68 1.68 0 0 0 .05-2.32zM4.72 1.26a.57.57 0 0 1 .79 0l3.55 3.55a.56.56 0 0 1 0 .79L7.88 6.78 3.54 2.44zm2.76 16.18a26.07 26.07 0 0 1-5.67-7.49C.64 7.23.94 5.04 2.75 3.23l4.38 4.38a2.8 2.8 0 0 0 .36 3.51l6.32 6.32a2.8 2.8 0 0 0 3.51.35l4.38 4.38a5.09 5.09 0 0 1-3.73 1.63c-2.76.02-6.19-2.06-10.48-6.35zm16.18 2.76l-1.18 1.18-4.34-4.34 1.18-1.18a.58.58 0 0 1 .79 0l3.55 3.55a.56.56 0 0 1 .01.8z"/></symbol><symbol id="sallys-kitchen-logo" viewBox="0 0 303.67 37.48"><title>sallys-kitchen-logo</title><path class="cls-1" d="M110.52 1.53c1.49-.12 2.37 1.2 2.16 3s-1.37 3.93-2.4 4.49c-.81.44-2.79.59-2.82-.42s.8-.65 1.56-1a1.57 1.57 0 0 0 .84-1.5c-.14-1.15-1.85-1-1.62-2.76a2.41 2.41 0 0 1 2.28-1.8M67.96 4.33c.94 0 2.85-.2 3.24 1a12.06 12.06 0 0 1 0 2.64c0 4.48-.2 8.39-.36 13.12-.06 1.59-.29 4.44.36 5a5 5 0 0 0 2.16.36c.9 0 2.17-.29 2.7.12a1.32 1.32 0 0 1 .18 1.62c-.37.51-1.51.44-2.34.54-2.24.27-4.3.4-5.21-1.08s-.49-4.42-.42-6.83c.08-2.71 0-5.18.06-7.19 0-1.26.74-5.85-.36-6.65-.61-.45-2.66-.1-3.84-.06-1.41.05-2.85-.09-2.58-1.38.2-.91 1.44-.81 2.7-.9s2.69-.19 3.71-.24M10.96 3.45c1.31-.06 3.44.21 3.3 1.86-.15 1.8-2.45.56-3.83.54a10.4 10.4 0 0 0-4.07.72 3.65 3.65 0 0 0-1.39 4.17c.89 2.25 3.34 2.85 5.45 4 1.89 1 4 2.57 4.67 4.73a7.86 7.86 0 0 1-.48 4.91c-1.45 3.36-4.86 4.59-10.24 4.18a18.56 18.56 0 0 1-2.4-.42c-.7-.15-1.58-.3-1.86-.9a1.58 1.58 0 0 1 .84-2.1 4.11 4.11 0 0 1 1.8.54 9.19 9.19 0 0 0 7.85-1.86 3.79 3.79 0 0 0 1.14-1.92 5.28 5.28 0 0 0-1.32-3.72c-1.94-2.31-6.4-2.94-8.21-5.33a5.83 5.83 0 0 1 0-6.47c1.62-2.05 5.05-2.77 8.75-2.93M52.37 25.62a.63.63 0 0 0 .24.27c.79.49 3.16-.45 4.38-.06a1.68 1.68 0 0 1 .54 2.76c-3.24-.05-7.23 1.1-8.21-1.68a10.42 10.42 0 0 1-.06-2.94 115.4 115.4 0 0 0 .18-11.92c0-.69-.1-1.47-.12-2.4a5.87 5.87 0 0 0-.18-2.28c-.72-1-3.65 0-4.5-1.26a1.51 1.51 0 0 1-.11-1.37c.3-.61 1.54-.67 2.1-.72a9.44 9.44 0 0 1 3.54.3 2.79 2.79 0 0 1 2 1.44c.89 1.8.31 5.4.3 7.67 0 1.07.08 2.08 0 3.18-.14 1.93-.21 4-.24 6.11a9.76 9.76 0 0 0 .11 2.91M124.51 9.87c1.37-.12 4.87-.3 4.7 1.35-.13 1.26-3.48.77-4.73.9a8.16 8.16 0 0 0-3.47 1.32 2.55 2.55 0 0 0-1.44 2.52c.14.85 1.29 1.24 2.1 1.5 1.07.35 1.85.62 2.64.9 1.48.52 4 1.07 5.09 2a4 4 0 0 1 1.38 3.6c-.17 1.56-2 3-3.12 3.66-1.68 1-3.81 1.2-6.83 1.2a10.8 10.8 0 0 1-3.12-.12 1.87 1.87 0 0 1-1-1.92 2 2 0 0 1 1.56-.9c.7 0 1.52.24 2.34.24a11.62 11.62 0 0 0 5.33-1.08c.76-.43 1.56-.81 1.44-2-.15-1.59-3.27-2.07-5-2.46-2.24-.49-4.72-1.34-5.63-3.06a5.52 5.52 0 0 1 .54-5 6.11 6.11 0 0 1 2-1.44 12.1 12.1 0 0 1 3.47-1l1.71-.15M96.83 11.61a.61.61 0 0 1 .48-.24c.84 0 1.75.36 1.82 1.06s-.62 2.05-.9 2.88c-.36 1.07-2.4 6.07-3.12 8-.65 1.71-1 3.55-1.56 5.21-.82 2.33-1.28 4.56-2.64 6.17a8.93 8.93 0 0 1-4.67 2.7 5.9 5.9 0 0 1-2.88-.12c-.68-.4-.69-2.19-.18-2.88 2.87-.18 4.79-.78 6.05-2.1 1.91-2 .62-5.57-.48-7.49-.53-.92-1.06-1.82-1.56-2.81-.31-.61-4-7.25-4-7.25s-.62-1.22-.93-1.73c-.61-1-.35-2.29.81-2.22s1.76 1.3 2.25 2.25c.37.67 1.9 3.37 2.28 4.08.95 1.76 2 3.52 2.88 5.45a1.75 1.75 0 0 0 .87 1c1 .17 2-3 2.18-3.42.67-1.29 1.12-3 1.75-4.49.32-.77.53-1.46.77-2.24a7.87 7.87 0 0 1 .78-1.81M32.59 24.63a12.86 12.86 0 0 1-3 .94 5.86 5.86 0 0 1-1 .14c-1.94-.13-1.11-2.77 0-3.26a2.92 2.92 0 0 1 .86-.22c1.24-.13 3.73-.22 3.89.9a1.83 1.83 0 0 1-.84 1.5m4.55-8.69a6.35 6.35 0 0 0-1-2.88c-1.42-1.48-6.49-1.64-9-1.62a4.33 4.33 0 0 0-2.22.3 1.6 1.6 0 0 0-.6 1.68c.24.5 1.8.39 2.52.42 2.46.11 5.18-.14 6.53.9s1.06 3.77-.48 4.32c-1.08.38-2.57-.09-3.71-.06-3.09.09-5.05 1.58-5.93 3.89-1.13 3 1.26 5.4 3.83 5.81 2 .32 4.59-.17 6.05.36.62.23 1.94 1.41 2.94 1 .77-.3.52-1.72.66-2.7 0-.3.08-4.21.18-5.87a35.46 35.46 0 0 0 .18-5.57M245.83 12.74a1.41 1.41 0 0 0 1-.66 7.13 7.13 0 0 1 3.91-1.93 5.61 5.61 0 0 1 4.79 2.75 17.55 17.55 0 0 1 .77 3.8 63.05 63.05 0 0 1 .11 8.86c0 1.37 0 3.31-1.32 3.36-1 0-1.21-.92-1.21-2s.64-9.07-.27-11.34a3.53 3.53 0 0 0-5.24-1.84 7.75 7.75 0 0 0-2.64 3c-.38 1.17-.42 8.35-.22 10.24a2.27 2.27 0 0 1-.18 1.38 1.55 1.55 0 0 1-1.49.22c-.39-.19-.47-1-.48-1.76V14.99c.1-1.84 0-4.07.05-6.16V6.52a7.64 7.64 0 0 1 .11-2.2 1.48 1.48 0 0 1 1.31-.67c1.14.25.88 2.53.88 4a37.66 37.66 0 0 0 .12 5.09M158.18 10.74c.63 0 8.27-7.43 9.17-8.39a3.34 3.34 0 0 1 1.38-1.14 1.76 1.76 0 0 1 1.74 1.62 2.35 2.35 0 0 1-.76 1.09c-.3.33-2 2.07-2.59 2.63-1.12 1.12-2.32 2.29-3.42 3.53-.79.89-1.77 1.74-1.67 3.12a4.52 4.52 0 0 0 1 1.74 78.86 78.86 0 0 0 6.17 7.55c.36.41.75 1 1.2 1.56a3.83 3.83 0 0 1 1 1.68 1.92 1.92 0 0 1-1.8 1.32c-1.17 0-2.24-1.76-3.06-2.76-1.77-2.18-3.4-4.07-5.09-6.53-.35-.51-.78-1-1.2-1.74-.31-.52-.8-1.39-1.62-1.26a1.73 1.73 0 0 0-1 1.5 86 86 0 0 0 .19 9.13c0 .95.32 2.19 0 2.73s-1.14.59-2 .54c-.67 0-.66-2.41-.66-3.84 0-3.69-.12-7.92-.18-12.34 0-2.61.22-6.16-.06-9.11-.14-1.44-.53-3.07.66-3.3 2.86-.54 2.41 3.27 2.4 5.45 0 1.89.12 3.64.18 5.21M183.24 2.86a2.77 2.77 0 0 1 2 .4 2.46 2.46 0 0 1 1 2.22 3.92 3.92 0 0 1-1.59 2.11c-1.15.4-2-.74-2.56-1.37a2.71 2.71 0 0 1-.91-2.28c.17-.74 1-1 2-1.08M202.56 5.63a.66.66 0 0 1 .22.56 13.78 13.78 0 0 0 .13 3.11.39.39 0 0 0 .3.29c.89.06 2 .08 3.07.11 1.8 0 3.37-.32 3.4 1.5a3.11 3.11 0 0 1-.22 1.28c-.61.79-3.3.51-4.84.5a7.05 7.05 0 0 0-1.86.21.45.45 0 0 0-.26.28c-.57 2.09.15 9.13.18 9.42a4.92 4.92 0 0 0 1.43 2.85 3.5 3.5 0 0 0 4.17-.28c.54-.47.77-1.66 1.61-1.5 1.23.23-.13 3-.5 3.39-1.32 1.43-6.81 1.87-8.07.17a9.29 9.29 0 0 1-1.17-4c-.31-3.35-.37-6.72-.56-10-.74-.74-1.62.16-2.45-.28a3.26 3.26 0 0 1-.5-3c.56-.82 2.66 0 3.17-.83s-.68-4.68.56-4.73a3.57 3.57 0 0 1 2.18.83M268.78 15.03c-.35.49-.86 1.63-.39 2.3.29.4 1.09.34 2 .38.78 0 1.83.19 2.63.22 1.19 0 2.84.11 3.46-.55s.4-2.56 0-3.24a3.25 3.25 0 0 0-3-1.15c-1.87.17-3.77.69-4.72 2m2.85-5.21a7.51 7.51 0 0 1 7.63 5c.33 1.11.75 3.68-.22 4.55a3.47 3.47 0 0 1-1.65.55c-1.8.14-4.62-.22-6.69-.27-.69 0-1.79-.18-2.09.11s-.19 2.44-.11 3.24a4.44 4.44 0 0 0 1.43 2.8 6.85 6.85 0 0 0 5.87.39 6.84 6.84 0 0 0 1.21-.82c.42-.34.74-1.16 1.37-1.21a.89.89 0 0 1 1 .55c.18.72-.64 1.43-1 1.76-1.6 1.32-4 2.85-7.19 2-2.56-.66-3.94-2.47-4.94-5a14.93 14.93 0 0 1-.22-9.38 9.36 9.36 0 0 1 1.1-2.09 6.71 6.71 0 0 1 4.55-2.25M292.23 13.05c1-.2 1.43-1.12 2.32-1.64a5.69 5.69 0 0 1 5.54-.17 7.69 7.69 0 0 1 3.23 5.5c.25 2.54.29 5.52.28 8.32 0 1.21.24 2.75-.22 3.79a.29.29 0 0 1-.26.19 3.08 3.08 0 0 1-1.52-.1.32.32 0 0 1-.18-.26c-.15-2.74-.13-5.92-.3-8.9-.15-2.63-.8-5.09-2.78-5.87a5.4 5.4 0 0 0-2.38-.23c-2.56.29-3.63 3-3.85 5.72-.08 1-.1 3.78-.11 4.07s-.11 2.55-.11 3.34a2.85 2.85 0 0 1-.28 1.76 1.78 1.78 0 0 1-1.81-.35 11.28 11.28 0 0 1-.17-3.45c.12-3.36.46-7.57.45-10.41 0-1-.44-2.84-.06-3.79.28-.7 1.68-.62 2-.23.51.66-.22 1.89.23 2.72M229.33 10.74c.52.1 1.1.14 1.74.27.88.18 2.52.36 2.28 1.74-.19 1.1-1.36.52-2.23.38a6.19 6.19 0 0 0-6.79 2.93 8.09 8.09 0 0 0-1 4.13c0 3 2.08 5.76 5.21 5.81a5.3 5.3 0 0 0 1.3-.22c.77-.23 2.24-1.26 2.88-.49.42.51-.07 1.52-.38 1.9-.9 1.11-2.68 1.7-4.83 1.52a8.55 8.55 0 0 1-2.93-.87 10.36 10.36 0 0 1-4.62-4.73 9.52 9.52 0 0 1-.27-6.46 10.29 10.29 0 0 1 2.14-3.34 8.31 8.31 0 0 1 2.5-2.06 10.15 10.15 0 0 1 5-.51M183.37 28.66a.23.23 0 0 1-.16-.26v-6.33l.09-3.64v-4.38a.8.8 0 0 0-.95-.89c-.24 0-2.63.12-3.4.11a3.14 3.14 0 0 1-1.17 0c-.51-.21-.53-.93-.5-1.78s1.72-.92 2.9-1.06a28.61 28.61 0 0 1 3.4-.39c1.62 0 1.65 1 1.78 2.79.31 4.11 0 8.34.06 12.5 0 .91.6 2.79-.17 3.35a2.39 2.39 0 0 1-1.85 0"/></symbol></svg>